<?xml version="1.0" encoding="UTF-8"?>
<svg version="1.1" xmlns="http://www.w3.org/2000/svg" width="2100" height="2100">
<path d="M0 0 C2.63215647 -0.00650157 5.26425113 -0.01793841 7.89638519 -0.03044128 C26.25099279 -0.10606454 44.48583383 0.2357234 62.78487396 1.74726868 C63.52714548 1.80845005 64.269417 1.86963142 65.03418159 1.93266678 C132.78610097 7.65649875 199.25770734 26.2518234 254.87471771 66.36836243 C255.63913177 66.91637512 256.40354584 67.46438782 257.19112396 68.02900696 C266.87603087 74.9914912 276.30125508 82.13325536 285.28145599 89.98554993 C286.99569759 91.47336243 288.72795091 92.93798453 290.46456146 94.39961243 C296.51836256 99.50743156 302.34991499 104.68106551 307.87471771 110.36836243 C309.76012827 112.25377298 311.70783133 113.96831256 313.74971771 115.68086243 C318.74453904 119.97344155 323.05271222 124.89178193 327.44258881 129.78340149 C328.85118415 131.34231744 330.27528482 132.88512961 331.70674896 134.42304993 C337.69748259 140.86303634 343.44005615 147.44927706 348.87471771 154.36836243 C349.43787689 155.08073059 350.00103607 155.79309875 350.58126068 156.52705383 C365.6963633 175.72562467 379.10272286 195.95514598 390.87471771 217.36836243 C391.36037201 218.24927551 391.84602631 219.1301886 392.3463974 220.03779602 C417.01420979 265.1353734 430.5084106 314.43819308 437.06221771 365.24336243 C437.21714691 366.42188782 437.37207611 367.60041321 437.53170013 368.81465149 C440.42824377 392.52310553 441.25747417 416.31508281 441.18721771 440.18086243 C441.18498779 441.53248588 441.18281169 442.88410941 441.18068695 444.23573303 C441.12552205 469.69697399 440.08267913 494.99937769 437.87471771 520.36836243 C437.74320313 521.88523651 437.74320313 521.88523651 437.60903168 523.43275452 C435.18283484 551.10337972 432.07818489 578.70305472 428.95674896 606.30195618 C428.69272967 608.63974941 428.42871706 610.9775434 428.164711 613.31533813 C426.97812776 623.81345158 425.78695551 634.3109557 424.57472706 644.80614185 C421.93251385 667.71501697 419.46724306 690.61875527 417.57003021 713.60273743 C417.48848568 714.58963814 417.40694115 715.57653885 417.32292557 716.59334564 C415.91816746 733.7523642 414.8062441 750.90666721 414.31221771 768.11836243 C414.29170349 768.83291595 414.27118927 769.54746948 414.25005341 770.28367615 C411.86959432 855.74040258 419.18244447 942.15453673 473.87471771 1032.36836243 C474.81889992 1033.72240932 475.7629039 1035.07658051 476.70674896 1036.43086243 C481.91905151 1043.87934699 487.23025006 1051.25528022 492.56221771 1058.61836243 C526.46290955 1105.49943104 526.46290955 1105.49943104 522.60665131 1136.52510071 C518.20278628 1160.48785707 499.1282434 1179.14243956 482.68721771 1195.68086243 C482.03422699 1196.33860657 481.38123627 1196.99635071 480.70845795 1197.67402649 C476.26031289 1202.10705132 471.64334806 1206.28381389 466.87471771 1210.36836243 C466.29762054 1210.86714905 465.72052338 1211.36593567 465.12593842 1211.87983704 C454.91461843 1220.70242943 444.65273654 1229.4560444 433.99971771 1237.74336243 C427.3647406 1242.9114104 420.97941418 1248.33587052 414.62911224 1253.84785461 C410.53078738 1257.3998122 406.40717515 1260.92241844 402.28487396 1264.44648743 C400.11648193 1266.3003985 397.95810725 1268.16480977 395.80831146 1270.04023743 C381.72432074 1282.24982964 366.64797173 1293.43622546 350.87471771 1303.36836243 C349.78674896 1304.06316711 348.69878021 1304.7579718 347.57784271 1305.47383118 C340.67163348 1309.66457082 333.65038331 1312.84032203 326.12471771 1315.74336243 C325.26152924 1316.07739075 324.39834076 1316.41141907 323.50899506 1316.75556946 C313.83636992 1320.34561925 304.79974591 1321.71547274 294.49971771 1321.68086243 C293.54838959 1321.69697571 292.59706146 1321.71308899 291.61690521 1321.72969055 C279.70866397 1321.73773666 269.8978927 1318.42055654 259.49971771 1312.80586243 C258.00263275 1312.00958435 258.00263275 1312.00958435 256.47530365 1311.19721985 C248.4365466 1306.84126557 241.04937721 1302.01969972 233.87471771 1296.36836243 C232.96335052 1295.66582336 232.05198334 1294.9632843 231.11299896 1294.23945618 C214.48006437 1281.05451678 200.06917281 1265.89035749 187.18917084 1249.07685852 C185.95556383 1247.47344436 184.70477543 1245.88329053 183.45284271 1244.29414368 C170.41259483 1227.65291232 158.9260391 1209.98653789 147.64424896 1192.12471008 C145.47213311 1188.74126804 143.21445985 1185.42108342 140.92354584 1182.11714172 C139.87471771 1180.36836243 139.87471771 1180.36836243 139.87471771 1178.36836243 C135.78058405 1181.8527315 131.80668644 1185.38260585 128.06221771 1189.24336243 C124.20169356 1193.15656429 120.05556004 1196.59633971 115.76924896 1200.03242493 C112.9042467 1202.34453202 110.11063107 1204.72635765 107.31221771 1207.11836243 C87.8627736 1223.29290014 66.1959932 1236.55421558 43.87471771 1248.36836243 C43.05487396 1248.80358215 42.23503021 1249.23880188 41.39034271 1249.68721008 C-13.86934166 1278.77180532 -74.10010811 1292.25650252 -135.70566559 1299.09693909 C-137.95574848 1299.34934477 -140.20438731 1299.61182561 -142.45291901 1299.87763977 C-163.85136512 1302.3686567 -185.27756 1302.6782798 -206.79751968 1302.73627853 C-208.95421989 1302.74321429 -211.11085088 1302.75486196 -213.26752472 1302.7674408 C-259.83138752 1303.00167951 -306.00910542 1296.68033165 -350.12528229 1281.36836243 C-350.96413971 1281.07767883 -351.80299713 1280.78699524 -352.66727448 1280.48750305 C-396.98662517 1264.88185527 -437.76010494 1240.64720621 -467.12528229 1203.36836243 C-467.9963639 1202.29828085 -468.86881294 1201.22931126 -469.74246979 1200.16133118 C-515.02739554 1144.34953998 -535.36406207 1070.68382872 -543.87528229 1000.41920471 C-544.11659929 998.43959227 -544.36878625 996.4613142 -544.62137604 994.48310852 C-547.23995026 973.13685937 -547.46277032 951.71477887 -547.55148697 930.2362442 C-547.56256545 928.0364198 -547.58035139 925.83674287 -547.59980011 923.63697815 C-547.76033428 903.51288213 -546.365567 884.2721852 -543.12528229 864.36836243 C-542.97807739 863.43860596 -542.8308725 862.50884949 -542.67920685 861.55091858 C-541.82474332 856.18249665 -540.88301138 850.83499253 -539.87528229 845.49336243 C-539.65551727 844.31708786 -539.65551727 844.31708786 -539.43131256 843.11705017 C-532.89566711 808.33336552 -524.07905418 773.13761505 -508.12528229 741.36836243 C-507.65445221 740.42251282 -507.18362213 739.47666321 -506.69852448 738.50215149 C-501.12424885 727.37152395 -495.50299995 716.42614895 -488.12528229 706.36836243 C-487.43176666 705.40414368 -486.73825104 704.43992493 -486.02371979 703.44648743 C-473.73692083 686.68781464 -459.62847556 671.4612869 -443.88285065 657.8874054 C-441.71162277 656.01084201 -439.60830888 654.06541244 -437.50028229 652.11836243 C-431.8639706 647.03361641 -425.91413604 642.40314868 -419.91336823 637.7624054 C-418.20288989 636.42886754 -416.50920227 635.07709889 -414.82059479 633.71601868 C-393.3851215 616.49080129 -370.0955321 601.78448131 -346.12528229 588.36836243 C-345.17330963 587.83485168 -344.22133698 587.30134094 -343.24051666 586.75166321 C-265.1606964 543.25542893 -177.91402746 518.14568634 -85.12528229 500.36836243 C-84.24751129 500.2005426 -83.3697403 500.03272278 -82.46537018 499.8598175 C-37.83363978 491.34187172 7.17544006 484.96807655 52.24971771 479.30586243 C53.45520264 479.15366241 54.66068756 479.0014624 55.90270233 478.84465027 C59.29634156 478.4184408 62.69075045 477.99920247 66.08565521 477.58320618 C67.08069565 477.4586908 68.07573608 477.33417542 69.10092926 477.20588684 C74.06787178 476.6081049 78.87201612 476.23393697 83.87471771 476.36836243 C84.94920181 438.69665396 84.94920181 438.69665396 80.87471771 401.36836243 C80.67604095 400.34146301 80.4773642 399.3145636 80.27266693 398.25654602 C74.6182226 370.05209296 63.57263794 342.08275233 38.94503021 325.24336243 C19.60440311 313.43229244 -0.17678711 308.93088502 -22.81278229 308.99336243 C-23.8836911 308.99367966 -23.8836911 308.99367966 -24.97623444 308.9940033 C-38.95955972 309.03495263 -52.41158409 310.58013788 -66.12528229 313.36836243 C-67.07886627 313.55559875 -68.03245026 313.74283508 -69.01493073 313.93574524 C-90.09763664 318.16104352 -108.6937555 326.23513601 -125.12528229 340.36836243 C-125.94770416 341.06832336 -126.77012604 341.7682843 -127.61746979 342.48945618 C-149.96421502 362.01675225 -164.67109183 387.92419096 -179.18778229 413.43086243 C-179.52694672 414.02643951 -179.86611115 414.6220166 -180.21555328 415.23564148 C-180.89465315 416.42815024 -181.57368 417.62070059 -182.25263214 418.81329346 C-183.87637431 421.66525339 -185.50094214 424.51674305 -187.12528229 427.36836243 C-187.69730377 428.3754425 -188.26932526 429.38252258 -188.85868073 430.42012024 C-199.97449797 449.8943942 -199.97449797 449.8943942 -208.12528229 456.36836243 C-208.85618073 456.96133118 -209.58707916 457.55429993 -210.34012604 458.16523743 C-221.91348074 466.86932449 -235.00249338 472.45802632 -249.12528229 475.36836243 C-250.14879791 475.5926593 -251.17231354 475.81695618 -252.22684479 476.04804993 C-283.94614189 481.79372906 -316.70442487 474.4431902 -347.69834137 467.88197327 C-350.15520043 467.36203088 -352.61260226 466.84471866 -355.07010651 466.32783508 C-364.66028809 464.30779204 -374.24289038 462.2543254 -383.81957245 460.17123413 C-388.53085486 459.14652948 -393.24323562 458.12753628 -397.9582901 457.12031555 C-487.76730803 437.92671572 -487.76730803 437.92671572 -508.31278229 406.86836243 C-523.03878955 381.03614858 -520.15401605 348.94769001 -512.80496979 321.30586243 C-498.71054619 270.7971549 -471.06086359 223.61152153 -439.12528229 182.36836243 C-438.70037506 181.81342102 -438.27546783 181.25847961 -437.83768463 180.6867218 C-432.29803478 173.45467802 -426.60280864 166.50943347 -420.40262604 159.82929993 C-418.36626075 157.62876797 -416.39266375 155.3910754 -414.43778229 153.11836243 C-408.80443503 146.65580752 -402.63592587 140.93180536 -396.12528229 135.36836243 C-395.18942291 134.55496399 -394.25356354 133.74156555 -393.28934479 132.90351868 C-364.8060274 108.29202577 -332.27323764 88.97689412 -299.12528229 71.36836243 C-298.26950592 70.90961731 -297.41372955 70.45087219 -296.53202057 69.97822571 C-256.32003063 48.44339754 -214.58308541 27.64929626 -170.81278229 14.49336243 C-169.95644196 14.23119934 -169.10010162 13.96903625 -168.21781158 13.69892883 C-150.82327567 8.6960116 -132.86362142 6.66062027 -114.87528229 5.30586243 C-112.7683449 5.14217433 -110.66141141 4.97843599 -108.55448151 4.81465149 C-104.20014869 4.47994864 -99.84517974 4.15579735 -95.4895401 3.83857727 C-91.44567475 3.54335723 -87.40368325 3.23299292 -83.36258698 2.90205383 C-55.58131826 0.63702376 -27.86003728 0.05579181 0 0 Z M50.93721771 723.11836243 C50.16180634 723.1609317 49.38639496 723.20350098 48.58748627 723.24736023 C5.29981324 725.69632495 -37.57149019 733.66215695 -76.93778229 752.30586243 C-77.97612213 752.79594788 -79.01446198 753.28603333 -80.08426666 753.79096985 C-90.10938731 758.63799093 -99.27843208 764.4990149 -108.12528229 771.24336243 C-108.80824371 771.76092102 -109.49120514 772.27847961 -110.19486237 772.8117218 C-118.37326105 779.03958346 -126.2810522 785.50149472 -133.87528229 792.43086243 C-134.39437164 792.90137024 -134.913461 793.37187805 -135.44828033 793.85664368 C-172.56284778 828.20516439 -194.39421017 881.22761769 -197.34793854 931.13008118 C-198.10893018 962.26456524 -184.55450157 992.32363757 -164.12528229 1015.36836243 C-163.46270416 1016.12633118 -162.80012604 1016.88429993 -162.11746979 1017.66523743 C-141.63377989 1039.62873762 -108.67003595 1053.25546951 -80.12528229 1060.36836243 C-79.21907135 1060.61199524 -78.31286041 1060.85562805 -77.37918854 1061.10664368 C-57.67037692 1065.62644915 -39.10804691 1061.82051725 -21.99393463 1051.55293274 C5.89797288 1033.87178102 24.69315125 1004.97308736 39.87471771 976.36836243 C40.21712494 975.72882629 40.55953217 975.08929016 40.91231537 974.43037415 C78.13814356 904.40287139 91.39049594 819.78271832 95.93721771 731.55586243 C95.93045013 730.3560675 95.93045013 730.3560675 95.92354584 729.1320343 C95.9120413 727.21077585 95.89412372 725.28955732 95.87471771 723.36836243 C93.83363815 723.19465353 91.79179396 723.02993329 89.74971771 722.86836243 C88.61276459 722.77554993 87.47581146 722.68273743 86.30440521 722.58711243 C74.5251637 721.87811751 62.70583327 722.47058504 50.93721771 723.11836243 Z " fill="#000000" transform="translate(1121.1252822875977,172.6316375732422)"/>
<path d="M0 0 C21.45548867 8.9027684 42.17603874 20.01749562 62.49853516 31.22265625 C67.8466679 34.16997394 73.22179989 37.06274263 78.61962891 39.91796875 C79.40265381 40.33780029 80.18567871 40.75763184 80.99243164 41.19018555 C86.65231032 44.16971364 92.45164814 46.76627984 98.31993103 49.30175781 C103.38068984 51.49310705 108.39779021 53.76551205 113.39697266 56.09375 C114.13719666 56.43832748 114.87742065 56.78290497 115.64007568 57.13792419 C117.18341023 57.85676699 118.72664134 58.57583189 120.26977539 59.29510498 C208.50320434 100.36459168 298.9412328 136.71780655 645.68212891 237.54296875 C646.69048798 237.74070892 647.69884705 237.9384491 648.73776245 238.1421814 C655.73224135 239.50657381 662.73570334 240.81755376 669.74462891 242.10546875 C670.85639496 242.31222229 671.96816101 242.51897583 673.11361694 242.73199463 C691.21474638 246.07670495 709.30993149 248.53275913 727.62005615 250.39500427 C729.72883185 250.61023546 731.83722585 250.82891774 733.94555664 251.04846191 C796.79615473 257.58236856 859.83019799 261.83309832 922.98022461 264.00976562 C925.56259217 264.09916667 928.14482124 264.19186948 930.72705078 264.28515625 C1017.52268698 267.35298495 1104.7944767 264.95316368 1526.15380859 211.64202881 C1527.78574245 211.30405457 1529.41787657 210.9670445 1531.05029297 210.63140869 C1606.98975977 195.01615979 1682.43657591 169.45826804 1753.80712891 139.41796875 C1776.90191903 129.70651782 1800.44671258 122.35173492 1825.09228516 131.32421875 C1836.02050819 136.29787272 1842.2851899 144.63996976 1847.74462891 155.10546875 C1849.86933002 161.47957209 1849.60151762 168.08371914 1846.86962891 174.23046875 C1840.7531788 184.93425643 1829.42629411 191.24405504 1819.45166016 197.9296875 C1815.63029341 200.49221531 1811.89631207 203.14036848 1808.18212891 205.85546875 C1797.34107181 213.70679772 1785.98845406 220.84927926 1774.74462891 228.10546875 C1773.88675781 228.66024902 1773.02888672 229.2150293 1772.14501953 229.78662109 C1743.51854685 248.25128988 1713.79307706 265.08295736 1683.74462891 281.10546875 C1682.85710937 281.57887695 1681.96958984 282.05228516 1681.05517578 282.54003906 C1674.31559401 286.12186174 1667.53846891 289.62779339 1660.74462891 293.10546875 C1660.08291687 293.4446936 1659.42120483 293.78391846 1658.73944092 294.13342285 C1637.03067046 305.25459926 1615.14310436 315.76394094 1592.7693634 325.48052979 C1588.61374228 327.28532446 1584.47189884 329.1166316 1580.34228516 330.98046875 C1549.74426475 344.755522 1518.30914879 356.74346075 1486.74462891 368.10546875 C1485.94190552 368.39488342 1485.13918213 368.6842981 1484.31213379 368.98248291 C1386.63821408 404.15397823 1285.60781465 430.51609649 1068.74462891 457.10546875 C1067.96989227 457.1467691 1067.19515564 457.18806946 1066.39694214 457.23062134 C1047.49511803 458.22491336 1028.60412017 458.31041967 1009.68212891 458.29296875 C1008.48380873 458.29212658 1008.48380873 458.29212658 1007.26128006 458.2912674 C982.69424545 458.26972049 958.24620544 458.03212016 933.74462891 456.10546875 C932.54825806 456.01309937 931.35188721 455.92072998 930.1192627 455.82556152 C823.23737001 447.56293711 716.4989927 435.09313175 581.74462891 405.10546875 C580.74878784 404.86870422 579.75294678 404.6319397 578.72692871 404.38800049 C548.47394159 397.17438841 518.52047528 389.08536343 488.74462891 380.10546875 C487.51057312 379.73418854 487.51057312 379.73418854 486.25158691 379.35540771 C447.57299897 367.69901985 409.41998222 354.52048062 372.56750488 337.92407227 C370.87236933 337.16283347 369.17339228 336.41016487 367.47412109 335.65820312 C337.06215314 322.2002013 306.89436879 307.32041913 278.19287109 290.51318359 C273.80417048 287.98972451 269.3296406 285.62476175 264.86962891 283.23046875 C253.67444436 277.17939684 242.79763135 270.6330805 231.92236328 264.02880859 C228.77128735 262.12160391 225.61147657 260.22989106 222.44775391 258.34375 C201.57039774 245.89469596 181.00579912 232.96655855 160.52539062 219.87695312 C157.76148165 218.11620479 154.99025762 216.36752612 152.21728516 214.62109375 C138.73332809 206.09943412 125.46630325 197.277311 112.24462891 188.35546875 C111.40281067 187.78800934 110.56099243 187.22054993 109.69366455 186.63589478 C94.98939069 176.71613422 80.39290445 166.63918524 66.11962891 156.10546875 C65.33458984 155.52643799 64.54955078 154.94740723 63.74072266 154.35083008 C56.81806916 149.21423802 50.06206825 143.88870885 43.38330078 138.43994141 C41.84811651 137.18974516 40.30447583 135.94995326 38.76025391 134.7109375 C33.17822043 130.20904327 27.81299943 125.52632737 22.54541016 120.66015625 C20.42209017 118.72340413 18.27623372 116.84324281 16.09619141 114.97265625 C11.28270235 110.77169005 6.75213515 106.29905169 2.23608398 101.78222656 C0.81794607 100.36626928 -0.60833774 98.95848586 -2.03466797 97.55078125 C-8.21645829 91.38187861 -13.83231833 84.9461082 -19.25537109 78.10546875 C-20.10702991 77.07107009 -20.96160095 76.03904534 -21.82177734 75.01171875 C-26.17393753 69.76527907 -30.26290388 64.40365478 -34.21630859 58.8515625 C-36.32503102 56.01165471 -38.57755997 53.3520145 -40.88037109 50.66796875 C-46.955446 43.27908007 -52.18434483 34.96982498 -52.62646484 25.171875 C-51.47957634 15.69495421 -47.10018687 5.03136931 -40.38818359 -1.79296875 C-28.23449167 -10.73089783 -12.72888664 -5.04856469 0 0 Z " fill="#000000" transform="translate(61.25537109375,1476.89453125)"/>
<path d="M0 0 C0.71603394 0.06316406 1.43206787 0.12632813 2.1697998 0.19140625 C28.71030689 2.57326534 53.77482388 6.77124171 78.56738281 16.99755859 C80.98291574 17.99295986 83.4076091 18.96207244 85.8359375 19.92578125 C87.34945424 20.53261879 88.86250029 21.14063201 90.375 21.75 C91.04660156 22.0193335 91.71820312 22.28866699 92.41015625 22.56616211 C102.04357086 26.53408352 108.31774824 30.83272594 112.625 40.5625 C120.82238408 61.39107338 119.53801338 83.43748744 117.8125 105.3125 C117.74720093 106.150159 117.68190186 106.98781799 117.61462402 107.8508606 C110.62654597 195.97517522 81.36672085 280.0961613 7.265625 369.48828125 C5.38721422 371.57072631 3.53944007 373.67307909 1.69921875 375.7890625 C-1.93742016 379.95237698 -5.66432218 384.02288803 -9.4375 388.0625 C-10.05431641 388.73087891 -10.67113281 389.39925781 -11.30664062 390.08789062 C-15.07306382 394.12082451 -18.98543654 397.84133665 -23.17651367 401.43041992 C-25.4957527 403.426723 -27.70828901 405.5291606 -29.9375 407.625 C-38.69096475 415.52874475 -46.02919363 418.41365086 -57.7421875 418.26953125 C-65.46263143 417.63078949 -69.65775967 413.825923 -74.5546875 408.09765625 C-79.10783532 401.48943901 -79.03608796 393.71492657 -78 386 C-75.85156545 377.97808849 -72.26886417 370.55676726 -68.81640625 363.02832031 C-53.09437413 328.68737644 -44.94423564 292.0605029 -35.90307617 255.54980469 C-32.66466774 242.49718891 -29.2992433 229.48868439 -25.76416016 216.51333618 C-19.04878448 191.86079253 -13.51923764 167.33914281 -10 142 C-10.52352051 141.82766846 -11.04704102 141.65533691 -11.58642578 141.4777832 C-15.79989811 140.08296269 -19.99719903 138.65325842 -24.1796875 137.16796875 C-58.13248377 125.26116097 -92.71421487 120.76379875 -128.5625 120.8125 C-129.4617218 120.81343658 -130.3609436 120.81437317 -131.28741455 120.81533813 C-166.5393418 120.8942981 -201.45903236 124.74019126 -236.296875 129.953125 C-237.40568527 130.11770706 -238.51449554 130.28228912 -239.65690613 130.45185852 C-245.06942651 131.25714155 -250.4777694 132.08151525 -255.88208008 132.94018555 C-257.86010462 133.24062634 -259.83820956 133.54053848 -261.81640625 133.83984375 C-262.70007874 133.98742126 -263.58375122 134.13499878 -264.49420166 134.28704834 C-273.56811056 135.62518923 -281.45645777 134.23871384 -288.953125 128.85546875 C-293.33473164 124.88359251 -297.61982444 119.13644834 -298.34375 113.1640625 C-299.03201779 97.57479703 -289.90850464 87.91036455 -280 77 C-279.30390625 76.22011719 -278.6078125 75.44023438 -277.890625 74.63671875 C-230.65025264 24.558262 -152.26180911 3.7903559 -86 -1 C-84.66144883 -1.11186555 -83.3229068 -1.22384044 -81.984375 -1.3359375 C-54.82321433 -3.40229519 -27.09355365 -2.39149626 0 0 Z " fill="#000000" transform="translate(1972,1432)"/>
</svg>
