<?xml version="1.0" encoding="UTF-8"?>
<svg version="1.1" xmlns="http://www.w3.org/2000/svg" width="2100" height="2100">
<path d="M0 0 C2.63215647 -0.00650157 5.26425113 -0.01793841 7.89638519 -0.03044128 C26.25099279 -0.10606454 44.48583383 0.2357234 62.78487396 1.74726868 C63.52714548 1.80845005 64.269417 1.86963142 65.03418159 1.93266678 C132.78610097 7.65649875 199.25770734 26.2518234 254.87471771 66.36836243 C255.63913177 66.91637512 256.40354584 67.46438782 257.19112396 68.02900696 C266.87603087 74.9914912 276.30125508 82.13325536 285.28145599 89.98554993 C286.99569759 91.47336243 288.72795091 92.93798453 290.46456146 94.39961243 C296.51836256 99.50743156 302.34991499 104.68106551 307.87471771 110.36836243 C309.76012827 112.25377298 311.70783133 113.96831256 313.74971771 115.68086243 C318.74453904 119.97344155 323.05271222 124.89178193 327.44258881 129.78340149 C328.85118415 131.34231744 330.27528482 132.88512961 331.70674896 134.42304993 C337.69748259 140.86303634 343.44005615 147.44927706 348.87471771 154.36836243 C349.43787689 155.08073059 350.00103607 155.79309875 350.58126068 156.52705383 C365.6963633 175.72562467 379.10272286 195.95514598 390.87471771 217.36836243 C391.36037201 218.24927551 391.84602631 219.1301886 392.3463974 220.03779602 C429.1783792 287.3738501 441.10959411 363.52662634 441.12471771 439.43086243 C441.12515957 440.45162998 441.12515957 440.45162998 441.12561035 441.4930191 C441.12744598 467.87713678 440.16311257 494.07521546 437.87471771 520.36836243 C437.74320313 521.88523651 437.74320313 521.88523651 437.60903168 523.43275452 C435.18283484 551.10337972 432.07818489 578.70305472 428.95674896 606.30195618 C428.69272967 608.63974941 428.42871706 610.9775434 428.164711 613.31533813 C426.97812776 623.81345158 425.78695551 634.3109557 424.57472706 644.80614185 C421.93251385 667.71501697 419.46724306 690.61875527 417.57003021 713.60273743 C417.48848568 714.58963814 417.40694115 715.57653885 417.32292557 716.59334564 C415.91816746 733.7523642 414.8062441 750.90666721 414.31221771 768.11836243 C414.29170349 768.83291595 414.27118927 769.54746948 414.25005341 770.28367615 C411.86959432 855.74040258 419.18244447 942.15453673 473.87471771 1032.36836243 C474.81889992 1033.72240932 475.7629039 1035.07658051 476.70674896 1036.43086243 C481.91905151 1043.87934699 487.23025006 1051.25528022 492.56221771 1058.61836243 C526.46290955 1105.49943104 526.46290955 1105.49943104 522.60665131 1136.52510071 C518.20278628 1160.48785707 499.1282434 1179.14243956 482.68721771 1195.68086243 C482.03422699 1196.33860657 481.38123627 1196.99635071 480.70845795 1197.67402649 C476.26031289 1202.10705132 471.64334806 1206.28381389 466.87471771 1210.36836243 C466.29762054 1210.86714905 465.72052338 1211.36593567 465.12593842 1211.87983704 C454.91461843 1220.70242943 444.65273654 1229.4560444 433.99971771 1237.74336243 C427.3647406 1242.9114104 420.97941418 1248.33587052 414.62911224 1253.84785461 C410.53078738 1257.3998122 406.40717515 1260.92241844 402.28487396 1264.44648743 C400.11648193 1266.3003985 397.95810725 1268.16480977 395.80831146 1270.04023743 C381.72432074 1282.24982964 366.64797173 1293.43622546 350.87471771 1303.36836243 C349.78674896 1304.06316711 348.69878021 1304.7579718 347.57784271 1305.47383118 C340.67163348 1309.66457082 333.65038331 1312.84032203 326.12471771 1315.74336243 C325.26152924 1316.07739075 324.39834076 1316.41141907 323.50899506 1316.75556946 C313.83636992 1320.34561925 304.79974591 1321.71547274 294.49971771 1321.68086243 C293.54838959 1321.69697571 292.59706146 1321.71308899 291.61690521 1321.72969055 C279.70866397 1321.73773666 269.8978927 1318.42055654 259.49971771 1312.80586243 C258.00263275 1312.00958435 258.00263275 1312.00958435 256.47530365 1311.19721985 C248.4365466 1306.84126557 241.04937721 1302.01969972 233.87471771 1296.36836243 C232.96335052 1295.66582336 232.05198334 1294.9632843 231.11299896 1294.23945618 C196.29038338 1266.63554339 171.14030097 1229.32469606 147.64424896 1192.12471008 C145.47213311 1188.74126804 143.21445985 1185.42108342 140.92354584 1182.11714172 C139.87471771 1180.36836243 139.87471771 1180.36836243 139.87471771 1178.36836243 C135.78058405 1181.8527315 131.80668644 1185.38260585 128.06221771 1189.24336243 C124.20169356 1193.15656429 120.05556004 1196.59633971 115.76924896 1200.03242493 C112.9042467 1202.34453202 110.11063107 1204.72635765 107.31221771 1207.11836243 C87.8627736 1223.29290014 66.1959932 1236.55421558 43.87471771 1248.36836243 C43.05487396 1248.80358215 42.23503021 1249.23880188 41.39034271 1249.68721008 C-13.86934166 1278.77180532 -74.10010811 1292.25650252 -135.70566559 1299.09693909 C-137.95574848 1299.34934477 -140.20438731 1299.61182561 -142.45291901 1299.87763977 C-163.85136512 1302.3686567 -185.27756 1302.6782798 -206.79751968 1302.73627853 C-208.95421989 1302.74321429 -211.11085088 1302.75486196 -213.26752472 1302.7674408 C-259.83138752 1303.00167951 -306.00910542 1296.68033165 -350.12528229 1281.36836243 C-350.96413971 1281.07767883 -351.80299713 1280.78699524 -352.66727448 1280.48750305 C-396.98662517 1264.88185527 -437.76010494 1240.64720621 -467.12528229 1203.36836243 C-467.9963639 1202.29828085 -468.86881294 1201.22931126 -469.74246979 1200.16133118 C-515.02739554 1144.34953998 -535.36406207 1070.68382872 -543.87528229 1000.41920471 C-544.11659929 998.43959227 -544.36878625 996.4613142 -544.62137604 994.48310852 C-547.23995026 973.13685937 -547.46277032 951.71477887 -547.55148697 930.2362442 C-547.56256545 928.0364198 -547.58035139 925.83674287 -547.59980011 923.63697815 C-547.76033428 903.51288213 -546.365567 884.2721852 -543.12528229 864.36836243 C-542.97807739 863.43860596 -542.8308725 862.50884949 -542.67920685 861.55091858 C-541.82474332 856.18249665 -540.88301138 850.83499253 -539.87528229 845.49336243 C-539.65551727 844.31708786 -539.65551727 844.31708786 -539.43131256 843.11705017 C-532.89566711 808.33336552 -524.07905418 773.13761505 -508.12528229 741.36836243 C-507.65445221 740.42251282 -507.18362213 739.47666321 -506.69852448 738.50215149 C-501.12424885 727.37152395 -495.50299995 716.42614895 -488.12528229 706.36836243 C-487.43176666 705.40414368 -486.73825104 704.43992493 -486.02371979 703.44648743 C-473.73692083 686.68781464 -459.62847556 671.4612869 -443.88285065 657.8874054 C-441.71162277 656.01084201 -439.60830888 654.06541244 -437.50028229 652.11836243 C-431.8639706 647.03361641 -425.91413604 642.40314868 -419.91336823 637.7624054 C-418.20288989 636.42886754 -416.50920227 635.07709889 -414.82059479 633.71601868 C-393.3851215 616.49080129 -370.0955321 601.78448131 -346.12528229 588.36836243 C-345.17330963 587.83485168 -344.22133698 587.30134094 -343.24051666 586.75166321 C-265.1606964 543.25542893 -177.91402746 518.14568634 -85.12528229 500.36836243 C-84.24751129 500.2005426 -83.3697403 500.03272278 -82.46537018 499.8598175 C-37.83363978 491.34187172 7.17544006 484.96807655 52.24971771 479.30586243 C53.45520264 479.15366241 54.66068756 479.0014624 55.90270233 478.84465027 C59.29634156 478.4184408 62.69075045 477.99920247 66.08565521 477.58320618 C67.08069565 477.4586908 68.07573608 477.33417542 69.10092926 477.20588684 C74.06787178 476.6081049 78.87201612 476.23393697 83.87471771 476.36836243 C84.94920181 438.69665396 84.94920181 438.69665396 80.87471771 401.36836243 C80.67604095 400.34146301 80.4773642 399.3145636 80.27266693 398.25654602 C74.6182226 370.05209296 63.57263794 342.08275233 38.94503021 325.24336243 C19.60440311 313.43229244 -0.17678711 308.93088502 -22.81278229 308.99336243 C-23.8836911 308.99367966 -23.8836911 308.99367966 -24.97623444 308.9940033 C-38.95955972 309.03495263 -52.41158409 310.58013788 -66.12528229 313.36836243 C-67.07886627 313.55559875 -68.03245026 313.74283508 -69.01493073 313.93574524 C-90.09763664 318.16104352 -108.6937555 326.23513601 -125.12528229 340.36836243 C-125.94770416 341.06832336 -126.77012604 341.7682843 -127.61746979 342.48945618 C-149.96421502 362.01675225 -164.67109183 387.92419096 -179.18778229 413.43086243 C-179.52694672 414.02643951 -179.86611115 414.6220166 -180.21555328 415.23564148 C-180.89465315 416.42815024 -181.57368 417.62070059 -182.25263214 418.81329346 C-183.87637431 421.66525339 -185.50094214 424.51674305 -187.12528229 427.36836243 C-187.69730377 428.3754425 -188.26932526 429.38252258 -188.85868073 430.42012024 C-199.97449797 449.8943942 -199.97449797 449.8943942 -208.12528229 456.36836243 C-208.85618073 456.96133118 -209.58707916 457.55429993 -210.34012604 458.16523743 C-221.91348074 466.86932449 -235.00249338 472.45802632 -249.12528229 475.36836243 C-250.14879791 475.5926593 -251.17231354 475.81695618 -252.22684479 476.04804993 C-283.94614189 481.79372906 -316.70442487 474.4431902 -347.69834137 467.88197327 C-350.15520043 467.36203088 -352.61260226 466.84471866 -355.07010651 466.32783508 C-364.66028809 464.30779204 -374.24289038 462.2543254 -383.81957245 460.17123413 C-388.53085486 459.14652948 -393.24323562 458.12753628 -397.9582901 457.12031555 C-487.76730803 437.92671572 -487.76730803 437.92671572 -508.31278229 406.86836243 C-523.03878955 381.03614858 -520.15401605 348.94769001 -512.80496979 321.30586243 C-498.71054619 270.7971549 -471.06086359 223.61152153 -439.12528229 182.36836243 C-438.70037506 181.81342102 -438.27546783 181.25847961 -437.83768463 180.6867218 C-432.29803478 173.45467802 -426.60280864 166.50943347 -420.40262604 159.82929993 C-418.36626075 157.62876797 -416.39266375 155.3910754 -414.43778229 153.11836243 C-408.80443503 146.65580752 -402.63592587 140.93180536 -396.12528229 135.36836243 C-395.18942291 134.55496399 -394.25356354 133.74156555 -393.28934479 132.90351868 C-364.8060274 108.29202577 -332.27323764 88.97689412 -299.12528229 71.36836243 C-298.26950592 70.90961731 -297.41372955 70.45087219 -296.53202057 69.97822571 C-256.32003063 48.44339754 -214.58308541 27.64929626 -170.81278229 14.49336243 C-169.95644196 14.23119934 -169.10010162 13.96903625 -168.21781158 13.69892883 C-150.82327567 8.6960116 -132.86362142 6.66062027 -114.87528229 5.30586243 C-112.7683449 5.14217433 -110.66141141 4.97843599 -108.55448151 4.81465149 C-104.20014869 4.47994864 -99.84517974 4.15579735 -95.4895401 3.83857727 C-91.44567475 3.54335723 -87.40368325 3.23299292 -83.36258698 2.90205383 C-55.58131826 0.63702376 -27.86003728 0.05579181 0 0 Z M-122.12528229 55.36836243 C-122.84030914 55.45346069 -123.555336 55.53855896 -124.29203033 55.62623596 C-182.46634774 62.68051169 -237.18392976 93.58418218 -287.78934479 121.44258118 C-291.24956718 123.34714682 -294.7222215 125.22410226 -298.21121979 127.07539368 C-317.03099363 137.119841 -334.48498214 149.03713934 -351.12528229 162.36836243 C-351.68102936 162.80696594 -352.23677643 163.24556946 -352.80936432 163.69746399 C-361.7666637 170.81631797 -369.8350586 178.87362647 -377.93778229 186.93086243 C-378.47403229 187.46175476 -379.01028229 187.99264709 -379.56278229 188.53962708 C-386.5525885 195.47643154 -393.04899802 202.5997545 -399.12528229 210.36836243 C-399.93050323 211.38458679 -399.93050323 211.38458679 -400.75199127 212.42134094 C-408.99477786 222.9180685 -416.20240227 233.96931291 -423.12528229 245.36836243 C-423.65266998 246.23235657 -424.18005768 247.09635071 -424.72342682 247.98652649 C-447.80411877 285.93404226 -470.88983043 328.53912597 -469.12528229 374.36836243 C-467.3840998 381.49138168 -462.11449938 385.64271709 -456.12528229 389.36836243 C-427.00543281 405.32827993 -390.70331347 409.23720667 -358.50540924 415.22309875 C-349.31652261 416.93839266 -340.19698191 418.76415561 -331.11286163 420.96981812 C-324.06781872 422.66198956 -316.96716442 423.91502976 -309.81278229 425.05586243 C-309.14817993 425.16197845 -308.48357758 425.26809448 -307.79883575 425.37742615 C-285.38457597 428.92018176 -259.90005855 432.17623006 -240.25418854 418.11836243 C-232.73812299 411.94001863 -228.76302176 405.25264446 -225.12528229 396.36836243 C-213.30023338 368.51366141 -197.7755942 341.71444592 -175.48856354 320.85664368 C-173.9001284 319.45894665 -173.9001284 319.45894665 -174.12528229 317.36836243 C-173.23619171 316.9734259 -173.23619171 316.9734259 -172.32913971 316.57051086 C-170.03109312 315.31698462 -168.64319928 314.03822189 -166.86356354 312.13398743 C-163.25942316 308.42927975 -159.42474382 305.24201636 -155.31278229 302.11836243 C-154.58067535 301.56189026 -153.84856842 301.00541809 -153.09427643 300.43208313 C-108.97256336 267.47092667 -54.54225993 254.06196427 -0.12528229 261.36836243 C37.85362012 267.08292209 73.91570221 280.98585638 97.82979584 312.30171204 C115.909175 337.11788047 124.54096339 366.73741828 129.12471771 396.74336243 C129.27577972 397.71982727 129.42684174 398.69629211 129.58248138 399.7023468 C132.73552378 422.02439316 133.22784727 444.44266712 133.19039154 466.94306946 C133.18449844 470.78227144 133.20183703 474.62100622 133.22473621 478.46013069 C133.23949201 481.46457166 133.24034477 484.46889882 133.23722649 487.4733696 C133.23773489 488.89022145 133.24288066 490.30708049 133.25303841 491.72389603 C133.30959125 500.67698136 132.94158 507.37051277 128.18721771 515.11836243 C120.5671848 522.53244851 110.23829167 523.51924509 100.09726715 523.98483276 C86.2312046 524.6332793 72.46488578 525.81252716 58.68331146 527.46601868 C57.34895144 527.62488871 57.34895144 527.62488871 55.98763466 527.78696823 C34.51791864 530.36634225 13.20864809 533.85080435 -8.10641098 537.4707222 C-11.2460656 538.00324803 -14.38626319 538.53246241 -17.52661896 539.06083679 C-106.59967835 554.05793827 -193.35190393 571.50522606 -295.12528229 617.36836243 C-296.63541901 618.09055969 -296.63541901 618.09055969 -298.17606354 618.8273468 C-313.61970822 626.25179473 -328.46012221 634.51148063 -343.12528229 643.36836243 C-343.8934024 643.8298468 -344.66152252 644.29133118 -345.45291901 644.76679993 C-365.58720892 656.91085416 -384.36808297 670.97800074 -402.12528229 686.36836243 C-402.93094635 687.06058899 -403.73661041 687.75281555 -404.56668854 688.46601868 C-416.68201679 699.10536785 -428.30738724 710.56158988 -438.12528229 723.36836243 C-438.90774323 724.33387024 -439.69020416 725.29937805 -440.49637604 726.29414368 C-447.59265111 735.116389 -453.46312297 744.57767767 -459.12528229 754.36836243 C-459.52634186 755.05382141 -459.92740143 755.7392804 -460.34061432 756.44551086 C-485.18008744 799.32826051 -494.77473033 854.32390577 -498.12528229 903.36836243 C-498.18167877 904.17032043 -498.23807526 904.97227844 -498.29618073 905.79853821 C-504.00163749 990.45198691 -487.26833473 1093.84322896 -428.58914948 1173.43330383 C-381.09189846 1227.08638342 -306.88648027 1249.64116655 -237.18534088 1254.18965149 C-153.29604699 1258.37066769 -54.55659617 1246.43919564 68.87471771 1173.36836243 C69.4776767 1172.90575012 70.08063568 1172.44313782 70.70186615 1171.96650696 C79.0686185 1165.53739038 87.14030577 1158.81411726 95.10713959 1151.8976593 C96.90332118 1150.3436149 98.70777574 1148.79976912 100.51534271 1147.25898743 C101.11378998 1146.74859924 101.71223724 1146.23821106 102.32881927 1145.71235657 C103.51802598 1144.6982329 104.70747582 1143.68439426 105.89717865 1142.67085266 C109.38295409 1139.68804171 112.76927771 1136.6233588 116.12471771 1133.49336243 C125.50961309 1124.98830099 134.59746205 1120.75069661 147.34346771 1121.00508118 C157.62845118 1122.06316023 164.4485073 1128.73156292 170.87471771 1136.36836243 C177.11831192 1144.64901837 182.12210508 1153.55178251 187.12471771 1162.61836243 C192.71764923 1172.72345378 199.05896333 1181.89427945 206.09542084 1191.0358429 C208.5370452 1194.23662215 210.90708182 1197.48764895 213.27974701 1200.73970032 C243.30506968 1242.81203028 243.30506968 1242.81203028 285.87471771 1270.36836243 C286.85956146 1270.76410461 287.84440521 1271.1598468 288.85909271 1271.56758118 C298.30588486 1274.72900765 305.33934441 1271.61838591 313.8620224 1267.38008118 C323.22903677 1262.58201339 331.65509515 1256.94170865 339.87471771 1250.36836243 C340.7242099 1249.69933899 341.57370209 1249.03031555 342.44893646 1248.34101868 C345.76289967 1245.7137794 349.04622293 1243.05190387 352.30831146 1240.36054993 C357.98504981 1235.6774568 363.74205004 1231.12149946 369.56221771 1226.61836243 C378.11044179 1220.00098918 386.51496676 1213.22149531 394.87471771 1206.36836243 C396.38678802 1205.13279602 396.38678802 1205.13279602 397.92940521 1203.87226868 C399.72623583 1202.40375414 401.52186994 1200.93377398 403.31612396 1199.46211243 C405.02809958 1198.06116749 406.74429087 1196.66535909 408.46456146 1195.27461243 C418.9938288 1186.73987591 429.42793555 1178.07160322 438.89424896 1168.35664368 C442.60872586 1164.62751401 446.61647628 1161.22177872 450.68331146 1157.88398743 C455.25203951 1154.09876063 459.11320779 1149.95324434 462.87471771 1145.36836243 C463.41354584 1144.71738586 463.95237396 1144.0664093 464.50753021 1143.39570618 C470.34748935 1136.0150543 473.32239137 1129.54808318 473.30831146 1120.04414368 C472.36446518 1114.2195067 468.98166319 1110.00204427 465.37471771 1105.49336243 C460.01056403 1098.67536344 455.12111561 1091.57861266 450.25704193 1084.39912415 C448.91262595 1082.42405313 447.55491713 1080.4589982 446.19112396 1078.49726868 C393.18836945 1002.2153648 364.94242459 918.80304086 364.67159271 825.33320618 C364.66452576 823.82194998 364.6573931 822.31069408 364.65019989 820.79943848 C364.63059463 815.96824167 364.62550487 811.13709525 364.62471771 806.30586243 C364.62427586 805.06456699 364.62427586 805.06456699 364.62382507 803.79819489 C364.62229722 777.19655435 365.15535281 750.7848451 367.60579681 724.27919006 C367.88568314 721.24967151 368.1573104 718.21947817 368.42842865 715.18916321 C370.77232466 689.25702058 373.6252288 663.38237599 376.57003021 637.51289368 C376.74907269 635.93910981 376.74907269 635.93910981 376.93173218 634.33353233 C378.13257114 623.78401366 379.339068 613.23520022 380.56615353 602.68869972 C382.97757351 581.94553165 385.25991054 561.2027261 387.13643646 540.40351868 C387.21802128 539.49941254 387.29960609 538.5953064 387.38366318 537.6638031 C395.24207263 450.00649386 398.13115256 354.50926278 308.42208099 183.61543274 C304.96437451 179.48168934 301.43930552 175.41013736 297.87471771 171.36836243 C297.03424896 170.41445618 296.19378021 169.46054993 295.32784271 168.47773743 C288.18081216 160.56948468 280.64970171 153.03931459 273.12471771 145.49336243 C272.58110596 144.94707184 272.0374942 144.40078125 271.47740936 143.8379364 C265.45934998 137.79741692 259.41174225 131.85337055 252.87471771 126.36836243 C252.27868744 125.86031067 251.68265717 125.35225891 251.06856537 124.82881165 C192.87469303 75.53462365 118.09344531 51.74198013 42.49971771 49.80586243 C41.70581635 49.78534821 40.91191498 49.76483398 40.09395599 49.74369812 C-14.07268253 48.39628577 -68.27011152 48.94125525 -122.12528229 55.36836243 Z " fill="#000000" transform="translate(1121.1252822875977,172.6316375732422)"/>
<path d="M0 0 C21.45548867 8.9027684 42.17603874 20.01749562 62.49853516 31.22265625 C67.8466679 34.16997394 73.22179989 37.06274263 78.61962891 39.91796875 C79.40265381 40.33780029 80.18567871 40.75763184 80.99243164 41.19018555 C86.65231032 44.16971364 92.45164814 46.76627984 98.31993103 49.30175781 C103.38068984 51.49310705 108.39779021 53.76551205 113.39697266 56.09375 C114.13719666 56.43832748 114.87742065 56.78290497 115.64007568 57.13792419 C117.18341023 57.85676699 118.72664134 58.57583189 120.26977539 59.29510498 C208.50320434 100.36459168 298.9412328 136.71780655 645.68212891 237.54296875 C646.69048798 237.74070892 647.69884705 237.9384491 648.73776245 238.1421814 C655.73224135 239.50657381 662.73570334 240.81755376 669.74462891 242.10546875 C670.85639496 242.31222229 671.96816101 242.51897583 673.11361694 242.73199463 C691.21474638 246.07670495 709.30993149 248.53275913 727.62005615 250.39500427 C729.72883185 250.61023546 731.83722585 250.82891774 733.94555664 251.04846191 C796.79615473 257.58236856 859.83019799 261.83309832 922.98022461 264.00976562 C925.56259217 264.09916667 928.14482124 264.19186948 930.72705078 264.28515625 C1017.52268698 267.35298495 1104.7944767 264.95316368 1526.15380859 211.64202881 C1527.78574245 211.30405457 1529.41787657 210.9670445 1531.05029297 210.63140869 C1606.98975977 195.01615979 1682.43657591 169.45826804 1753.80712891 139.41796875 C1776.90191903 129.70651782 1800.44671258 122.35173492 1825.09228516 131.32421875 C1836.02050819 136.29787272 1842.2851899 144.63996976 1847.74462891 155.10546875 C1849.86933002 161.47957209 1849.60151762 168.08371914 1846.86962891 174.23046875 C1840.7531788 184.93425643 1829.42629411 191.24405504 1819.45166016 197.9296875 C1815.63029341 200.49221531 1811.89631207 203.14036848 1808.18212891 205.85546875 C1782.84715521 224.1822461 1755.76051396 240.41930544 1728.74462891 256.10546875 C1727.88305176 256.60643066 1727.02147461 257.10739258 1726.13378906 257.62353516 C1712.15587169 265.73183471 1698.00314102 273.50250797 1683.74462891 281.10546875 C1682.85710937 281.57887695 1681.96958984 282.05228516 1681.05517578 282.54003906 C1674.31559401 286.12186174 1667.53846891 289.62779339 1660.74462891 293.10546875 C1660.08291687 293.4446936 1659.42120483 293.78391846 1658.73944092 294.13342285 C1637.03067046 305.25459926 1615.14310436 315.76394094 1592.7693634 325.48052979 C1588.61374228 327.28532446 1584.47189884 329.1166316 1580.34228516 330.98046875 C1549.74426475 344.755522 1518.30914879 356.74346075 1486.74462891 368.10546875 C1485.94190552 368.39488342 1485.13918213 368.6842981 1484.31213379 368.98248291 C1386.63821408 404.15397823 1285.60781465 430.51609649 1068.74462891 457.10546875 C1067.96989227 457.1467691 1067.19515564 457.18806946 1066.39694214 457.23062134 C1047.49511803 458.22491336 1028.60412017 458.31041967 1009.68212891 458.29296875 C1008.48380873 458.29212658 1008.48380873 458.29212658 1007.26128006 458.2912674 C982.69424545 458.26972049 958.24620544 458.03212016 933.74462891 456.10546875 C932.54825806 456.01309937 931.35188721 455.92072998 930.1192627 455.82556152 C823.23737001 447.56293711 716.4989927 435.09313175 581.74462891 405.10546875 C580.74878784 404.86870422 579.75294678 404.6319397 578.72692871 404.38800049 C548.47394159 397.17438841 518.52047528 389.08536343 488.74462891 380.10546875 C487.51057312 379.73418854 487.51057312 379.73418854 486.25158691 379.35540771 C447.57299897 367.69901985 409.41998222 354.52048062 372.56750488 337.92407227 C370.87236933 337.16283347 369.17339228 336.41016487 367.47412109 335.65820312 C337.06215314 322.2002013 306.89436879 307.32041913 278.19287109 290.51318359 C273.80417048 287.98972451 269.3296406 285.62476175 264.86962891 283.23046875 C253.67444436 277.17939684 242.79763135 270.6330805 231.92236328 264.02880859 C228.77128735 262.12160391 225.61147657 260.22989106 222.44775391 258.34375 C201.57039774 245.89469596 181.00579912 232.96655855 160.52539062 219.87695312 C157.76148165 218.11620479 154.99025762 216.36752612 152.21728516 214.62109375 C138.73332809 206.09943412 125.46630325 197.277311 112.24462891 188.35546875 C111.40281067 187.78800934 110.56099243 187.22054993 109.69366455 186.63589478 C94.98939069 176.71613422 80.39290445 166.63918524 66.11962891 156.10546875 C65.33458984 155.52643799 64.54955078 154.94740723 63.74072266 154.35083008 C56.81806916 149.21423802 50.06206825 143.88870885 43.38330078 138.43994141 C41.84811651 137.18974516 40.30447583 135.94995326 38.76025391 134.7109375 C33.17822043 130.20904327 27.81299943 125.52632737 22.54541016 120.66015625 C20.42209017 118.72340413 18.27623372 116.84324281 16.09619141 114.97265625 C11.28270235 110.77169005 6.75213515 106.29905169 2.23608398 101.78222656 C0.81794607 100.36626928 -0.60833774 98.95848586 -2.03466797 97.55078125 C-8.21645829 91.38187861 -13.83231833 84.9461082 -19.25537109 78.10546875 C-20.10702991 77.07107009 -20.96160095 76.03904534 -21.82177734 75.01171875 C-26.17393753 69.76527907 -30.26290388 64.40365478 -34.21630859 58.8515625 C-36.32503102 56.01165471 -38.57755997 53.3520145 -40.88037109 50.66796875 C-46.955446 43.27908007 -52.18434483 34.96982498 -52.62646484 25.171875 C-51.47957634 15.69495421 -47.10018687 5.03136931 -40.38818359 -1.79296875 C-28.23449167 -10.73089783 -12.72888664 -5.04856469 0 0 Z M57.74462891 85.10546875 C71.82072013 99.65076301 88.46028342 111.20854684 104.74462891 123.10546875 C105.48342285 123.64574707 106.2222168 124.18602539 106.98339844 124.74267578 C180.67014074 178.54543095 258.53207481 226.30290834 390.57440186 290.17694092 C392.75014206 291.10782754 394.92359393 292.04389259 397.09667969 292.98095703 C481.03713959 329.10972737 569.01393933 355.04925513 658.74462891 372.10546875 C659.65196777 372.27800171 660.55930664 372.45053467 661.49414062 372.6282959 C690.21951393 378.06793814 719.05213946 382.57028436 748.00805664 386.58599854 C751.33206388 387.04811264 754.65562076 387.51327008 757.97900391 387.97984123 C830.74128845 398.19330489 903.65598948 406.79899451 977.18212891 408.66796875 C978.39894852 408.69923859 978.39894852 408.69923859 979.64035034 408.73114014 C995.34449327 409.12709905 1011.03522859 409.30920436 1026.74462891 409.10546875 C1027.41699585 409.09686829 1028.08936279 409.08826782 1028.78210449 409.07940674 C1088.63753684 408.27376136 1147.79109838 402.36413614 1206.74462891 392.10546875 C1207.7438739 391.93208984 1208.7431189 391.75871094 1209.77264404 391.58007812 C1314.26056454 373.38641629 1416.84696738 344.25465909 1577.78387451 277.99371338 C1579.60531244 277.16858073 1581.42902973 276.34848472 1583.25292969 275.52880859 C1599.74465306 268.10986762 1615.93759342 260.11004765 1632.11962891 252.04296875 C1633.1273938 251.54176514 1634.13515869 251.04056152 1635.17346191 250.52416992 C1653.80383746 241.24658168 1672.09456966 231.39963195 1690.18212891 221.10546875 C1691.12121094 220.57308594 1692.06029297 220.04070312 1693.02783203 219.4921875 C1697.9390847 216.70649457 1702.84394697 213.90971041 1707.74462891 211.10546875 C1704.36578234 209.97918656 1703.7610058 210.19786103 1700.54077148 211.34619141 C1699.68750778 211.64515823 1698.83424408 211.94412506 1697.9551239 212.25215149 C1697.02585587 212.58788681 1696.09658783 212.92362213 1695.13916016 213.26953125 C1694.16489578 213.61296066 1693.19063141 213.95639008 1692.18684387 214.31022644 C1690.07885228 215.05378746 1687.97220631 215.80117179 1685.86676025 216.5519104 C1680.26494292 218.54671523 1674.65073597 220.5060761 1669.03759766 222.46875 C1667.90422974 222.86569565 1666.77086182 223.2626413 1665.60314941 223.6716156 C1641.81881685 231.98926348 1617.87930509 239.66772273 1593.61962891 246.48046875 C1592.78570618 246.71609528 1591.95178345 246.9517218 1591.09259033 247.19448853 C1565.33048047 254.43966225 1539.13358011 260.02433888 1512.93212891 265.41796875 C1511.93330688 265.6239097 1511.93330688 265.6239097 1510.91430664 265.83401108 C1412.96356883 286.01919976 1313.71560276 298.50666742 1070.74462891 312.10546875 C1069.63706238 312.13576172 1068.52949585 312.16605469 1067.3883667 312.19726562 C965.76416406 314.93918262 863.24269783 315.51221831 552.74462891 267.10546875 C551.77495178 266.86826111 550.80527466 266.63105347 549.80621338 266.38665771 C443.67886521 240.3930081 339.81095159 205.48060943 204.74462891 150.10546875 C203.95264099 149.77200439 203.16065308 149.43854004 202.34466553 149.0949707 C162.65714387 132.36474979 123.16597787 115.01930926 84.22119141 96.62109375 C83.43086014 96.24788498 82.64052887 95.87467621 81.82624817 95.49015808 C77.9902628 93.67724516 74.15717366 91.85854806 70.32836914 90.03051758 C68.95802457 89.37968477 67.58766411 88.72888541 66.21728516 88.078125 C65.58879669 87.7758197 64.96030823 87.4735144 64.31277466 87.16204834 C61.16740985 85.59800794 61.16740985 85.59800794 57.74462891 85.10546875 Z " fill="#000000" transform="translate(61.25537109375,1476.89453125)"/>
<path d="M0 0 C0.71603394 0.06316406 1.43206787 0.12632813 2.1697998 0.19140625 C28.71030689 2.57326534 53.77482388 6.77124171 78.56738281 16.99755859 C80.98291574 17.99295986 83.4076091 18.96207244 85.8359375 19.92578125 C87.34945424 20.53261879 88.86250029 21.14063201 90.375 21.75 C91.04660156 22.0193335 91.71820312 22.28866699 92.41015625 22.56616211 C102.04357086 26.53408352 108.31774824 30.83272594 112.625 40.5625 C120.82238408 61.39107338 119.53801338 83.43748744 117.8125 105.3125 C117.74720093 106.150159 117.68190186 106.98781799 117.61462402 107.8508606 C110.62654597 195.97517522 81.36672085 280.0961613 7.265625 369.48828125 C5.38721422 371.57072631 3.53944007 373.67307909 1.69921875 375.7890625 C-1.93742016 379.95237698 -5.66432218 384.02288803 -9.4375 388.0625 C-10.05431641 388.73087891 -10.67113281 389.39925781 -11.30664062 390.08789062 C-15.07306382 394.12082451 -18.98543654 397.84133665 -23.17651367 401.43041992 C-25.4957527 403.426723 -27.70828901 405.5291606 -29.9375 407.625 C-38.69096475 415.52874475 -46.02919363 418.41365086 -57.7421875 418.26953125 C-65.46263143 417.63078949 -69.65775967 413.825923 -74.5546875 408.09765625 C-79.10783532 401.48943901 -79.03608796 393.71492657 -78 386 C-75.85156545 377.97808849 -72.26886417 370.55676726 -68.81640625 363.02832031 C-53.09437413 328.68737644 -44.94423564 292.0605029 -35.90307617 255.54980469 C-32.66466774 242.49718891 -29.2992433 229.48868439 -25.76416016 216.51333618 C-19.04878448 191.86079253 -13.51923764 167.33914281 -10 142 C-10.77984253 141.74259033 -10.77984253 141.74259033 -11.57543945 141.47998047 C-15.84740376 140.06364738 -20.10706822 138.61841671 -24.35546875 137.1328125 C-37.74939804 132.49305537 -51.07983223 128.68960559 -65 126 C-65.79148437 125.84692383 -66.58296875 125.69384766 -67.3984375 125.53613281 C-122.8020789 115.15960907 -181.05939543 121.68770731 -236.296875 129.953125 C-237.40568527 130.11770706 -238.51449554 130.28228912 -239.65690613 130.45185852 C-245.06942651 131.25714155 -250.4777694 132.08151525 -255.88208008 132.94018555 C-257.86010462 133.24062634 -259.83820956 133.54053848 -261.81640625 133.83984375 C-262.70007874 133.98742126 -263.58375122 134.13499878 -264.49420166 134.28704834 C-273.56811056 135.62518923 -281.45645777 134.23871384 -288.953125 128.85546875 C-293.33473164 124.88359251 -297.61982444 119.13644834 -298.34375 113.1640625 C-299.03201779 97.57479703 -289.90850464 87.91036455 -280 77 C-279.30390625 76.22011719 -278.6078125 75.44023438 -277.890625 74.63671875 C-230.65025264 24.558262 -152.26180911 3.7903559 -86 -1 C-84.66144883 -1.11186555 -83.3229068 -1.22384044 -81.984375 -1.3359375 C-54.82321433 -3.40229519 -27.09355365 -2.39149626 0 0 Z M-101 50 C-102.16917969 50.17160645 -103.33835937 50.34321289 -104.54296875 50.52001953 C-132.7414381 54.71158266 -160.85059769 61.42567439 -187 73 C-183.1631505 74.30965313 -179.68235761 73.88988593 -175.68188477 73.57519531 C-167.81320505 73.00804807 -159.98013549 72.82340745 -152.08984375 72.796875 C-151.41506044 72.79404762 -150.74027714 72.79122025 -150.04504585 72.78830719 C-146.46256273 72.77347799 -142.88011807 72.76415065 -139.29760742 72.75976562 C-136.41759298 72.75542013 -133.53788475 72.74165822 -130.65795898 72.71875 C-80.89269172 72.33134992 -32.83714048 79.96531137 14 97 C14.79712402 97.28617188 15.59424805 97.57234375 16.41552734 97.8671875 C24.66800261 100.88369961 30.71688605 103.86714314 34.9765625 111.82421875 C43.61609607 130.43555042 37.87090349 159.81834137 34 179 C33.77989258 180.1048877 33.55978516 181.20977539 33.33300781 182.34814453 C27.47046907 211.12527857 19.43041421 239.49843275 11.5703125 267.78125 C11.23322266 269.00223389 10.89613281 270.22321777 10.54882812 271.48120117 C9.9551589 273.62195609 9.35299661 275.76038378 8.74023438 277.89575195 C8.48822266 278.80284912 8.23621094 279.70994629 7.9765625 280.64453125 C7.76080566 281.40096924 7.54504883 282.15740723 7.32275391 282.93676758 C6.9606223 285.25172535 7.28183469 286.78831337 8 289 C25.52931666 261.48007071 39.90618166 233.13252039 50 202 C50.33225586 200.97841797 50.66451172 199.95683594 51.00683594 198.90429688 C58.71257844 174.81695031 63.29693569 149.96313717 66.609375 124.92431641 C66.94691085 122.39743867 67.31286377 119.87701584 67.6875 117.35546875 C69.96670882 100.72700703 69.17695259 83.74379833 69 67 C32.28662015 52.10273561 -4.75873145 46.35161469 -44.375 46.625 C-45.57268005 46.62932037 -46.77036011 46.63364075 -48.0043335 46.63809204 C-65.85584686 46.713413 -83.33616274 47.25008609 -101 50 Z M6 289 C7 291 7 291 7 291 Z " fill="#000000" transform="translate(1972,1432)"/>
<path d="M0 0 C1.00499542 0.02123932 2.00999084 0.04247864 3.04544067 0.06436157 C37.59988461 0.82489743 37.59988461 0.82489743 46.9375 9.125 C51.88652787 15.85285995 55.24134271 25.74404505 55.26220703 34.11621094 C55.26630081 35.42890961 55.26630081 35.42890961 55.27047729 36.76812744 C55.26629791 37.70573914 55.26211853 38.64335083 55.2578125 39.609375 C55.25484161 40.58968689 55.25187073 41.56999878 55.24880981 42.58001709 C55.18019255 52.37131611 54.69032782 62.10987849 54 71.875 C53.90446838 73.25481552 53.90446838 73.25481552 53.80700684 74.6625061 C47.93017986 158.06013612 34.15693389 245.69378518 -4.83007812 320.60888672 C-5.95823652 322.78559981 -7.06495942 324.97257059 -8.171875 327.16015625 C-16.60097165 343.66827014 -26.19645797 359.21565462 -37.875 373.625 C-38.60074219 374.5428125 -39.32648438 375.460625 -40.07421875 376.40625 C-59.05508466 400.12381314 -81.72813471 420.69459194 -110.5 431.5 C-111.22670898 431.77424805 -111.95341797 432.04849609 -112.70214844 432.33105469 C-124.40990212 436.49208856 -135.98076918 438.16577848 -148.375 438.0625 C-150.33385132 438.05005249 -150.33385132 438.05005249 -152.33227539 438.03735352 C-193.09194541 437.33550492 -235.20825867 419.45745462 -267.875 395.625 C-268.76541992 394.9757959 -268.76541992 394.9757959 -269.67382812 394.31347656 C-305.55214162 367.82080603 -328.39725874 326.8256444 -335.51513672 283.09350586 C-343.82735877 226.07527169 -321.79840727 162.9980131 -288.39990234 117.25976562 C-274.49944855 98.65045538 -258.28922736 80.85960377 -239.875 66.625 C-238.61028809 65.62028113 -237.3459947 64.61503529 -236.08203125 63.609375 C-182.76402503 21.56702288 -116.53895504 5.16547587 -49.875 0.625 C-48.48740479 0.52807861 -48.48740479 0.52807861 -47.07177734 0.42919922 C-31.37372588 -0.59369727 -15.71600957 -0.33927889 0 0 Z M-39.8125 49.375 C-40.58791138 49.41756927 -41.36332275 49.46013855 -42.16223145 49.5039978 C-85.44990447 51.95296252 -128.3212079 59.91879452 -167.6875 78.5625 C-168.72583984 79.05258545 -169.76417969 79.5426709 -170.83398438 80.04760742 C-180.85910502 84.8946285 -190.02814979 90.75565248 -198.875 97.5 C-199.55796143 98.01755859 -200.24092285 98.53511719 -200.94458008 99.06835938 C-209.12297876 105.29622104 -217.03076991 111.7581323 -224.625 118.6875 C-225.14408936 119.15800781 -225.66317871 119.62851562 -226.19799805 120.11328125 C-263.3125655 154.46180196 -285.14392788 207.48425526 -288.09765625 257.38671875 C-288.85864789 288.52120281 -275.30421928 318.58027514 -254.875 341.625 C-254.21242188 342.38296875 -253.54984375 343.1409375 -252.8671875 343.921875 C-232.3834976 365.8853752 -199.41975366 379.51210709 -170.875 386.625 C-169.96878906 386.86863281 -169.06257813 387.11226562 -168.12890625 387.36328125 C-148.42009463 391.88308672 -129.85776462 388.07715483 -112.74365234 377.80957031 C-84.85174483 360.12841859 -66.05656647 331.22972494 -50.875 302.625 C-50.53259277 301.98546387 -50.19018555 301.34592773 -49.83740234 300.68701172 C-12.61157415 230.65950896 0.64077823 146.03935589 5.1875 57.8125 C5.18073242 56.61270508 5.18073242 56.61270508 5.17382812 55.38867188 C5.16232358 53.46741342 5.14440601 51.54619489 5.125 49.625 C3.08392044 49.4512911 1.04207625 49.28657087 -1 49.125 C-2.13695312 49.0321875 -3.27390625 48.939375 -4.4453125 48.84375 C-16.22455401 48.13475509 -28.04388444 48.72722262 -39.8125 49.375 Z " fill="#000000" transform="translate(1211.875,846.375)"/>
</svg>
