<?xml version="1.0" encoding="UTF-8"?>
<svg version="1.1" xmlns="http://www.w3.org/2000/svg" width="2100" height="2100">
<path d="M0 0 C3.85877111 0.00008176 7.71742472 -0.00696693 11.57617188 -0.02050781 C40.29627862 -0.11948638 68.68394477 0.46610717 97.20678711 4.18530273 C100.05369058 4.54568596 102.90142479 4.89889037 105.74975586 5.24780273 C106.43671036 5.33215576 107.12366486 5.41650879 107.83143616 5.50341797 C115.33294432 6.40168531 122.86765296 6.95927428 130.41333008 7.32592773 C137.78619766 7.79873688 142.24390946 9.59742509 147.58178711 14.93530273 C153.19764759 23.04710121 153.87409633 31.89074713 154.37451172 41.52270508 C154.41633292 42.30645193 154.45815413 43.09019878 154.50124264 43.89769554 C154.91948442 52.19203568 155.05735025 60.48355235 155.14819336 68.78686523 C155.16903271 70.44380496 155.19012263 72.10074154 155.21144104 73.75767517 C155.26697248 78.18485705 155.31677166 82.61208306 155.36441803 87.03935623 C155.39472167 89.85061709 155.4260229 92.6618656 155.4574585 95.47311401 C156.32369883 173.7151615 155.56733177 251.94481287 154.83178711 330.18530273 C154.81533268 331.94123623 154.81533268 331.94123623 154.79854584 333.73264313 C154.03069779 415.5711106 154.03069779 415.5711106 153.26928711 452.49780273 C152.87736036 471.57559655 152.72353081 490.64884629 152.70885086 509.73012924 C152.70684226 511.75470903 152.70292019 513.77928664 152.69894409 515.80386353 C152.69295706 519.63156277 152.69357042 523.45916572 152.69897461 527.28686523 C152.70130852 529.12788063 152.70130852 529.12788063 152.70368958 531.00608826 C152.73446304 537.42858749 152.872709 543.83200289 153.16870117 550.24682617 C153.22688019 551.56089447 153.2850592 552.87496277 153.34500122 554.22885132 C153.46295087 556.72575856 153.59569655 559.22202873 153.74606323 561.7171936 C154.10066392 569.07728148 154.05094268 575.23382741 149.18334961 581.20874023 C148.61358398 581.65475586 148.04381836 582.10077148 147.45678711 582.56030273 C146.89217773 583.02178711 146.32756836 583.48327148 145.74584961 583.95874023 C141.84790196 586.45660873 138.13610025 587.40099784 133.58178711 587.93530273 C65.65063214 597.83558317 -2.9395197 627.9860927 -61.16821289 663.18530273 C-62.07941895 663.73186523 -62.990625 664.27842773 -63.92944336 664.84155273 C-82.79824423 676.1825983 -100.71386487 688.78121129 -118.16821289 702.18530273 C-118.76827148 702.64501465 -119.36833008 703.10472656 -119.98657227 703.57836914 C-131.64908865 712.54146448 -142.81829646 722.05019704 -153.69165039 731.95483398 C-155.08453759 733.20931126 -156.48352661 734.45733331 -157.90284729 735.68182373 C-162.610813 739.74467162 -167.09551933 743.96534643 -171.48461914 748.36889648 C-172.14477524 749.02809586 -172.80493134 749.68729523 -173.48509216 750.36647034 C-174.86856795 751.74927108 -176.25080372 753.13331349 -177.63183594 754.51855469 C-179.72552958 756.61760616 -181.82451163 758.71126213 -183.92407227 760.80444336 C-185.2779086 762.15894059 -186.63143464 763.51374805 -187.98461914 764.86889648 C-188.60148087 765.48373398 -189.21834259 766.09857147 -189.85389709 766.73204041 C-194.15484541 771.05580117 -198.19001075 775.56462138 -202.16821289 780.18530273 C-203.21376553 781.37656881 -204.26044475 782.56684822 -205.30883789 783.75561523 C-211.9905814 791.3770287 -218.43962825 799.12349725 -224.6105957 807.16381836 C-226.34481901 809.41450315 -228.09660203 811.65100705 -229.84790039 813.88842773 C-244.27072445 832.43180417 -257.24850248 851.94676466 -269.16821289 872.18530273 C-269.86261475 873.35996094 -269.86261475 873.35996094 -270.57104492 874.55834961 C-315.33241403 950.61788454 -342.58459963 1034.5152325 -355.16821289 1172.18530273 C-355.19157715 1173.08909668 -355.21494141 1173.99289062 -355.23901367 1174.92407227 C-356.67957216 1239.60393779 -346.26318907 1304.50705704 -327.16821289 1366.18530273 C-326.81533203 1367.32918457 -326.46245117 1368.47306641 -326.09887695 1369.65161133 C-317.57804945 1396.95717086 -306.53108853 1423.40739183 -294.16821289 1449.18530273 C-293.70092773 1450.16370117 -293.23364258 1451.14209961 -292.75219727 1452.15014648 C-285.31667057 1467.62489623 -277.04481462 1482.49427891 -268.16821289 1497.18530273 C-267.60424805 1498.12067871 -267.0402832 1499.05605469 -266.45922852 1500.01977539 C-252.13711659 1523.68619204 -236.23914411 1546.15217314 -218.59204102 1567.46166992 C-216.57980816 1569.89760338 -214.59513539 1572.35572749 -212.60571289 1574.81030273 C-204.46884137 1584.71412263 -196.27186828 1594.34996544 -187.05493164 1603.27124023 C-184.83921062 1605.44850723 -182.80395281 1607.73400544 -180.78149414 1610.09155273 C-177.30799597 1614.10472003 -173.57311975 1617.72143086 -169.66821289 1621.31030273 C-168.25797848 1622.61751008 -166.84782418 1623.92480386 -165.43774414 1625.23217773 C-164.72827637 1625.88766602 -164.01880859 1626.5431543 -163.2878418 1627.21850586 C-161.24081126 1629.11793894 -159.20792858 1631.03120478 -157.17993164 1632.95092773 C-150.06540955 1639.67615615 -142.82595923 1646.0775828 -135.16821289 1652.18530273 C-133.96601427 1653.17676141 -132.76561222 1654.17040103 -131.56665039 1655.16577148 C-122.44114127 1662.71697011 -113.04584225 1669.77761614 -103.37670898 1676.61645508 C-101.27220101 1678.11143277 -99.18149631 1679.62373573 -97.09399414 1681.14233398 C-18.62688873 1737.90011189 76.54502078 1773.99736126 206.83178711 1790.18530273 C207.93989746 1790.28842773 209.04800781 1790.39155273 210.18969727 1790.49780273 C223.74438609 1791.59550711 237.36733966 1791.43124042 250.95678711 1791.43530273 C251.63393517 1791.43574459 252.31108322 1791.43618645 253.00875092 1791.43664169 C275.40250873 1791.44429241 297.58473429 1790.89807453 319.83178711 1788.18530273 C320.55422607 1788.0980896 321.27666504 1788.01087646 322.02099609 1787.92102051 C377.56100021 1781.1525194 432.21375011 1767.96632413 483.83178711 1746.18530273 C485.42071777 1745.5148291 485.42071777 1745.5148291 487.04174805 1744.83081055 C539.01843706 1722.71882861 587.79504772 1694.66824333 631.83178711 1659.18530273 C632.76120117 1658.43893555 633.69061523 1657.69256836 634.64819336 1656.92358398 C648.33729947 1645.82484729 661.87402247 1634.37417021 674.21069336 1621.77124023 C675.91288413 1620.10596445 677.69475218 1618.5900764 679.51928711 1617.06030273 C684.42168904 1612.84461859 688.66052425 1608.0420237 693.00366211 1603.26733398 C695.15745909 1600.9037054 697.35951042 1598.61126638 699.64428711 1596.37280273 C703.25111192 1592.81775053 706.53672613 1589.0285024 709.83178711 1585.18530273 C710.7389425 1584.14198893 711.64652792 1583.09904894 712.55444336 1582.05639648 C719.03144679 1574.59348465 725.29805069 1567.00177611 731.31420898 1559.16235352 C732.36687214 1557.79097863 733.42311637 1556.42234803 734.48217773 1555.0559082 C757.2103575 1525.67635596 776.59893566 1494.06236093 793.83178711 1461.18530273 C794.52667236 1459.87142578 794.52667236 1459.87142578 795.2355957 1458.53100586 C827.00019032 1398.17713389 845.29576925 1332.06429075 855.63693237 1264.93566895 C855.8098186 1263.81474916 855.8098186 1263.81474916 855.98619747 1262.67118454 C856.26821202 1260.8425806 856.55002054 1259.0139449 856.83178711 1257.18530273 C856.09628059 1257.18571042 855.36077407 1257.18611812 854.60297948 1257.18653816 C802.9054355 1257.21368911 751.20854855 1257.13783254 699.51117584 1257.00903001 C694.49522159 1256.99657734 689.47926685 1256.98432877 684.46331215 1256.97205925 C667.59468377 1256.93073307 650.72605643 1256.88901788 633.85743237 1256.84596348 C632.79293885 1256.84324743 631.72844534 1256.84053138 630.63169445 1256.83773303 C629.5658936 1256.83501354 628.50009274 1256.83229405 627.40199488 1256.82949215 C625.24537289 1256.82399009 623.0887509 1256.8184888 620.93212891 1256.81298828 C619.86256572 1256.81025998 618.79300253 1256.80753167 617.69102833 1256.80472069 C602.67630966 1256.76648583 587.66158764 1256.73009195 572.6468605 1256.69534938 C526.22903912 1256.58791954 479.811306 1256.46814262 433.39364433 1256.30446815 C432.4241411 1256.30105207 431.45463787 1256.29763598 430.45575575 1256.29411637 C422.41406913 1256.26576597 422.41406913 1256.26576597 418.80710299 1256.25297068 C404.75661018 1256.20327317 390.70611346 1256.16255409 376.65557861 1256.12689209 C361.30287393 1256.08782442 345.95029384 1256.03467714 330.59771162 1255.96158522 C322.14031095 1255.92166957 313.68303766 1255.89238415 305.22555284 1255.8787231 C298.95273123 1255.86734597 292.68017996 1255.8352733 286.40748191 1255.79484296 C283.87883974 1255.78173905 281.35015217 1255.77535244 278.82147622 1255.77629352 C275.40393638 1255.77657221 271.9874082 1255.75255835 268.57002258 1255.72227478 C267.58804136 1255.72818762 266.60606014 1255.73410046 265.59432191 1255.74019247 C257.92771594 1255.63024446 252.50305125 1253.91727742 247.08178711 1248.37280273 C242.71272934 1242.18330423 239.72374537 1237.05792778 239.68461609 1229.35430908 C239.67388313 1227.89934021 239.67388313 1227.89934021 239.66293335 1226.41497803 C239.65889999 1224.82837372 239.65889999 1224.82837372 239.65478516 1223.2097168 C239.64821396 1222.09056885 239.64164276 1220.9714209 239.63487244 1219.81835938 C239.61515224 1216.11254815 239.60348003 1212.40677741 239.59350586 1208.70092773 C239.58943033 1207.434804 239.5853548 1206.16868027 239.58115578 1204.86418915 C239.56245054 1198.85420193 239.54788314 1192.84423921 239.53954381 1186.83423066 C239.52977711 1179.91106438 239.50346756 1172.98821831 239.46304291 1166.0651648 C239.42917358 1160.05731895 239.41739311 1154.04962785 239.41333961 1148.04167938 C239.40847041 1145.49163389 239.39684702 1142.9415919 239.37830162 1140.39160919 C239.35394142 1136.8203028 239.35487003 1133.24983093 239.36181641 1129.6784668 C239.34900635 1128.62882751 239.33619629 1127.57918823 239.32299805 1126.4977417 C239.37203995 1119.56743401 240.39901157 1113.88317415 245.24376965 1108.66427994 C249.84368914 1104.58160879 254.12456532 1102.937295 260.20541066 1102.92819238 C261.81596545 1102.9185317 261.81596545 1102.9185317 263.45905671 1102.90867585 C264.63509182 1102.91175384 265.81112694 1102.91483182 267.02279949 1102.91800308 C268.2800344 1102.91340783 269.5372693 1102.90881257 270.83260223 1102.90407807 C274.33540475 1102.89156225 277.83811506 1102.89150993 281.34093536 1102.89342842 C285.14686206 1102.8933315 288.95275612 1102.88171114 292.75866681 1102.87154269 C299.43350022 1102.85531683 306.10831158 1102.84654016 312.78316307 1102.84259987 C322.70899817 1102.83672014 332.63479074 1102.81948375 342.56060725 1102.79997949 C360.28726442 1102.76553315 378.01392274 1102.74252913 395.74060325 1102.72435264 C411.25641506 1102.70841922 426.77221668 1102.68880052 442.28801918 1102.6654892 C443.31627989 1102.66395008 444.3445406 1102.66241096 445.40396073 1102.66082521 C449.57781364 1102.65457533 453.75166653 1102.64831158 457.92551938 1102.64202484 C497.10397964 1102.58308799 536.28244649 1102.53580743 575.46092805 1102.49370661 C610.27670459 1102.45622102 645.09245247 1102.40837974 679.90820312 1102.35180664 C719.00638321 1102.28831051 758.10456387 1102.2313238 797.20276815 1102.18481803 C801.37067085 1102.17984279 805.53857354 1102.17485147 809.70647621 1102.16985321 C810.73275029 1102.16862821 811.75902436 1102.16740322 812.81639765 1102.1661411 C828.31985365 1102.14752076 843.82329697 1102.12392024 859.32674217 1102.09790802 C876.95732178 1102.0683551 894.58789419 1102.04598098 912.2184942 1102.03310379 C922.0878288 1102.02569319 931.95711934 1102.01274064 941.82643475 1101.99181932 C948.41763039 1101.97840601 955.00880654 1101.97230566 961.60001576 1101.97217122 C965.35634711 1101.97189098 969.11260144 1101.96844498 972.86891427 1101.95613363 C976.91651173 1101.94294708 980.96395202 1101.94533743 985.01156902 1101.94923782 C986.75806296 1101.93980781 986.75806296 1101.93980781 988.5398396 1101.93018728 C998.04585737 1101.96146168 1007.74548586 1102.08015494 1014.83178711 1109.18530273 C1018.71446676 1113.93211535 1019.88309465 1119.12075131 1019.83178711 1125.18530273 C1019.65760254 1126.03294189 1019.48341797 1126.88058105 1019.30395508 1127.75390625 C1018.71228418 1132.05376895 1018.97652211 1136.07801963 1019.25756836 1140.39624023 C1019.97227461 1153.20066867 1020.0312354 1165.98867714 1020.01928711 1178.81030273 C1020.01868286 1180.01595886 1020.01807861 1181.22161499 1020.01745605 1182.46380615 C1019.99041047 1202.43433326 1019.57780156 1222.28781954 1017.83178711 1242.18530273 C1017.76862305 1242.90796326 1017.70545898 1243.63062378 1017.64038086 1244.37518311 C1010.64285337 1323.23671759 991.77832134 1400.67115969 943.83178711 1513.18530273 C943.2984375 1514.2890625 942.76508789 1515.39282227 942.21557617 1516.5300293 C934.66381746 1532.09164138 926.51459667 1547.22838904 917.83178711 1562.18530273 C916.98250793 1563.66428521 916.13352846 1565.14343984 915.28491211 1566.62280273 C890.01545164 1610.40098972 859.79363429 1651.56329045 825.82397461 1688.97827148 C824.0698533 1690.92156274 822.35206017 1692.88889721 820.64428711 1694.87280273 C811.31872928 1705.52756903 801.45326326 1715.66348405 791.45678711 1725.68530273 C790.52987061 1726.61681152 789.6029541 1727.54832031 788.64794922 1728.50805664 C784.11208038 1733.03372701 779.52727541 1737.42654672 774.66381836 1741.59838867 C771.70065594 1744.16509386 768.87054117 1746.8708132 766.01928711 1749.56030273 C761.02633427 1754.23214174 755.92609954 1758.68330588 750.58569336 1762.95874023 C748.12042779 1764.95193367 745.70686909 1766.99457551 743.30444336 1769.06274414 C735.79473499 1775.51439152 727.98870439 1781.52960029 720.07983398 1787.48168945 C717.89459054 1789.13770909 715.72884638 1790.8163784 713.56616211 1792.50170898 C655.98447875 1837.00526149 590.04996751 1872.13027569 521.83178711 1897.18530273 C520.58129824 1897.65035853 519.33097778 1898.11586738 518.08081055 1898.58178711 C447.89131666 1924.67139924 374.41240726 1938.92754026 299.83178711 1944.18530273 C298.79779785 1944.2587793 297.76380859 1944.33225586 296.69848633 1944.40795898 C217.38359632 1949.71160448 136.00512854 1940.57171795 -72.47680664 1872.44506836 C-75.01421071 1871.25738648 -77.55855791 1870.08626649 -80.10571289 1868.91967773 C-92.43926077 1863.23187653 -104.31237824 1856.80270113 -116.16821289 1850.18530273 C-117.60849854 1849.38769531 -117.60849854 1849.38769531 -119.07788086 1848.57397461 C-148.26131937 1832.40904383 -176.43535618 1814.15844646 -203.16821289 1794.18530273 C-203.74635742 1793.7534668 -204.32450195 1793.32163086 -204.92016602 1792.87670898 C-213.57493223 1786.37804242 -221.95762849 1779.54227582 -230.33032227 1772.68676758 C-231.97476852 1771.34333713 -233.62575241 1770.00791842 -235.27758789 1768.67358398 C-240.60839264 1764.35924624 -245.77313583 1759.91178577 -250.84399414 1755.29467773 C-252.88863624 1753.43903617 -254.95605438 1751.61773897 -257.04321289 1749.81030273 C-268.29879549 1739.96314275 -278.93837918 1729.57271257 -289.49707031 1718.98681641 C-291.98983284 1716.48866306 -294.48793764 1713.99594075 -296.98657227 1711.50366211 C-298.59561717 1709.89395682 -300.20435207 1708.28394158 -301.81274414 1706.67358398 C-302.54830032 1705.94005203 -303.28385651 1705.20652008 -304.04170227 1704.45075989 C-308.61744107 1699.85446039 -312.93954863 1695.1009802 -317.16821289 1690.18530273 C-318.62266806 1688.57761901 -320.08042184 1686.97290559 -321.54321289 1685.37280273 C-325.36418427 1681.13441431 -329.0106862 1676.7865117 -332.59790039 1672.34936523 C-334.5200175 1669.97245463 -336.46786558 1667.6185433 -338.42602539 1665.27124023 C-346.32118999 1655.79308524 -353.87702422 1646.1343163 -361.16821289 1636.18530273 C-361.67143066 1635.5045166 -362.17464844 1634.82373047 -362.69311523 1634.12231445 C-377.1910931 1614.49772734 -390.6308414 1594.11423642 -403.16821289 1573.18530273 C-403.74361816 1572.22527344 -404.31902344 1571.26524414 -404.91186523 1570.27612305 C-448.93934667 1496.36730346 -479.88820837 1415.00634685 -507.41821289 1264.18530273 C-507.56943604 1262.91372314 -507.72065918 1261.64214355 -507.87646484 1260.33203125 C-510.74369708 1234.49132329 -511.54649653 1208.72034749 -511.4862709 1182.7473793 C-511.48061803 1180.26870916 -511.47780545 1177.79004589 -511.47518921 1175.31137085 C-511.43882644 1151.59890927 -511.08793713 1128.02560929 -508.42144775 1104.43859863 C-508.15498587 1102.06760806 -507.90086014 1099.69549627 -507.64819336 1097.32299805 C-499.09795979 1017.90433353 -478.54414954 940.20822355 -414.16821289 804.18530273 C-413.56879883 803.12263184 -412.96938477 802.05996094 -412.35180664 800.96508789 C-400.90024048 780.73109586 -388.3000238 761.3646947 -375.16821289 742.18530273 C-374.52948242 741.25137695 -373.89075195 740.31745117 -373.23266602 739.35522461 C-362.43979698 723.65078156 -350.71374792 708.67727971 -338.62133789 693.95874023 C-337.2966436 692.34204344 -335.98188329 690.71721985 -334.66821289 689.09155273 C-330.34731577 683.75044379 -325.89231609 678.57657811 -321.26586914 673.49780273 C-319.47313843 671.52145901 -317.72026062 669.52073543 -315.98071289 667.49780273 C-306.03013033 656.10740103 -295.44260836 645.29411077 -284.73413086 634.62084961 C-282.76956088 632.66171618 -280.81049841 630.6971863 -278.85180664 628.73217773 C-272.79164497 622.66881552 -266.71481103 616.72750226 -260.16821289 611.18530273 C-258.39251068 609.56562457 -256.62112982 607.94118555 -254.85571289 606.31030273 C-250.36673232 602.21650065 -245.75577813 598.33060606 -241.02758789 594.51733398 C-238.53023864 592.48056144 -236.07608627 590.40215574 -233.63330078 588.30053711 C-226.09182607 581.82549848 -218.25304381 575.78258895 -210.31469727 569.80395508 C-208.2349154 568.23560274 -206.16186591 566.65873742 -204.09008789 565.07983398 C-181.50950951 547.92632371 -157.63696428 532.49638901 -133.16821289 518.18530273 C-132.36303223 517.71060547 -131.55785156 517.2359082 -130.72827148 516.74682617 C-99.66674171 498.4695226 -67.2367451 482.73260184 -33.85571289 469.18530273 C-33.09387695 468.87560547 -32.33204102 468.5659082 -31.54711914 468.24682617 C-23.3196285 464.91376562 -15.05185105 461.72291271 -6.68774414 458.74780273 C-5.96189621 458.48854004 -5.23604828 458.22927734 -4.48820496 457.9621582 C0.58327486 456.18530273 0.58327486 456.18530273 2.83178711 456.18530273 C2.81607666 454.95610107 2.80036621 453.72689941 2.78417969 452.46044922 C2.43122732 421.50899852 3.01981901 390.65959214 4.11791992 359.72924805 C5.30923831 326.1305325 6.14543431 292.56679869 6.14364624 258.94503784 C6.14427348 256.18282926 6.14873081 253.42065035 6.15405273 250.65844727 C6.19058178 226.11273379 5.45141843 201.67888706 3.83178711 177.18530273 C3.75989166 175.96527557 3.68799622 174.74524841 3.61392212 173.48825073 C3.54055634 172.39433014 3.46719055 171.30040955 3.39160156 170.17333984 C3.30130424 168.75280556 3.30130424 168.75280556 3.20918274 167.30357361 C3.08464218 166.60454422 2.96010162 165.90551483 2.83178711 165.18530273 C0.18764014 163.86322925 -1.76433544 164.0797446 -4.72509766 164.10351562 C-6.47446373 164.113312 -6.47446373 164.113312 -8.25917053 164.12330627 C-10.16514259 164.14045937 -10.16514259 164.14045937 -12.10961914 164.15795898 C-14.11384182 164.16737499 -16.11806466 164.17677787 -18.12229061 164.18546963 C-23.05945631 164.20830603 -27.99653817 164.24137699 -32.93359375 164.28125 C-78.4107667 164.63559228 -78.4107667 164.63559228 -87.91821289 155.56030273 C-93.8415552 147.67585385 -95.32832737 138.35968908 -95.19555664 128.74780273 C-95.18123987 127.22404564 -95.16760398 125.70028203 -95.15454102 124.17651367 C-95.14624268 123.36661987 -95.13794434 122.55672607 -95.12939453 121.72229004 C-94.94057218 101.4939654 -95.59717573 81.32705462 -96.45703125 61.11889648 C-96.88033677 51.06309018 -97.26991466 41.01243616 -97.34008789 30.94702148 C-97.35096436 30.1417804 -97.36184082 29.33653931 -97.37304688 28.50689697 C-97.37630782 22.4374613 -96.37401368 17.4352204 -93.16821289 12.18530273 C-92.61133789 11.25717773 -92.05446289 10.32905273 -91.48071289 9.37280273 C-84.9463797 3.19167675 -78.05311451 1.12623478 -69.26367188 0.87548828 C-68.57126719 0.85516603 -67.8788625 0.83484379 -67.16547585 0.81390572 C-64.85269997 0.74847857 -62.53982074 0.69086636 -60.22680664 0.63452148 C-59.41853361 0.61370703 -58.61026058 0.59289257 -57.77749443 0.57144737 C-38.52006859 0.08226719 -19.26279616 -0.00213407 0 0 Z " fill="#000000" transform="translate(797.168212890625,91.814697265625)"/>
<path d="M0 0 C2.8599531 0.69952059 5.72148303 1.39220639 8.58343506 2.08349609 C31.83771589 7.72516841 54.5066718 14.68302099 77.20697021 22.23852539 C137.80479146 42.37630134 202.82029206 62.46002321 267.29290771 62.96630859 C268.33546722 62.97605713 269.37802673 62.98580566 270.45217896 62.99584961 C294.94487136 63.17751077 318.76706311 62.50757292 342.97650146 58.72802734 C344.2225415 58.54079102 345.46858154 58.35355469 346.75238037 58.16064453 C395.72005838 50.70246077 441.99318536 36.36446841 487.55023193 17.1640625 C490.66565568 15.85831058 493.78864156 14.57438728 496.91790771 13.30224609 C508.08112174 8.74817524 519.07234949 3.89009026 530.01690674 -1.16174316 C541.57249423 -6.49036334 553.13800764 -11.79815867 564.85150146 -16.77197266 C565.89475586 -17.23466553 566.93801025 -17.6973584 568.01287842 -18.17407227 C575.85051746 -21.43072128 584.12037943 -23.00735489 592.45550537 -20.53735352 C599.47299601 -17.57097222 603.5194586 -11.95663262 606.35150146 -5.08447266 C609.28456287 4.07513012 608.69705377 11.53298141 605.41790771 20.52490234 C605.15269821 21.26251801 604.88748871 22.00013367 604.61424255 22.76010132 C601.54987511 31.12351843 597.95421454 39.23937826 594.28900146 47.35302734 C593.57695107 48.93971747 592.86503882 50.5264696 592.15325928 52.11328125 C583.5701594 71.20107054 574.58444923 89.91973584 564.38031006 108.20117188 C563.09018294 110.52340069 561.8200447 112.85500876 560.55853271 115.19287109 C550.16392817 134.36431914 538.63073601 152.96734923 525.97650146 170.72802734 C525.15180722 171.89956777 524.327587 173.07144203 523.50384521 174.24365234 C512.93002241 189.23266434 501.80387125 203.70581892 489.97650146 217.72802734 C489.17043457 218.68491455 489.17043457 218.68491455 488.3480835 219.66113281 C474.01870018 236.60147179 458.86112723 253.67617993 441.92181396 268.06396484 C439.62417214 270.02941749 437.39777023 272.06532606 435.16400146 274.10302734 C429.90847878 278.82824879 424.52612892 283.35275926 418.97650146 287.72802734 C418.24528076 288.30472168 417.51406006 288.88141602 416.76068115 289.47558594 C404.26417064 299.27789464 391.48812983 308.37852665 377.97650146 316.72802734 C376.91084961 317.38810791 376.91084961 317.38810791 375.82366943 318.06152344 C336.74342912 342.07757109 295.25992031 357.56573647 250.97650146 368.72802734 C250.2475769 368.91214172 249.51865234 369.0962561 248.76763916 369.28594971 C203.12308151 380.7776535 156.91960478 388.31525927 109.97650146 391.72802734 C109.00857666 391.80005371 108.04065186 391.87208008 107.043396 391.94628906 C30.99324655 397.34265766 -48.82857134 386.90084868 -121.02349854 362.72802734 C-121.92970947 362.4321875 -122.83592041 362.13634766 -123.76959229 361.83154297 C-169.66627801 346.84700859 -213.49946306 323.77561377 -252.02349854 294.72802734 C-252.63258057 294.27057129 -253.2416626 293.81311523 -253.86920166 293.34179688 C-261.40895634 287.66193184 -268.7815412 281.78277856 -276.02349854 275.72802734 C-276.54492432 275.29296875 -277.0663501 274.85791016 -277.60357666 274.40966797 C-291.57900392 262.71122886 -304.6832417 250.15179102 -317.58599854 237.29052734 C-318.51412354 236.3670752 -319.44224854 235.44362305 -320.39849854 234.4921875 C-325.48195496 229.3967418 -330.34225185 224.1929945 -335.02349854 218.72802734 C-336.47795371 217.12034362 -337.93570748 215.5156302 -339.39849854 213.91552734 C-343.64864646 209.20107754 -347.67102455 204.33335232 -351.66168213 199.39892578 C-353.22513265 197.48062973 -354.80493921 195.57649869 -356.38677979 193.67333984 C-472.0650938 54.40449236 -472.0650938 54.40449236 -467.02349854 -10.27197266 C-464.54658702 -20.32883025 -455.79519649 -29.06567722 -447.17266846 -34.42163086 C-445.23218707 -35.4626746 -443.27487342 -36.41596842 -441.27349854 -37.33447266 C-440.54179443 -37.67244873 -439.81009033 -38.0104248 -439.05621338 -38.35864258 C-424.83836437 -44.66380556 -409.38045744 -47.4001119 -394.02349854 -49.27197266 C-393.19962646 -49.37638672 -392.37575439 -49.48080078 -391.5269165 -49.58837891 C-297.71373395 -60.85380383 -196.98942641 -40.83239238 0 0 Z " fill="#000000" transform="translate(977.0234985351563,1424.27197265625)"/>
<path d="M0 0 C1.21300105 -0.00423493 1.21300105 -0.00423493 2.45050716 -0.00855541 C3.7738524 -0.00551387 3.7738524 -0.00551387 5.12393188 -0.00241089 C6.06484712 -0.00413205 7.00576235 -0.00585321 7.97519016 -0.00762653 C11.12976838 -0.01198564 14.28429427 -0.00899806 17.43887329 -0.00582886 C19.68965168 -0.00697288 21.94042992 -0.00845047 24.19120789 -0.01023865 C30.28848667 -0.01327131 36.38573807 -0.00898224 42.48301315 -0.00219345 C46.28186775 0.00197424 50.08072178 0.00494018 53.87957764 0.00769043 C72.22494129 0.0226932 90.57017173 0.06533002 108.91543579 0.12698364 C110.18696754 0.13124107 111.4584993 0.1354985 112.76856232 0.13988495 C128.39867841 0.19386466 144.0284041 0.27368602 159.65817261 0.39144897 C164.10896528 0.42475782 168.55972348 0.45159758 173.0105896 0.47286987 C178.23885522 0.49846094 183.46681039 0.53856093 188.69488335 0.59004402 C190.59928191 0.60658265 192.50372999 0.61828157 194.40818977 0.62463188 C217.79857202 0.71121016 217.79857202 0.71121016 226.38809204 7.50198364 C237.43710405 19.25745422 237.09914193 39.0367234 237.04043579 54.06448364 C237.037052 55.35411011 237.03366821 56.64373657 237.03018188 57.97244263 C236.97842199 70.40816518 236.80301954 82.84367435 236.59603882 95.27764893 C236.55929843 97.53206114 236.5252723 99.78651941 236.49411011 102.04101562 C235.96132131 139.3961612 235.96132131 139.3961612 228.12246704 148.12307739 C211.09644178 163.96353803 181.23429864 158.31025431 159.79043579 157.68948364 C159.09194519 157.67001678 158.39345459 157.65054993 157.67379761 157.63049316 C155.66826233 157.57293623 153.66293465 157.50828148 151.65762329 157.44338989 C149.922948 157.38840332 149.922948 157.38840332 148.15322876 157.33230591 C145.01161823 157.13308298 142.0138042 156.66651877 138.91543579 156.12698364 C138.91623138 157.15328888 138.91702698 158.17959412 138.91784668 159.23699951 C138.93766457 209.80027071 138.0682627 260.12504036 134.70588684 310.58418274 C132.45777086 344.40307434 131.26158487 378.10761297 131.04043579 412.00198364 C131.03354736 413.05733433 131.02665894 414.11268501 131.01956177 415.20001602 C130.94111062 427.84232937 130.90499822 440.48443787 130.91543579 453.12698364 C132.29157295 453.33720909 132.29157295 453.33720909 133.69551086 453.55168152 C137.45436911 454.22327455 140.84044008 455.47211515 144.37246704 456.87307739 C145.45811195 457.29688187 145.45811195 457.29688187 146.56568909 457.72924805 C148.95626098 458.66653444 151.34243862 459.61436058 153.72793579 460.56448364 C154.55257324 460.89145233 155.37721069 461.21842102 156.22683716 461.55529785 C169.80692581 466.95039729 183.2685322 472.60538086 196.66543579 478.43948364 C197.50240997 478.8008139 198.33938416 479.16214417 199.20172119 479.53442383 C209.72982749 484.09117189 219.83167894 489.09690295 229.78799438 494.79934692 C234.05253891 497.23563603 238.41085647 499.46864896 242.79043579 501.68948364 C254.187571 507.58540656 265.06359242 514.36660835 275.98075867 521.09487915 C279.34434736 523.16706359 282.71930548 525.21792206 286.11074829 527.24417114 C295.65165699 532.95579049 304.77236939 539.09648505 313.78897095 545.6020813 C315.9491637 547.15117016 318.12281216 548.67919105 320.30215454 550.20120239 C328.46089928 555.90049944 336.4800452 561.71834184 344.30752563 567.86624146 C345.99091081 569.18616266 347.68121032 570.49685481 349.37246704 571.80667114 C356.82500946 577.59611338 364.09802699 583.56350121 371.25918579 589.70901489 C372.96229157 591.16709838 374.67252853 592.61645216 376.38418579 594.06448364 C383.83821094 600.3861995 391.0982567 606.88016656 398.23379517 613.55862427 C399.95895601 615.16757219 401.69393679 616.76534021 403.43106079 618.36135864 C410.56568319 624.93627149 417.54315926 631.65299339 424.41543579 638.50198364 C425.15688843 639.23884399 425.89834106 639.97570435 426.66226196 640.7348938 C430.6886395 644.77265172 434.53616248 648.9052801 438.25820923 653.22463989 C440.85500634 656.20552427 443.57817306 659.06408665 446.29043579 661.93948364 C450.95904087 666.92898027 455.4067125 672.02622319 459.68106079 677.36135864 C461.71508598 679.87899821 463.79200779 682.34814822 465.89517212 684.80764771 C496.97001394 721.15134722 523.66091435 761.41245611 546.91543579 803.12698364 C547.68041382 804.49234253 547.68041382 804.49234253 548.46084595 805.88528442 C580.15689309 862.65388209 604.11910219 923.93117772 620.10293579 986.93948364 C620.38266235 988.04139038 620.66238892 989.14329712 620.95059204 990.27859497 C623.32539847 1000.04942388 625.41001248 1008.72753695 620.91543579 1018.12698364 C618.19310963 1022.50215069 614.71889998 1025.27854849 609.91543579 1027.12698364 C601.48644726 1028.77229745 592.69291306 1028.18294785 584.14981079 1028.04104614 C582.60661447 1028.01958536 581.06341146 1027.99860044 579.52020264 1027.97805786 C575.41469544 1027.92179448 571.30933581 1027.8582191 567.20397186 1027.79239655 C564.66121577 1027.75191646 562.11844094 1027.7129594 559.57565308 1027.67453003 C551.95653587 1027.55932054 544.33748435 1027.44098041 536.71852303 1027.31586647 C528.96258493 1027.18856799 521.20677468 1027.07575287 513.4503479 1026.9821167 C509.18892244 1026.92871509 504.92773714 1026.86389831 500.66653442 1026.7951355 C498.76873193 1026.76666161 496.87085318 1026.74284001 494.97293091 1026.72396851 C472.27718665 1026.4887345 472.27718665 1026.4887345 463.91543579 1018.12698364 C460.16379113 1013.2688969 458.72243363 1008.70497372 457.22793579 1002.87698364 C432.21015342 911.21519276 378.80317521 824.29577085 300.47793579 744.56448364 C299.91572327 743.99959229 299.35351074 743.43470093 298.77426147 742.85269165 C292.66844796 736.72480974 286.51933902 730.72297507 279.91543579 725.12698364 C278.72350106 724.08219333 277.53338534 723.03532408 276.34512329 721.98635864 C268.66896879 715.257165 260.85879374 708.77165916 252.76504517 702.55130005 C250.82459706 701.05703207 248.89332475 699.55138724 246.96231079 698.04495239 C214.85420658 673.10872231 180.23109352 652.33142025 143.91543579 634.12698364 C142.92688599 633.63069458 141.93833618 633.13440552 140.91983032 632.62307739 C107.34682556 615.88503324 71.97826277 603.30312789 35.91543579 593.12698364 C34.25061157 592.65421997 34.25061157 592.65421997 32.55215454 592.17190552 C21.66673886 589.12477888 11.16159567 586.43948364 -0.2046814 586.43948364 C-6.23575531 586.40423138 -11.30069585 585.05966923 -16.25643921 581.61917114 C-26.93622327 570.67503599 -27.40589695 556.64535859 -27.25253296 542.10745239 C-27.16507199 538.28103496 -26.88199945 534.48896067 -26.58065796 530.67385864 C-25.78953572 519.19154898 -25.9361743 507.69345422 -25.95956421 496.18948364 C-25.96045044 494.91348297 -25.96133667 493.6374823 -25.96224976 492.32281494 C-25.9777797 472.85408857 -26.20004945 453.39272004 -26.51437378 433.92678833 C-27.57671228 368.01832721 -27.87889752 302.02459033 -26.08456421 236.12698364 C-26.05298218 234.94614197 -26.02140015 233.76530029 -25.98886108 232.54867554 C-25.03868745 197.3055012 -23.57571291 162.09682847 -21.76815796 126.88870239 C-21.71404251 125.83077988 -21.65992706 124.77285736 -21.60417175 123.68287659 C-21.37336781 119.26672664 -21.13695528 114.85421097 -20.81918335 110.44329834 C-20.13944507 100.83699273 -19.98427853 91.3073783 -20.07052994 81.67895508 C-20.09299903 79.05428865 -20.10678163 76.42969874 -20.1182251 73.80496216 C-20.15142618 66.35604621 -20.19370033 58.90726004 -20.25595093 51.45852661 C-20.29369865 46.86893028 -20.31664273 42.27945629 -20.33025742 37.68972778 C-20.33826723 35.95466658 -20.3518124 34.21962115 -20.37118912 32.48464966 C-20.39782309 30.06188859 -20.40557375 27.63971727 -20.40927124 25.21682739 C-20.42162811 24.5133165 -20.43398499 23.8098056 -20.44671631 23.0849762 C-20.41738413 15.75507359 -18.22208625 9.41560928 -13.08456421 4.12698364 C-8.81079198 1.13534308 -5.17383193 0.00279812 0 0 Z " fill="#000000" transform="translate(1174.0845642089844,95.87301635742188)"/>
<path d="M0 0 C21.45375156 20.24792009 32.57022346 49.18371059 33.91796875 78.19921875 C34.46457163 107.16917121 24.62597353 135.69957718 4.91796875 157.19921875 C4.08652344 158.111875 3.25507812 159.02453125 2.3984375 159.96484375 C-18.1233605 181.47817811 -46.46190635 193.69173323 -76.14575195 194.55297852 C-105.11279183 194.81217141 -130.8607886 185.57039617 -153.08203125 167.19921875 C-153.83097656 166.60367187 -154.57992187 166.008125 -155.3515625 165.39453125 C-173.76138715 150.21641152 -185.07961333 127.12487275 -190.08203125 104.19921875 C-190.30761719 103.16796875 -190.53320312 102.13671875 -190.765625 101.07421875 C-196.00960356 72.72056914 -189.51336504 43.27526426 -174.10546875 19.09765625 C-156.20680034 -6.21719349 -131.08872721 -23.95316102 -100.51953125 -29.98828125 C-98.71011967 -30.27903318 -96.89741748 -30.55002286 -95.08203125 -30.80078125 C-94.19644531 -30.92453125 -93.31085938 -31.04828125 -92.3984375 -31.17578125 C-57.42042153 -35.05683711 -26.13428242 -22.60394783 0 0 Z " fill="#000000" transform="translate(779.08203125,1123.80078125)"/>
<path d="M0 0 C15.48043352 13.52238619 25.48976572 29.95746785 28.6796875 50.51953125 C29.7089365 66.73020308 28.18577551 81.75719779 20.9296875 96.45703125 C20.31867188 97.80474609 20.31867188 97.80474609 19.6953125 99.1796875 C10.9576199 117.04055913 -5.91769267 129.37308205 -24.0703125 136.45703125 C-28.0383562 137.71937966 -31.97780795 138.69690782 -36.0703125 139.45703125 C-36.76253906 139.58722656 -37.45476562 139.71742188 -38.16796875 139.8515625 C-58.99556894 143.05909846 -80.20865247 137.50967603 -97.1328125 125.20703125 C-114.41908018 111.77693097 -124.73923368 94.32372673 -128.7578125 72.76953125 C-130.96152881 49.84150413 -125.63033942 28.51883679 -111.0703125 10.45703125 C-83.14598721 -21.94897588 -33.53060707 -27.77153333 0 0 Z " fill="#000000" transform="translate(1005.0703125,962.54296875)"/>
<path d="M0 0 C13.73380248 11.73957911 20.44366419 25.79137067 21.97265625 43.53515625 C22.94334633 59.52826039 17.26392176 73.65743683 7.1640625 85.8125 C6.64328125 86.45832031 6.1225 87.10414063 5.5859375 87.76953125 C-1.42406111 95.61152464 -12.68955097 101.37171914 -22.8359375 103.8125 C-23.57972656 103.99296875 -24.32351563 104.1734375 -25.08984375 104.359375 C-40.90150718 106.96841192 -57.60393623 104.04412879 -70.8359375 94.8125 C-82.93212924 85.43177987 -92.36447698 73.30546816 -94.8359375 57.8125 C-95.82981886 45.89701605 -96.20751693 33.75646557 -90.8359375 22.8125 C-90.41183594 21.88695312 -89.98773437 20.96140625 -89.55078125 20.0078125 C-82.02213389 4.86663314 -69.65977274 -4.78629757 -53.8359375 -10.1875 C-35.50190177 -15.70495276 -15.03796419 -11.59953161 0 0 Z " fill="#000000" transform="translate(797.8359375,884.1875)"/>
</svg>
