<?xml version="1.0" encoding="UTF-8"?>
<svg version="1.1" xmlns="http://www.w3.org/2000/svg" width="2100" height="2100">
<path d="M0 0 C3.85877111 0.00008176 7.71742472 -0.00696693 11.57617188 -0.02050781 C40.29627862 -0.11948638 68.68394477 0.46610717 97.20678711 4.18530273 C100.05369058 4.54568596 102.90142479 4.89889037 105.74975586 5.24780273 C106.43671036 5.33215576 107.12366486 5.41650879 107.83143616 5.50341797 C115.33294432 6.40168531 122.86765296 6.95927428 130.41333008 7.32592773 C137.78619766 7.79873688 142.24390946 9.59742509 147.58178711 14.93530273 C153.19764759 23.04710121 153.87409633 31.89074713 154.37451172 41.52270508 C154.41633292 42.30645193 154.45815413 43.09019878 154.50124264 43.89769554 C154.91948442 52.19203568 155.05735025 60.48355235 155.14819336 68.78686523 C155.16903271 70.44380496 155.19012263 72.10074154 155.21144104 73.75767517 C155.26697248 78.18485705 155.31677166 82.61208306 155.36441803 87.03935623 C155.39472167 89.85061709 155.4260229 92.6618656 155.4574585 95.47311401 C156.32369883 173.7151615 155.56733177 251.94481287 154.83178711 330.18530273 C154.81533268 331.94123623 154.81533268 331.94123623 154.79854584 333.73264313 C154.03069779 415.5711106 154.03069779 415.5711106 153.26928711 452.49780273 C152.87736036 471.57559655 152.72353081 490.64884629 152.70885086 509.73012924 C152.70684226 511.75470903 152.70292019 513.77928664 152.69894409 515.80386353 C152.69295706 519.63156277 152.69357042 523.45916572 152.69897461 527.28686523 C152.70130852 529.12788063 152.70130852 529.12788063 152.70368958 531.00608826 C152.73446304 537.42858749 152.872709 543.83200289 153.16870117 550.24682617 C153.22688019 551.56089447 153.2850592 552.87496277 153.34500122 554.22885132 C153.46295087 556.72575856 153.59569655 559.22202873 153.74606323 561.7171936 C154.10066392 569.07728148 154.05094268 575.23382741 149.18334961 581.20874023 C148.61358398 581.65475586 148.04381836 582.10077148 147.45678711 582.56030273 C146.89217773 583.02178711 146.32756836 583.48327148 145.74584961 583.95874023 C141.84790196 586.45660873 138.13610025 587.40099784 133.58178711 587.93530273 C65.65063214 597.83558317 -2.9395197 627.9860927 -61.16821289 663.18530273 C-62.07941895 663.73186523 -62.990625 664.27842773 -63.92944336 664.84155273 C-82.79824423 676.1825983 -100.71386487 688.78121129 -118.16821289 702.18530273 C-118.76827148 702.64501465 -119.36833008 703.10472656 -119.98657227 703.57836914 C-131.64908865 712.54146448 -142.81829646 722.05019704 -153.69165039 731.95483398 C-155.08453759 733.20931126 -156.48352661 734.45733331 -157.90284729 735.68182373 C-162.610813 739.74467162 -167.09551933 743.96534643 -171.48461914 748.36889648 C-172.14477524 749.02809586 -172.80493134 749.68729523 -173.48509216 750.36647034 C-174.86856795 751.74927108 -176.25080372 753.13331349 -177.63183594 754.51855469 C-179.72552958 756.61760616 -181.82451163 758.71126213 -183.92407227 760.80444336 C-185.2779086 762.15894059 -186.63143464 763.51374805 -187.98461914 764.86889648 C-188.60148087 765.48373398 -189.21834259 766.09857147 -189.85389709 766.73204041 C-194.15484541 771.05580117 -198.19001075 775.56462138 -202.16821289 780.18530273 C-203.21376553 781.37656881 -204.26044475 782.56684822 -205.30883789 783.75561523 C-211.9905814 791.3770287 -218.43962825 799.12349725 -224.6105957 807.16381836 C-226.34481901 809.41450315 -228.09660203 811.65100705 -229.84790039 813.88842773 C-244.27072445 832.43180417 -257.24850248 851.94676466 -269.16821289 872.18530273 C-269.86261475 873.35996094 -269.86261475 873.35996094 -270.57104492 874.55834961 C-315.33241403 950.61788454 -342.58459963 1034.5152325 -355.16821289 1172.18530273 C-355.19157715 1173.08909668 -355.21494141 1173.99289062 -355.23901367 1174.92407227 C-356.67957216 1239.60393779 -346.26318907 1304.50705704 -327.16821289 1366.18530273 C-326.81533203 1367.32918457 -326.46245117 1368.47306641 -326.09887695 1369.65161133 C-317.57804945 1396.95717086 -306.53108853 1423.40739183 -294.16821289 1449.18530273 C-293.70092773 1450.16370117 -293.23364258 1451.14209961 -292.75219727 1452.15014648 C-285.31667057 1467.62489623 -277.04481462 1482.49427891 -268.16821289 1497.18530273 C-267.60424805 1498.12067871 -267.0402832 1499.05605469 -266.45922852 1500.01977539 C-252.13711659 1523.68619204 -236.23914411 1546.15217314 -218.59204102 1567.46166992 C-216.57980816 1569.89760338 -214.59513539 1572.35572749 -212.60571289 1574.81030273 C-204.46884137 1584.71412263 -196.27186828 1594.34996544 -187.05493164 1603.27124023 C-184.83921062 1605.44850723 -182.80395281 1607.73400544 -180.78149414 1610.09155273 C-177.30799597 1614.10472003 -173.57311975 1617.72143086 -169.66821289 1621.31030273 C-168.25797848 1622.61751008 -166.84782418 1623.92480386 -165.43774414 1625.23217773 C-164.72827637 1625.88766602 -164.01880859 1626.5431543 -163.2878418 1627.21850586 C-161.24081126 1629.11793894 -159.20792858 1631.03120478 -157.17993164 1632.95092773 C-150.06540955 1639.67615615 -142.82595923 1646.0775828 -135.16821289 1652.18530273 C-133.96601427 1653.17676141 -132.76561222 1654.17040103 -131.56665039 1655.16577148 C-122.44114127 1662.71697011 -113.04584225 1669.77761614 -103.37670898 1676.61645508 C-101.27220101 1678.11143277 -99.18149631 1679.62373573 -97.09399414 1681.14233398 C-18.62688873 1737.90011189 76.54502078 1773.99736126 206.83178711 1790.18530273 C207.93989746 1790.28842773 209.04800781 1790.39155273 210.18969727 1790.49780273 C223.74438609 1791.59550711 237.36733966 1791.43124042 250.95678711 1791.43530273 C251.63393517 1791.43574459 252.31108322 1791.43618645 253.00875092 1791.43664169 C275.40250873 1791.44429241 297.58473429 1790.89807453 319.83178711 1788.18530273 C320.55422607 1788.0980896 321.27666504 1788.01087646 322.02099609 1787.92102051 C377.56100021 1781.1525194 432.21375011 1767.96632413 483.83178711 1746.18530273 C485.42071777 1745.5148291 485.42071777 1745.5148291 487.04174805 1744.83081055 C539.01843706 1722.71882861 587.79504772 1694.66824333 631.83178711 1659.18530273 C632.76120117 1658.43893555 633.69061523 1657.69256836 634.64819336 1656.92358398 C648.33729947 1645.82484729 661.87402247 1634.37417021 674.21069336 1621.77124023 C675.91288413 1620.10596445 677.69475218 1618.5900764 679.51928711 1617.06030273 C684.42168904 1612.84461859 688.66052425 1608.0420237 693.00366211 1603.26733398 C695.15745909 1600.9037054 697.35951042 1598.61126638 699.64428711 1596.37280273 C703.25111192 1592.81775053 706.53672613 1589.0285024 709.83178711 1585.18530273 C710.7389425 1584.14198893 711.64652792 1583.09904894 712.55444336 1582.05639648 C719.03144679 1574.59348465 725.29805069 1567.00177611 731.31420898 1559.16235352 C732.36687214 1557.79097863 733.42311637 1556.42234803 734.48217773 1555.0559082 C757.2103575 1525.67635596 776.59893566 1494.06236093 793.83178711 1461.18530273 C794.52667236 1459.87142578 794.52667236 1459.87142578 795.2355957 1458.53100586 C827.00019032 1398.17713389 845.29576925 1332.06429075 855.63693237 1264.93566895 C855.8098186 1263.81474916 855.8098186 1263.81474916 855.98619747 1262.67118454 C856.26821202 1260.8425806 856.55002054 1259.0139449 856.83178711 1257.18530273 C855.74687706 1257.18591427 855.74687706 1257.18591427 854.64004964 1257.18653816 C803.30796296 1257.21394859 751.97652765 1257.13688304 700.64461139 1257.00903001 C695.62878387 1256.99658028 690.61295587 1256.98433034 685.59712791 1256.97205925 C668.72854215 1256.93072693 651.85995742 1256.88900656 634.99137592 1256.84596348 C633.92659885 1256.84324743 632.86182179 1256.84053138 631.76477874 1256.83773303 C630.69868525 1256.83501354 629.63259175 1256.83229405 628.53419238 1256.82949215 C626.37696159 1256.82399008 624.2197308 1256.81848879 622.0625 1256.81298828 C620.99263362 1256.81025998 619.92276724 1256.80753167 618.82048067 1256.80472069 C603.80576479 1256.76649634 588.79104558 1256.73010168 573.77632128 1256.69534938 C527.34286448 1256.58785259 480.9094961 1256.46795353 434.4761982 1256.30446815 C433.0195986 1256.29934402 433.0195986 1256.29934402 431.53357276 1256.29411637 C423.34152666 1256.26528572 423.34152666 1256.26528572 419.86273329 1256.25297068 C405.75882572 1256.20319462 391.65491422 1256.16249781 377.55096436 1256.12689209 C362.09926148 1256.08778816 346.64768221 1256.03461564 331.19610065 1255.96158522 C322.67341254 1255.9216562 314.15085087 1255.89238009 305.62807919 1255.8787231 C299.96560637 1255.86853521 294.3033162 1255.84394664 288.64095227 1255.80741762 C285.42815358 1255.78707681 282.21572205 1255.77510827 279.00284934 1255.77629352 C275.55479296 1255.77657221 272.10773935 1255.75255739 268.65983582 1255.72227478 C267.66870027 1255.72818762 266.67756473 1255.73410046 265.65639478 1255.74019247 C257.96040247 1255.63080907 252.52533255 1253.94006511 247.08178711 1248.37280273 C242.71272934 1242.18330423 239.72374537 1237.05792778 239.68461609 1229.35430908 C239.67388313 1227.89934021 239.67388313 1227.89934021 239.66293335 1226.41497803 C239.65889999 1224.82837372 239.65889999 1224.82837372 239.65478516 1223.2097168 C239.64821396 1222.09056885 239.64164276 1220.9714209 239.63487244 1219.81835938 C239.61515224 1216.11254815 239.60348003 1212.40677741 239.59350586 1208.70092773 C239.58943033 1207.434804 239.5853548 1206.16868027 239.58115578 1204.86418915 C239.56245054 1198.85420193 239.54788314 1192.84423921 239.53954381 1186.83423066 C239.52977711 1179.91106438 239.50346756 1172.98821831 239.46304291 1166.0651648 C239.42917358 1160.05731895 239.41739311 1154.04962785 239.41333961 1148.04167938 C239.40847041 1145.49163389 239.39684702 1142.9415919 239.37830162 1140.39160919 C239.35394142 1136.8203028 239.35487003 1133.24983093 239.36181641 1129.6784668 C239.34900635 1128.62882751 239.33619629 1127.57918823 239.32299805 1126.4977417 C239.37203995 1119.56743401 240.39901157 1113.88317415 245.24376965 1108.66427994 C249.84368914 1104.58160879 254.12456532 1102.937295 260.20541066 1102.92819238 C261.81596545 1102.9185317 261.81596545 1102.9185317 263.45905671 1102.90867585 C264.63509182 1102.91175384 265.81112694 1102.91483182 267.02279949 1102.91800308 C268.2800344 1102.91340783 269.5372693 1102.90881257 270.83260223 1102.90407807 C274.33540475 1102.89156225 277.83811506 1102.89150993 281.34093536 1102.89342842 C285.14686206 1102.8933315 288.95275612 1102.88171114 292.75866681 1102.87154269 C299.43350022 1102.85531683 306.10831158 1102.84654016 312.78316307 1102.84259987 C322.70899817 1102.83672014 332.63479074 1102.81948375 342.56060725 1102.79997949 C360.28726442 1102.76553315 378.01392274 1102.74252913 395.74060325 1102.72435264 C411.25641506 1102.70841922 426.77221668 1102.68880052 442.28801918 1102.6654892 C443.31627989 1102.66395008 444.3445406 1102.66241096 445.40396073 1102.66082521 C449.57781364 1102.65457533 453.75166653 1102.64831158 457.92551938 1102.64202484 C497.10397964 1102.58308799 536.28244649 1102.53580743 575.46092805 1102.49370661 C610.27670459 1102.45622102 645.09245247 1102.40837974 679.90820312 1102.35180664 C719.00638321 1102.28831051 758.10456387 1102.2313238 797.20276815 1102.18481803 C801.37067085 1102.17984279 805.53857354 1102.17485147 809.70647621 1102.16985321 C810.73275029 1102.16862821 811.75902436 1102.16740322 812.81639765 1102.1661411 C828.31985365 1102.14752076 843.82329697 1102.12392024 859.32674217 1102.09790802 C876.95732178 1102.0683551 894.58789419 1102.04598098 912.2184942 1102.03310379 C922.0878288 1102.02569319 931.95711934 1102.01274064 941.82643475 1101.99181932 C948.41763039 1101.97840601 955.00880654 1101.97230566 961.60001576 1101.97217122 C965.35634711 1101.97189098 969.11260144 1101.96844498 972.86891427 1101.95613363 C976.91651173 1101.94294708 980.96395202 1101.94533743 985.01156902 1101.94923782 C986.75806296 1101.93980781 986.75806296 1101.93980781 988.5398396 1101.93018728 C998.04585737 1101.96146168 1007.74548586 1102.08015494 1014.83178711 1109.18530273 C1018.71446676 1113.93211535 1019.88309465 1119.12075131 1019.83178711 1125.18530273 C1019.65760254 1126.03294189 1019.48341797 1126.88058105 1019.30395508 1127.75390625 C1018.71228418 1132.05376895 1018.97652211 1136.07801963 1019.25756836 1140.39624023 C1019.97227461 1153.20066867 1020.0312354 1165.98867714 1020.01928711 1178.81030273 C1020.01868286 1180.01595886 1020.01807861 1181.22161499 1020.01745605 1182.46380615 C1019.99041047 1202.43433326 1019.57780156 1222.28781954 1017.83178711 1242.18530273 C1017.76862305 1242.90796326 1017.70545898 1243.63062378 1017.64038086 1244.37518311 C1010.64285337 1323.23671759 991.77832134 1400.67115969 943.83178711 1513.18530273 C943.2984375 1514.2890625 942.76508789 1515.39282227 942.21557617 1516.5300293 C934.66381746 1532.09164138 926.51459667 1547.22838904 917.83178711 1562.18530273 C916.98250793 1563.66428521 916.13352846 1565.14343984 915.28491211 1566.62280273 C887.99547535 1613.90050646 854.92451933 1658.21098314 817.68725586 1698.11108398 C815.91762408 1700.00791725 814.17507095 1701.91940606 812.44506836 1703.85327148 C805.91652352 1711.13874906 799.05112381 1718.07449039 792.14428711 1724.99780273 C791.6467392 1725.49793884 791.14919128 1725.99807495 790.63656616 1726.5133667 C785.44922544 1731.72196745 780.22570951 1736.83868644 774.63964844 1741.62255859 C771.68248251 1744.17877995 768.8622316 1746.87865133 766.01928711 1749.56030273 C761.02633427 1754.23214174 755.92609954 1758.68330588 750.58569336 1762.95874023 C748.12042779 1764.95193367 745.70686909 1766.99457551 743.30444336 1769.06274414 C735.79473499 1775.51439152 727.98870439 1781.52960029 720.07983398 1787.48168945 C717.89459054 1789.13770909 715.72884638 1790.8163784 713.56616211 1792.50170898 C655.98447875 1837.00526149 590.04996751 1872.13027569 521.83178711 1897.18530273 C520.58129824 1897.65035853 519.33097778 1898.11586738 518.08081055 1898.58178711 C447.89131666 1924.67139924 374.41240726 1938.92754026 299.83178711 1944.18530273 C298.79779785 1944.2587793 297.76380859 1944.33225586 296.69848633 1944.40795898 C215.01776528 1949.86980339 131.57696789 1939.88539389 -113.58325195 1851.65209961 C-116.35932099 1850.07686134 -119.14924428 1848.5282557 -121.94165039 1846.98217773 C-150.12600366 1831.31695882 -177.33310093 1813.48770688 -203.16821289 1794.18530273 C-203.74635742 1793.7534668 -204.32450195 1793.32163086 -204.92016602 1792.87670898 C-213.57493223 1786.37804242 -221.95762849 1779.54227582 -230.33032227 1772.68676758 C-231.97476852 1771.34333713 -233.62575241 1770.00791842 -235.27758789 1768.67358398 C-240.60839264 1764.35924624 -245.77313583 1759.91178577 -250.84399414 1755.29467773 C-252.88863624 1753.43903617 -254.95605438 1751.61773897 -257.04321289 1749.81030273 C-268.29879549 1739.96314275 -278.93837918 1729.57271257 -289.49707031 1718.98681641 C-291.98983284 1716.48866306 -294.48793764 1713.99594075 -296.98657227 1711.50366211 C-298.59561717 1709.89395682 -300.20435207 1708.28394158 -301.81274414 1706.67358398 C-302.54830032 1705.94005203 -303.28385651 1705.20652008 -304.04170227 1704.45075989 C-308.61744107 1699.85446039 -312.93954863 1695.1009802 -317.16821289 1690.18530273 C-318.62266806 1688.57761901 -320.08042184 1686.97290559 -321.54321289 1685.37280273 C-325.36418427 1681.13441431 -329.0106862 1676.7865117 -332.59790039 1672.34936523 C-334.5200175 1669.97245463 -336.46786558 1667.6185433 -338.42602539 1665.27124023 C-346.32118999 1655.79308524 -353.87702422 1646.1343163 -361.16821289 1636.18530273 C-361.67143066 1635.5045166 -362.17464844 1634.82373047 -362.69311523 1634.12231445 C-377.1910931 1614.49772734 -390.6308414 1594.11423642 -403.16821289 1573.18530273 C-403.74361816 1572.22527344 -404.31902344 1571.26524414 -404.91186523 1570.27612305 C-448.93934667 1496.36730346 -479.88820837 1415.00634685 -507.41821289 1264.18530273 C-507.56943604 1262.91372314 -507.72065918 1261.64214355 -507.87646484 1260.33203125 C-510.74369708 1234.49132329 -511.54649653 1208.72034749 -511.4862709 1182.7473793 C-511.48061803 1180.26870916 -511.47780545 1177.79004589 -511.47518921 1175.31137085 C-511.43882644 1151.59890927 -511.08793713 1128.02560929 -508.42144775 1104.43859863 C-508.15498587 1102.06760806 -507.90086014 1099.69549627 -507.64819336 1097.32299805 C-499.09795979 1017.90433353 -478.54414954 940.20822355 -414.16821289 804.18530273 C-413.56879883 803.12263184 -412.96938477 802.05996094 -412.35180664 800.96508789 C-400.90024048 780.73109586 -388.3000238 761.3646947 -375.16821289 742.18530273 C-374.52948242 741.25137695 -373.89075195 740.31745117 -373.23266602 739.35522461 C-362.43979698 723.65078156 -350.71374792 708.67727971 -338.62133789 693.95874023 C-337.2966436 692.34204344 -335.98188329 690.71721985 -334.66821289 689.09155273 C-330.34731577 683.75044379 -325.89231609 678.57657811 -321.26586914 673.49780273 C-319.47313843 671.52145901 -317.72026062 669.52073543 -315.98071289 667.49780273 C-306.03013033 656.10740103 -295.44260836 645.29411077 -284.73413086 634.62084961 C-282.76956088 632.66171618 -280.81049841 630.6971863 -278.85180664 628.73217773 C-272.79164497 622.66881552 -266.71481103 616.72750226 -260.16821289 611.18530273 C-258.39251068 609.56562457 -256.62112982 607.94118555 -254.85571289 606.31030273 C-250.36673232 602.21650065 -245.75577813 598.33060606 -241.02758789 594.51733398 C-238.53023864 592.48056144 -236.07608627 590.40215574 -233.63330078 588.30053711 C-226.09182607 581.82549848 -218.25304381 575.78258895 -210.31469727 569.80395508 C-208.2349154 568.23560274 -206.16186591 566.65873742 -204.09008789 565.07983398 C-181.50950951 547.92632371 -157.63696428 532.49638901 -133.16821289 518.18530273 C-132.36303223 517.71060547 -131.55785156 517.2359082 -130.72827148 516.74682617 C-99.66674171 498.4695226 -67.2367451 482.73260184 -33.85571289 469.18530273 C-33.09387695 468.87560547 -32.33204102 468.5659082 -31.54711914 468.24682617 C-23.3196285 464.91376562 -15.05185105 461.72291271 -6.68774414 458.74780273 C-5.96189621 458.48854004 -5.23604828 458.22927734 -4.48820496 457.9621582 C0.58327486 456.18530273 0.58327486 456.18530273 2.83178711 456.18530273 C2.81607666 454.95610107 2.80036621 453.72689941 2.78417969 452.46044922 C2.43122732 421.50899852 3.01981901 390.65959214 4.11791992 359.72924805 C5.30923831 326.1305325 6.14543431 292.56679869 6.14364624 258.94503784 C6.14427348 256.18282926 6.14873081 253.42065035 6.15405273 250.65844727 C6.19058178 226.11273379 5.45141843 201.67888706 3.83178711 177.18530273 C3.75989166 175.96527557 3.68799622 174.74524841 3.61392212 173.48825073 C3.54055634 172.39433014 3.46719055 171.30040955 3.39160156 170.17333984 C3.30130424 168.75280556 3.30130424 168.75280556 3.20918274 167.30357361 C3.08464218 166.60454422 2.96010162 165.90551483 2.83178711 165.18530273 C0.18764014 163.86322925 -1.76433544 164.0797446 -4.72509766 164.10351562 C-6.47446373 164.113312 -6.47446373 164.113312 -8.25917053 164.12330627 C-10.16514259 164.14045937 -10.16514259 164.14045937 -12.10961914 164.15795898 C-14.11384182 164.16737499 -16.11806466 164.17677787 -18.12229061 164.18546963 C-23.05945631 164.20830603 -27.99653817 164.24137699 -32.93359375 164.28125 C-78.4107667 164.63559228 -78.4107667 164.63559228 -87.91821289 155.56030273 C-93.8415552 147.67585385 -95.32832737 138.35968908 -95.19555664 128.74780273 C-95.18123987 127.22404564 -95.16760398 125.70028203 -95.15454102 124.17651367 C-95.14624268 123.36661987 -95.13794434 122.55672607 -95.12939453 121.72229004 C-94.94057218 101.4939654 -95.59717573 81.32705462 -96.45703125 61.11889648 C-96.88033677 51.06309018 -97.26991466 41.01243616 -97.34008789 30.94702148 C-97.35096436 30.1417804 -97.36184082 29.33653931 -97.37304688 28.50689697 C-97.37630782 22.4374613 -96.37401368 17.4352204 -93.16821289 12.18530273 C-92.61133789 11.25717773 -92.05446289 10.32905273 -91.48071289 9.37280273 C-84.9463797 3.19167675 -78.05311451 1.12623478 -69.26367188 0.87548828 C-68.57126719 0.85516603 -67.8788625 0.83484379 -67.16547585 0.81390572 C-64.85269997 0.74847857 -62.53982074 0.69086636 -60.22680664 0.63452148 C-59.41853361 0.61370703 -58.61026058 0.59289257 -57.77749443 0.57144737 C-38.52006859 0.08226719 -19.26279616 -0.00213407 0 0 Z M-35.11743164 41.63061523 C-36.21779251 41.6693576 -37.31815338 41.70809998 -38.45185852 41.74801636 C-44.07919921 41.97358365 -49.5927334 42.38623033 -55.16821289 43.18530273 C-55.14315674 44.01513672 -55.11810059 44.8449707 -55.09228516 45.69995117 C-54.32875549 71.19249263 -53.72395139 96.68744838 -53.16821289 122.18530273 C-51.87061287 122.1941021 -51.87061287 122.1941021 -50.54679871 122.20307922 C-42.35315567 122.26123115 -34.15977872 122.33343485 -25.96639538 122.42101765 C-21.75512329 122.46554911 -17.54394411 122.504842 -13.33251953 122.53173828 C-9.26041259 122.55794465 -5.18866657 122.59846616 -1.11678505 122.648489 C0.42871259 122.66504151 1.97427248 122.67662751 3.51984596 122.68291664 C23.31948394 122.77155566 23.31948394 122.77155566 31.82788086 128.04077148 C55.6039831 153.48537213 48.09197102 210.00780381 47.83178711 242.18530273 C47.81888641 243.86970459 47.81888641 243.86970459 47.8057251 245.58813477 C47.54884286 278.10797714 46.96447576 310.61432525 46.06225586 343.12280273 C46.01037267 345.00144957 46.01037267 345.00144957 45.95744133 346.91804886 C45.6083741 359.53599178 45.25126763 372.15363109 44.86988163 384.77064133 C44.72706718 389.53640712 44.59011701 394.30233131 44.45420265 399.06829834 C44.38935222 401.28971654 44.32177378 403.51105717 44.25116539 405.7322998 C43.74303909 421.73740849 43.78605747 437.53132088 45.89428711 453.43530273 C48.63364889 476.67141617 48.63364889 476.67141617 42.83178711 484.18530273 C37.82733424 489.32876819 31.28125172 490.8775127 24.49975586 492.43139648 C17.0251109 494.28429981 9.88915066 496.9446186 2.70678711 499.68530273 C2.01170044 499.94852325 1.31661377 500.21174377 0.60046387 500.48294067 C-40.31417074 515.98763621 -79.62289623 534.71636096 -117.16821289 557.18530273 C-118.15096191 557.76957031 -119.13371094 558.35383789 -120.14624023 558.95581055 C-133.4921955 566.89977932 -146.49455825 575.20644141 -159.16821289 584.18530273 C-160.33441162 585.01143066 -160.33441162 585.01143066 -161.52416992 585.85424805 C-171.2357198 592.75872523 -180.78222876 599.84483195 -190.16821289 607.18530273 C-191.30723937 608.06589464 -192.44657045 608.94609266 -193.58618164 609.82592773 C-202.00932543 616.35486051 -210.13406028 623.18517042 -218.16821289 630.18530273 C-218.92875977 630.84401367 -219.68930664 631.50272461 -220.47290039 632.18139648 C-234.51540761 644.39104633 -248.16708425 657.00571045 -261.30004883 670.18676758 C-263.05964769 671.95178817 -264.82461686 673.71131406 -266.59008789 675.47045898 C-272.33164773 681.20864742 -277.90442171 687.0004857 -283.16821289 693.18530273 C-284.78789106 694.96100494 -286.41233007 696.73238581 -288.04321289 698.49780273 C-292.13578724 702.98543706 -296.02092123 707.59460501 -299.83227539 712.32202148 C-301.88556446 714.83884571 -303.98291103 717.30993952 -306.10327148 719.77026367 C-312.27010543 726.94486453 -317.96819492 734.41270747 -323.57495117 742.0300293 C-325.19677371 744.22393818 -326.83508857 746.40468904 -328.47680664 748.58374023 C-348.12298589 774.77489735 -365.34771977 802.54674585 -381.16821289 831.18530273 C-381.73685059 832.2075293 -382.30548828 833.22975586 -382.89135742 834.28295898 C-414.06266259 890.44872682 -436.05521227 950.85702637 -451.16821289 1013.18530273 C-451.5675 1014.80251221 -451.5675 1014.80251221 -451.97485352 1016.45239258 C-460.20697919 1050.07385268 -465.17197065 1084.71908856 -468.16821289 1119.18530273 C-468.22773132 1119.86802246 -468.28724976 1120.55074219 -468.34857178 1121.25415039 C-471.68141533 1160.27439778 -471.72615013 1200.18818355 -468.16821289 1239.18530273 C-468.10504883 1239.87767029 -468.04188477 1240.57003784 -467.97680664 1241.28338623 C-460.60777958 1321.08064767 -440.79503564 1398.49118977 -377.58764648 1533.72973633 C-375.9297554 1536.59782517 -374.32551616 1539.49282263 -372.72705078 1542.39428711 C-363.20569031 1559.62362466 -352.45954249 1576.07358824 -341.16821289 1592.18530273 C-340.74507812 1592.7935791 -340.32194336 1593.40185547 -339.88598633 1594.02856445 C-328.08433109 1610.97836611 -315.36100668 1627.30036662 -302.16821289 1643.18530273 C-301.6904541 1643.7621582 -301.21269531 1644.33901367 -300.72045898 1644.93334961 C-294.58495758 1652.32388803 -288.24059052 1659.479132 -281.69824219 1666.51171875 C-280.59488674 1667.71859629 -279.50701689 1668.93969553 -278.42919922 1670.16943359 C-271.41540895 1678.13110174 -263.91292163 1685.5918792 -256.40234375 1693.08154297 C-254.1037408 1695.37477022 -251.81055259 1697.67331513 -249.51782227 1699.97241211 C-248.03572102 1701.45385274 -246.55330969 1702.93498323 -245.07055664 1704.41577148 C-244.39637192 1705.09198044 -243.72218719 1705.76818939 -243.02757263 1706.46488953 C-239.107629 1710.36585419 -235.08244532 1714.08914167 -230.89254761 1717.69908142 C-228.67465616 1719.61070421 -226.51668798 1721.58477034 -224.35571289 1723.56030273 C-220.089407 1727.40580455 -215.71651989 1731.0826154 -211.25024414 1734.69311523 C-209.0290192 1736.48923882 -206.81920912 1738.29538809 -204.61743164 1740.11499023 C-130.63795703 1801.0654418 -44.41440206 1845.57448376 202.83178711 1902.18530273 C204.07178467 1902.27956543 205.31178223 1902.37382813 206.58935547 1902.47094727 C222.20430145 1903.55629051 237.87443635 1903.43110322 253.51928711 1903.43530273 C254.27413643 1903.43574459 255.02898575 1903.43618645 255.80670929 1903.43664169 C279.93111513 1903.44403434 303.84386443 1902.95910639 327.83178711 1900.18530273 C328.60238464 1900.0980896 329.37298218 1900.01087646 330.16693115 1899.92102051 C342.08873127 1898.56771374 353.96880015 1896.98154001 365.83178711 1895.18530273 C366.54663269 1895.0772229 367.26147827 1894.96914307 367.99798584 1894.85778809 C435.25410512 1884.59520019 500.11864562 1863.5619018 561.83178711 1835.18530273 C562.83822266 1834.72269043 563.8446582 1834.26007813 564.8815918 1833.78344727 C579.19413373 1827.16301531 593.10084816 1819.93627208 606.83178711 1812.18530273 C607.89397461 1811.58637207 608.95616211 1810.98744141 610.05053711 1810.37036133 C622.97126703 1803.05905461 635.74348226 1795.60108309 648.08862305 1787.34936523 C649.69741067 1786.27503759 651.31500341 1785.21392682 652.93334961 1784.15405273 C669.08869162 1773.52897605 684.53489162 1762.00193562 699.83178711 1750.18530273 C700.5143457 1749.6601709 701.1969043 1749.13503906 701.90014648 1748.59399414 C713.46963167 1739.68309273 724.55939532 1730.24979052 735.35522461 1720.41577148 C737.42610115 1718.55067605 739.51732271 1716.71632185 741.62084961 1714.88842773 C751.92503676 1705.88636533 761.76508159 1696.3392216 771.45678711 1686.68530273 C772.09487305 1686.05180908 772.73295898 1685.41831543 773.39038086 1684.765625 C777.16929819 1680.97427702 780.7519069 1677.06431618 784.23022461 1672.99511719 C785.81826866 1671.20057899 787.47866206 1669.53183455 789.20678711 1667.87280273 C792.97318805 1664.17365895 796.21371684 1660.10743063 799.51928711 1655.99780273 C801.67528446 1653.37564379 803.90745813 1650.86921705 806.20678711 1648.37280273 C811.26573218 1642.81323289 815.84179914 1636.91903762 820.43774414 1630.9777832 C821.77538921 1629.25781996 823.12637633 1627.54957433 824.48413086 1625.84545898 C837.46047691 1609.54307181 849.48569213 1592.65962778 860.83178711 1575.18530273 C861.60087402 1574.00266846 861.60087402 1574.00266846 862.38549805 1572.79614258 C894.62789941 1523.00607125 920.95677807 1469.43474754 939.83178711 1413.18530273 C940.23558594 1412.00081543 940.63938477 1410.81632812 941.05541992 1409.59594727 C958.52615798 1358.17097278 969.36766926 1305.08873477 975.08178711 1251.12280273 C975.16505249 1250.337099 975.24831787 1249.55139526 975.33410645 1248.74188232 C977.04974092 1232.35709867 977.98674696 1216.12207464 977.92944336 1199.65405273 C977.92757163 1198.04024297 977.92615131 1196.42643262 977.92515564 1194.81262207 C977.92138975 1190.62394563 977.91161231 1186.43530546 977.90045166 1182.24664307 C977.89010789 1177.94885753 977.88563063 1173.65106596 977.88061523 1169.35327148 C977.86998289 1160.96393217 977.85298051 1152.574622 977.83178711 1144.18530273 C917.3735511 1144.16812764 856.91531482 1144.15223319 796.45707703 1144.14295959 C795.11047531 1144.14275251 795.11047531 1144.14275251 793.73666952 1144.14254124 C774.21685706 1144.1395469 754.69704457 1144.13677693 735.17723205 1144.1342374 C725.60187865 1144.13299029 716.02652526 1144.13169371 706.45117188 1144.13037109 C705.02203371 1144.13017496 705.02203371 1144.13017496 703.56402406 1144.12997485 C672.79631976 1144.1257291 642.02861731 1144.1182296 611.26091413 1144.10900551 C579.58884459 1144.09952776 547.91677607 1144.0934069 516.24470513 1144.09138774 C511.75017988 1144.09109968 507.25565463 1144.09077404 502.76112938 1144.09042549 C501.87672019 1144.09035807 500.992311 1144.09029065 500.08110153 1144.09022118 C485.96182294 1144.08904887 471.84254755 1144.08443664 457.72327026 1144.0784707 C443.45763091 1144.07251878 429.19199469 1144.07035063 414.92635415 1144.07180136 C407.2257966 1144.07248543 399.52524757 1144.07166088 391.82469177 1144.06609726 C355.48327824 1144.04079753 319.16454852 1144.33258246 282.83178711 1145.18530273 C282.81746911 1145.78764079 282.8031511 1146.38997885 282.78839922 1147.01056957 C282.72284842 1149.76762638 282.65726189 1152.52468234 282.5916748 1155.28173828 C282.55789167 1156.70298634 282.55789167 1156.70298634 282.52342606 1158.15294647 C282.40850488 1162.98278531 282.29229539 1167.81258652 282.17358398 1172.64233398 C282.13234915 1174.42748518 282.0913217 1176.21264119 282.05053711 1177.99780273 C282.02894531 1178.84665039 282.00735352 1179.69549805 281.98510742 1180.57006836 C281.82129315 1187.91830867 281.82085027 1195.26394768 281.8260498 1202.61376953 C281.82667105 1204.28440586 281.82667105 1204.28440586 281.82730484 1205.98879242 C281.82838059 1208.720963 281.82988672 1211.45313262 281.83178711 1214.18530273 C283.08102366 1214.18839551 284.33026022 1214.19148829 285.61735243 1214.19467479 C340.6679444 1214.33116071 395.71852607 1214.47132757 450.76905823 1214.6302948 C451.60238034 1214.6327001 452.43570245 1214.63510541 453.29427675 1214.6375836 C471.40422086 1214.68987831 489.51416297 1214.7428342 507.62410315 1214.79647129 C516.50509836 1214.82277054 525.38609399 1214.84892366 534.26708984 1214.875 C535.15085989 1214.87759741 536.03462993 1214.88019482 536.94518088 1214.88287093 C565.59532599 1214.96700547 594.24548631 1215.0414895 622.89567038 1215.11097377 C652.33525601 1215.18242348 681.77479916 1215.26359965 711.21432363 1215.35702996 C715.37159674 1215.37021909 719.5288702 1215.38329693 723.68614388 1215.39630699 C724.50436215 1215.39887102 725.32258043 1215.40143506 726.1655932 1215.40407679 C739.34139741 1215.4450792 752.51720657 1215.47581561 765.69304627 1215.50272132 C778.93633742 1215.52998355 792.1795626 1215.56804131 805.42279112 1215.61713818 C813.29269325 1215.64598581 821.16251551 1215.66653647 829.03246625 1215.67523395 C834.90689444 1215.68263742 840.78119558 1215.70552831 846.65555943 1215.73447045 C849.03388569 1215.74376276 851.41223804 1215.74800717 853.79058211 1215.74674354 C857.02023826 1215.74575989 860.24930263 1215.76305633 863.47887325 1215.78492451 C864.40500263 1215.78025216 865.33113201 1215.77557981 866.28532591 1215.77076587 C878.15651451 1215.90205699 886.11525938 1220.56655546 895.05444336 1228.04467773 C898.37145574 1231.44741807 899.78808013 1233.97637595 899.96240234 1238.7980957 C899.8726675 1240.17582031 899.76427295 1241.55241635 899.64038086 1242.92749023 C899.55598251 1244.04531891 899.55598251 1244.04531891 899.46987915 1245.18572998 C898.8186178 1253.30131729 897.82244447 1261.3721378 896.70678711 1269.43530273 C896.59885834 1270.22221497 896.49092957 1271.0091272 896.37973022 1271.81988525 C887.15664881 1338.5193326 868.3109298 1403.56606143 838.83178711 1464.18530273 C838.47455566 1464.92474121 838.11732422 1465.66417969 837.74926758 1466.42602539 C835.87241645 1470.29615761 833.94268267 1474.13586322 831.97338867 1477.9597168 C830.63019179 1480.57831875 829.30643919 1483.20649785 827.98022461 1485.83374023 C801.52082478 1537.88124559 766.70446081 1585.83193546 726.64477539 1628.2590332 C724.78127339 1630.23897271 722.92813423 1632.22813688 721.07788086 1634.22045898 C720.46090332 1634.88440674 719.84392578 1635.54835449 719.20825195 1636.23242188 C718.04249605 1637.48745302 716.87740092 1638.74309844 715.71313477 1639.99951172 C710.16527137 1645.95934517 704.49395968 1651.66752614 698.32006836 1656.97827148 C695.6566422 1659.34065105 693.06722694 1661.7703262 690.4777832 1664.21313477 C684.66451908 1669.69595156 678.80401824 1675.00137523 672.55444336 1679.98999023 C670.07971919 1681.98539194 667.6625281 1684.03577896 665.25537109 1686.11181641 C658.06636182 1692.29639068 650.58882306 1698.02685768 642.9440918 1703.63500977 C641.53864862 1704.66651279 640.13563628 1705.70133629 638.73510742 1706.73950195 C614.35635122 1724.80680649 588.53188118 1740.79037501 561.83178711 1755.18530273 C560.99405762 1755.6384082 560.15632813 1756.09151367 559.29321289 1756.55834961 C488.64022245 1794.5912313 412.17104521 1818.04213106 293.83178711 1832.18530273 C292.27548584 1832.29116699 292.27548584 1832.29116699 290.68774414 1832.39916992 C225.32302858 1836.58339727 159.34724877 1829.7450158 95.83178711 1814.18530273 C94.6178125 1813.88930176 93.40383789 1813.59330078 92.15307617 1813.28833008 C0.62838288 1790.66987784 -86.78569545 1746.57465306 -159.16821289 1686.18530273 C-159.75860352 1685.69400879 -160.34899414 1685.20271484 -160.95727539 1684.6965332 C-167.38483796 1679.33722865 -173.7025632 1673.87109582 -179.89477539 1668.23999023 C-182.02366598 1666.31594135 -184.18240431 1664.43384461 -186.35571289 1662.56030273 C-189.51234411 1659.81485595 -192.45675298 1656.91878919 -195.38696289 1653.93530273 C-197.25210964 1652.10287786 -199.18749035 1650.39177139 -201.16821289 1648.68530273 C-207.02673026 1643.61695149 -212.23550828 1638.15198657 -217.28540039 1632.28686523 C-219.33543563 1629.99865163 -221.48116381 1627.84269691 -223.66821289 1625.68530273 C-227.71713878 1621.67713784 -231.4624624 1617.50867831 -235.16821289 1613.18530273 C-236.14633565 1612.06980319 -237.12560659 1610.95530989 -238.10571289 1609.84155273 C-245.42333982 1601.50508529 -252.44165996 1593.00484931 -259.16821289 1584.18530273 C-259.73266113 1583.44683105 -260.29710937 1582.70835938 -260.87866211 1581.94750977 C-318.59407674 1506.23965198 -360.43047924 1419.26106703 -395.16821289 1230.18530273 C-395.29631348 1228.39515747 -395.29631348 1228.39515747 -395.42700195 1226.56884766 C-401.24623259 1139.34349914 -389.08094034 1051.68432617 -358.16821289 963.18530273 C-357.55115479 961.44144287 -357.55115479 961.44144287 -356.92163086 959.66235352 C-326.61593393 874.90051129 -276.40208182 793.41640765 -212.05102539 730.10327148 C-210.45623649 728.47870437 -209.01770364 726.8416553 -207.60571289 725.06030273 C-205.09474624 722.09864977 -202.42072514 719.74451599 -199.47290039 717.23608398 C-196.76193803 714.82378697 -194.21371131 712.26884589 -191.66821289 709.68530273 C-187.3309654 705.30168725 -182.8704025 701.17282449 -178.16821289 697.18530273 C-177.15313989 696.30726288 -176.13888751 695.42827387 -175.12524414 694.54858398 C-137.81201623 662.23598673 -97.50821731 634.79595691 -54.16821289 611.18530273 C-53.31050293 610.71318359 -52.45279297 610.24106445 -51.5690918 609.75463867 C-24.24301021 594.7573692 4.52563699 582.70837702 33.83178711 572.18530273 C34.51007568 571.94144836 35.18836426 571.69759399 35.88720703 571.4463501 C56.65258062 564.0094286 77.70028462 558.03013247 99.0874939 552.65579224 C103.36083017 551.57932802 107.59697844 550.40364788 111.83178711 549.18530273 C111.82734589 547.90558594 111.82290466 546.62586914 111.81832886 545.30737305 C111.77594407 532.62752728 111.74686757 519.9476947 111.72816277 507.26779175 C111.7182939 500.76468217 111.70490639 494.26162212 111.6809082 487.75854492 C111.57925539 459.37418272 111.71373444 431.00488969 112.27929688 402.62548828 C112.30089697 401.53956292 112.32249707 400.45363756 112.34475172 399.33480537 C112.43487754 394.81785564 112.52560536 390.30091821 112.61664194 385.78398675 C113.88553955 322.7927595 114.11342362 259.82979698 114.03498235 196.82919024 C114.0216724 186.06418258 114.01648106 175.29919534 114.01708984 164.53417969 C114.01714978 163.45129728 114.01714978 163.45129728 114.01721092 162.34653846 C114.01725128 161.62555092 114.01729163 160.90456338 114.01733321 160.16172773 C114.01802309 146.80446581 114.01217397 133.44721375 114.00317999 120.08995507 C114.00019877 115.45205255 113.99911574 110.81415193 113.99864769 106.17624855 C113.99764224 99.99509145 113.99152948 93.8139594 113.98148155 87.63281059 C113.97857651 85.38221007 113.97732711 83.13160666 113.97790909 80.88100433 C113.97966839 69.93809987 113.97583827 59.08068928 112.83178711 48.18530273 C102.15059927 46.5414174 91.46769195 45.38487561 80.71020508 44.38037109 C77.96773914 44.12382724 75.22592782 43.86099928 72.48413086 43.59741211 C67.26888692 43.10031041 62.05129715 42.63518265 56.83178711 42.18530273 C54.9331189 42.01756348 54.9331189 42.01756348 52.99609375 41.84643555 C40.36649926 40.88940297 27.70398456 41.03340139 15.04589844 41.05493164 C11.06630362 41.06167794 7.08677352 41.05498799 3.10717773 41.04858398 C-9.64225768 41.0448297 -22.37546818 41.17400811 -35.11743164 41.63061523 Z " fill="#000000" transform="translate(797.168212890625,91.814697265625)"/>
<path d="M0 0 C1.21300105 -0.00423493 1.21300105 -0.00423493 2.45050716 -0.00855541 C3.7738524 -0.00551387 3.7738524 -0.00551387 5.12393188 -0.00241089 C6.06484712 -0.00413205 7.00576235 -0.00585321 7.97519016 -0.00762653 C11.12976838 -0.01198564 14.28429427 -0.00899806 17.43887329 -0.00582886 C19.68965168 -0.00697288 21.94042992 -0.00845047 24.19120789 -0.01023865 C30.28848667 -0.01327131 36.38573807 -0.00898224 42.48301315 -0.00219345 C46.28186775 0.00197424 50.08072178 0.00494018 53.87957764 0.00769043 C72.22494129 0.0226932 90.57017173 0.06533002 108.91543579 0.12698364 C110.18696754 0.13124107 111.4584993 0.1354985 112.76856232 0.13988495 C128.39867841 0.19386466 144.0284041 0.27368602 159.65817261 0.39144897 C164.10896528 0.42475782 168.55972348 0.45159758 173.0105896 0.47286987 C178.23885522 0.49846094 183.46681039 0.53856093 188.69488335 0.59004402 C190.59928191 0.60658265 192.50372999 0.61828157 194.40818977 0.62463188 C217.79857202 0.71121016 217.79857202 0.71121016 226.38809204 7.50198364 C237.43710405 19.25745422 237.09914193 39.0367234 237.04043579 54.06448364 C237.037052 55.35411011 237.03366821 56.64373657 237.03018188 57.97244263 C236.97842199 70.40816518 236.80301954 82.84367435 236.59603882 95.27764893 C236.55929843 97.53206114 236.5252723 99.78651941 236.49411011 102.04101562 C235.96132131 139.3961612 235.96132131 139.3961612 228.12246704 148.12307739 C211.09644178 163.96353803 181.23429864 158.31025431 159.79043579 157.68948364 C159.09194519 157.67001678 158.39345459 157.65054993 157.67379761 157.63049316 C155.66826233 157.57293623 153.66293465 157.50828148 151.65762329 157.44338989 C149.922948 157.38840332 149.922948 157.38840332 148.15322876 157.33230591 C145.01161823 157.13308298 142.0138042 156.66651877 138.91543579 156.12698364 C138.91623138 157.15328888 138.91702698 158.17959412 138.91784668 159.23699951 C138.93766457 209.80027071 138.0682627 260.12504036 134.70588684 310.58418274 C132.45777086 344.40307434 131.26158487 378.10761297 131.04043579 412.00198364 C131.03354736 413.05733433 131.02665894 414.11268501 131.01956177 415.20001602 C130.94111062 427.84232937 130.90499822 440.48443787 130.91543579 453.12698364 C132.29157295 453.33720909 132.29157295 453.33720909 133.69551086 453.55168152 C137.45436911 454.22327455 140.84044008 455.47211515 144.37246704 456.87307739 C145.45811195 457.29688187 145.45811195 457.29688187 146.56568909 457.72924805 C148.95626098 458.66653444 151.34243862 459.61436058 153.72793579 460.56448364 C154.55257324 460.89145233 155.37721069 461.21842102 156.22683716 461.55529785 C169.80692581 466.95039729 183.2685322 472.60538086 196.66543579 478.43948364 C197.50240997 478.8008139 198.33938416 479.16214417 199.20172119 479.53442383 C209.72982749 484.09117189 219.83167894 489.09690295 229.78799438 494.79934692 C234.05253891 497.23563603 238.41085647 499.46864896 242.79043579 501.68948364 C254.187571 507.58540656 265.06359242 514.36660835 275.98075867 521.09487915 C279.34434736 523.16706359 282.71930548 525.21792206 286.11074829 527.24417114 C295.65165699 532.95579049 304.77236939 539.09648505 313.78897095 545.6020813 C315.9491637 547.15117016 318.12281216 548.67919105 320.30215454 550.20120239 C328.46089928 555.90049944 336.4800452 561.71834184 344.30752563 567.86624146 C345.99091081 569.18616266 347.68121032 570.49685481 349.37246704 571.80667114 C356.82500946 577.59611338 364.09802699 583.56350121 371.25918579 589.70901489 C372.96229157 591.16709838 374.67252853 592.61645216 376.38418579 594.06448364 C383.83821094 600.3861995 391.0982567 606.88016656 398.23379517 613.55862427 C399.95895601 615.16757219 401.69393679 616.76534021 403.43106079 618.36135864 C410.56568319 624.93627149 417.54315926 631.65299339 424.41543579 638.50198364 C425.15688843 639.23884399 425.89834106 639.97570435 426.66226196 640.7348938 C430.6886395 644.77265172 434.53616248 648.9052801 438.25820923 653.22463989 C440.85500634 656.20552427 443.57817306 659.06408665 446.29043579 661.93948364 C450.95904087 666.92898027 455.4067125 672.02622319 459.68106079 677.36135864 C461.71508598 679.87899821 463.79200779 682.34814822 465.89517212 684.80764771 C496.97001394 721.15134722 523.66091435 761.41245611 546.91543579 803.12698364 C547.68041382 804.49234253 547.68041382 804.49234253 548.46084595 805.88528442 C580.15689309 862.65388209 604.11910219 923.93117772 620.10293579 986.93948364 C620.38266235 988.04139038 620.66238892 989.14329712 620.95059204 990.27859497 C623.32539847 1000.04942388 625.41001248 1008.72753695 620.91543579 1018.12698364 C618.19310963 1022.50215069 614.71889998 1025.27854849 609.91543579 1027.12698364 C601.48644726 1028.77229745 592.69291306 1028.18294785 584.14981079 1028.04104614 C582.60661447 1028.01958536 581.06341146 1027.99860044 579.52020264 1027.97805786 C575.41469544 1027.92179448 571.30933581 1027.8582191 567.20397186 1027.79239655 C564.66121577 1027.75191646 562.11844094 1027.7129594 559.57565308 1027.67453003 C551.95653587 1027.55932054 544.33748435 1027.44098041 536.71852303 1027.31586647 C528.96258493 1027.18856799 521.20677468 1027.07575287 513.4503479 1026.9821167 C509.18892244 1026.92871509 504.92773714 1026.86389831 500.66653442 1026.7951355 C498.76873193 1026.76666161 496.87085318 1026.74284001 494.97293091 1026.72396851 C472.27718665 1026.4887345 472.27718665 1026.4887345 463.91543579 1018.12698364 C460.16379113 1013.2688969 458.72243363 1008.70497372 457.22793579 1002.87698364 C432.21015342 911.21519276 378.80317521 824.29577085 300.47793579 744.56448364 C299.91572327 743.99959229 299.35351074 743.43470093 298.77426147 742.85269165 C292.66844796 736.72480974 286.51933902 730.72297507 279.91543579 725.12698364 C278.72350106 724.08219333 277.53338534 723.03532408 276.34512329 721.98635864 C268.66896879 715.257165 260.85879374 708.77165916 252.76504517 702.55130005 C250.82459706 701.05703207 248.89332475 699.55138724 246.96231079 698.04495239 C214.85420658 673.10872231 180.23109352 652.33142025 143.91543579 634.12698364 C142.92688599 633.63069458 141.93833618 633.13440552 140.91983032 632.62307739 C107.34682556 615.88503324 71.97826277 603.30312789 35.91543579 593.12698364 C34.25061157 592.65421997 34.25061157 592.65421997 32.55215454 592.17190552 C21.66673886 589.12477888 11.16159567 586.43948364 -0.2046814 586.43948364 C-6.23575531 586.40423138 -11.30069585 585.05966923 -16.25643921 581.61917114 C-26.96187396 570.64875039 -27.4055208 556.57856235 -27.25253296 542.00979614 C-27.16931381 538.38976296 -26.89160334 534.81218656 -26.58065796 531.20510864 C-25.73141676 519.74073465 -25.93672917 508.24077246 -25.95956421 496.75198364 C-25.96091665 494.76478641 -25.96226852 492.77758918 -25.96358109 490.79039192 C-25.98072506 471.80990173 -26.20759397 452.83612034 -26.51437378 433.85839844 C-27.57773778 367.97276761 -27.87827615 302.0017704 -26.08456421 236.12698364 C-26.05298218 234.94614197 -26.02140015 233.76530029 -25.98886108 232.54867554 C-25.03868745 197.3055012 -23.57571291 162.09682847 -21.76815796 126.88870239 C-21.71404251 125.83077988 -21.65992706 124.77285736 -21.60417175 123.68287659 C-21.37336781 119.26672664 -21.13695528 114.85421097 -20.81918335 110.44329834 C-20.13944507 100.83699273 -19.98427853 91.3073783 -20.07052994 81.67895508 C-20.09299903 79.05428865 -20.10678163 76.42969874 -20.1182251 73.80496216 C-20.15142618 66.35604621 -20.19370033 58.90726004 -20.25595093 51.45852661 C-20.29369865 46.86893028 -20.31664273 42.27945629 -20.33025742 37.68972778 C-20.33826723 35.95466658 -20.3518124 34.21962115 -20.37118912 32.48464966 C-20.39782309 30.06188859 -20.40557375 27.63971727 -20.40927124 25.21682739 C-20.42162811 24.5133165 -20.43398499 23.8098056 -20.44671631 23.0849762 C-20.41738413 15.75507359 -18.22208625 9.41560928 -13.08456421 4.12698364 C-8.81079198 1.13534308 -5.17383193 0.00279812 0 0 Z M21.91543579 41.12698364 C21.91112643 41.87392581 21.90681707 42.62086798 21.90237713 43.39044476 C21.65380194 85.53314624 20.22159267 127.4879653 17.90066242 169.56909847 C17.73154265 172.63622004 17.56378275 175.70341404 17.39610291 178.77061462 C17.19207075 182.49991099 16.98147827 186.22873269 16.76545715 189.95735168 C15.11236348 219.18972287 14.75384686 248.43802713 14.74839354 277.71012449 C14.74711943 281.27013003 14.74260731 284.83012936 14.73830128 288.39013231 C14.72477563 299.89660982 14.72472528 311.4030692 14.72746038 322.90955257 C14.72793672 325.88276887 14.72778482 328.85598445 14.72740555 331.82920074 C14.72081466 384.72679597 14.92078779 437.61192007 15.85293579 490.50198364 C15.8747504 491.76679062 15.89656502 493.0315976 15.91904068 494.33473206 C16.04256065 501.4744119 16.17301636 508.61389805 16.31600571 515.75321579 C16.35825865 517.86324233 16.39941099 519.97329126 16.43936539 522.08336258 C16.49411943 524.91362534 16.55507709 527.74367679 16.61831665 530.57376099 C16.63342191 531.39289349 16.64852716 532.21202599 16.66409016 533.05598068 C16.74888289 536.54534924 16.83159159 539.79629179 17.91543579 543.12698364 C19.67739493 544.3801331 19.67739493 544.3801331 21.91543579 545.18948364 C22.63731079 545.48983521 23.35918579 545.79018677 24.10293579 546.09963989 C31.04930218 548.63699317 38.0363094 550.7341449 45.18667603 552.62405396 C81.533806 562.2765286 116.87599577 575.1330755 150.91543579 591.12698364 C151.93669556 591.60216431 152.95795532 592.07734497 154.01016235 592.56692505 C169.18143723 599.64372891 183.9348305 607.20588783 198.3890686 615.65286255 C200.68976634 616.99530678 202.99941717 618.3201734 205.31387329 619.63870239 C239.86052166 639.45234104 272.15654718 663.45572499 302.29043579 689.43948364 C302.85432007 689.92401001 303.41820435 690.40853638 303.99917603 690.90774536 C315.36090456 700.76396967 326.14101349 711.18884125 336.7562561 721.83743286 C338.80557091 723.89215872 340.86024842 725.94141467 342.91543579 727.99026489 C344.24648604 729.3219753 345.5772264 730.65399552 346.90762329 731.98635864 C347.50879974 732.58551086 348.1099762 733.18466309 348.72937012 733.80197144 C352.4416036 737.53444441 355.96290731 741.39055155 359.4024353 745.37586975 C361.32493333 747.6009272 363.30643846 749.76924901 365.29043579 751.93948364 C370.02115082 757.18874247 374.48627273 762.6225736 378.91543579 768.12698364 C379.82918021 769.24833666 380.74325718 770.36941875 381.65762329 771.49026489 C409.20306724 805.39449039 432.69707243 842.44297086 452.91543579 881.12698364 C453.44346802 882.13245239 453.97150024 883.13792114 454.51553345 884.17385864 C471.41596468 916.54709427 484.45298544 950.49650383 495.91543579 985.12698364 C522.58762383 985.83303424 549.23356176 986.28943417 575.91543579 986.12698364 C574.44651789 977.13139018 571.72900251 968.5418235 568.97793579 959.87698364 C568.73589417 959.1113208 568.49385254 958.34565796 568.24447632 957.55679321 C550.55813102 901.75245295 526.53430238 848.0473387 495.91543579 798.12698364 C495.18212036 796.92888062 495.18212036 796.92888062 494.43399048 795.70657349 C479.12035057 770.80530779 462.22010946 746.91636544 443.91543579 724.12698364 C443.15214966 723.17444702 443.15214966 723.17444702 442.3734436 722.20266724 C430.73831406 707.70649824 418.71504925 693.7328199 405.92129517 680.24612427 C403.82402058 678.03040575 401.73587597 675.80638165 399.64981079 673.58010864 C398.94243774 672.82576538 398.2350647 672.07142212 397.5062561 671.29421997 C396.15615354 669.85441535 394.80651093 668.41417922 393.45742798 666.97341919 C385.56380976 658.53695079 385.56380976 658.53695079 377.04043579 650.75198364 C374.03076049 648.16064159 371.20454963 645.45443582 368.41543579 642.62698364 C364.40776428 638.57848696 360.2472827 634.82243234 355.91543579 631.12698364 C354.87449723 630.22269602 353.83418396 629.31768833 352.79434204 628.41213989 C345.83470117 622.37141692 338.74596426 616.55034411 331.46621704 610.90042114 C329.0664773 609.03594179 326.69146019 607.14546676 324.33340454 605.22854614 C286.56029099 574.5255377 244.27612453 549.05485377 200.91543579 527.12698364 C199.97635376 526.64938599 199.03727173 526.17178833 198.06973267 525.67971802 C167.96105416 510.47102806 136.27661886 498.45643858 104.15322876 488.2492981 C103.35546021 487.99366089 102.55769165 487.73802368 101.73574829 487.47463989 C100.73438843 487.16151855 100.73438843 487.16151855 99.71279907 486.84207153 C95.41474201 485.13207301 92.62254866 482.32333852 90.27037048 478.34371948 C88.82424991 474.91050022 88.56291404 472.67261522 88.61148071 468.97171021 C88.62348259 467.1892691 88.62348259 467.1892691 88.63572693 465.37081909 C88.65971054 464.09925964 88.68369415 462.8277002 88.70840454 461.51760864 C88.72311351 460.17120749 88.7364519 458.82479073 88.74848938 457.47836304 C88.77573171 454.70830691 88.81173776 451.93857835 88.85531616 449.16873169 C88.91315848 445.4524148 88.94646545 441.73625119 88.9725647 438.01956177 C89.18967809 409.47124707 89.8937777 380.95788614 91.22793579 352.43948364 C91.25923458 351.76758373 91.29053337 351.09568382 91.32278061 350.40342331 C92.01110426 335.66282454 92.7574584 320.92556406 93.56247711 306.19088364 C94.06777987 296.94107344 94.55992997 287.69061513 95.04043579 278.43948364 C95.08446785 277.59512253 95.12849991 276.75076141 95.17386627 275.8808136 C96.87385923 243.11342255 97.47516678 210.37201834 97.6756897 177.56375122 C97.68433941 176.23010119 97.68433941 176.23010119 97.69316387 174.86950874 C97.71966851 170.7298331 97.74174213 166.59028056 97.75175476 162.45053101 C97.78064116 154.65134834 97.92492551 146.85738662 98.23892212 139.0642395 C98.26073138 138.30285707 98.28254065 137.54147463 98.3050108 136.75702 C98.66103621 129.19487006 100.32728333 121.55547461 105.91543579 116.12698364 C111.34817509 112.66978591 116.9894961 111.67213919 123.28262329 112.65042114 C124.44020142 112.93143677 125.59777954 113.21245239 126.79043579 113.50198364 C148.44248215 118.10719936 171.86291216 116.2576237 193.91543579 116.12698364 C195.21222937 101.4835964 195.0339069 86.82975289 194.98410034 72.14175415 C194.97371904 68.74881623 194.96927157 65.35587049 194.96426392 61.96292114 C194.95333886 55.3509221 194.93668113 48.73895716 194.91543579 42.12698364 C180.77537431 41.99334101 166.63528558 41.86295358 152.49516392 41.73583221 C145.92210627 41.67668834 139.34905943 41.61661232 132.77603149 41.55422974 C95.82076786 41.20434516 58.87216077 41.05591732 21.91543579 41.12698364 Z " fill="#000000" transform="translate(1174.0845642089844,95.87301635742188)"/>
<path d="M0 0 C2.8599531 0.69952059 5.72148303 1.39220639 8.58343506 2.08349609 C31.83771589 7.72516841 54.5066718 14.68302099 77.20697021 22.23852539 C137.80479146 42.37630134 202.82029206 62.46002321 267.29290771 62.96630859 C268.33546722 62.97605713 269.37802673 62.98580566 270.45217896 62.99584961 C294.94487136 63.17751077 318.76706311 62.50757292 342.97650146 58.72802734 C344.2225415 58.54079102 345.46858154 58.35355469 346.75238037 58.16064453 C395.72005838 50.70246077 441.99318536 36.36446841 487.55023193 17.1640625 C490.66565568 15.85831058 493.78864156 14.57438728 496.91790771 13.30224609 C508.08112174 8.74817524 519.07234949 3.89009026 530.01690674 -1.16174316 C541.57249423 -6.49036334 553.13800764 -11.79815867 564.85150146 -16.77197266 C565.89475586 -17.23466553 566.93801025 -17.6973584 568.01287842 -18.17407227 C575.85051746 -21.43072128 584.12037943 -23.00735489 592.45550537 -20.53735352 C599.47299601 -17.57097222 603.5194586 -11.95663262 606.35150146 -5.08447266 C609.28456287 4.07513012 608.69705377 11.53298141 605.41790771 20.52490234 C605.15269821 21.26251801 604.88748871 22.00013367 604.61424255 22.76010132 C601.54987511 31.12351843 597.95421454 39.23937826 594.28900146 47.35302734 C593.57695107 48.93971747 592.86503882 50.5264696 592.15325928 52.11328125 C583.5701594 71.20107054 574.58444923 89.91973584 564.38031006 108.20117188 C563.09018294 110.52340069 561.8200447 112.85500876 560.55853271 115.19287109 C550.16392817 134.36431914 538.63073601 152.96734923 525.97650146 170.72802734 C525.15180722 171.89956777 524.327587 173.07144203 523.50384521 174.24365234 C512.93002241 189.23266434 501.80387125 203.70581892 489.97650146 217.72802734 C489.17043457 218.68491455 489.17043457 218.68491455 488.3480835 219.66113281 C474.01870018 236.60147179 458.86112723 253.67617993 441.92181396 268.06396484 C439.62417214 270.02941749 437.39777023 272.06532606 435.16400146 274.10302734 C429.90847878 278.82824879 424.52612892 283.35275926 418.97650146 287.72802734 C418.24528076 288.30472168 417.51406006 288.88141602 416.76068115 289.47558594 C404.26417064 299.27789464 391.48812983 308.37852665 377.97650146 316.72802734 C376.91084961 317.38810791 376.91084961 317.38810791 375.82366943 318.06152344 C336.74342912 342.07757109 295.25992031 357.56573647 250.97650146 368.72802734 C250.2475769 368.91214172 249.51865234 369.0962561 248.76763916 369.28594971 C203.12308151 380.7776535 156.91960478 388.31525927 109.97650146 391.72802734 C109.00857666 391.80005371 108.04065186 391.87208008 107.043396 391.94628906 C30.99324655 397.34265766 -48.82857134 386.90084868 -121.02349854 362.72802734 C-121.92970947 362.4321875 -122.83592041 362.13634766 -123.76959229 361.83154297 C-169.66627801 346.84700859 -213.49946306 323.77561377 -252.02349854 294.72802734 C-252.63258057 294.27057129 -253.2416626 293.81311523 -253.86920166 293.34179688 C-261.40895634 287.66193184 -268.7815412 281.78277856 -276.02349854 275.72802734 C-276.54492432 275.29296875 -277.0663501 274.85791016 -277.60357666 274.40966797 C-291.57900392 262.71122886 -304.6832417 250.15179102 -317.58599854 237.29052734 C-318.51412354 236.3670752 -319.44224854 235.44362305 -320.39849854 234.4921875 C-325.48195496 229.3967418 -330.34225185 224.1929945 -335.02349854 218.72802734 C-336.47795371 217.12034362 -337.93570748 215.5156302 -339.39849854 213.91552734 C-343.64864646 209.20107754 -347.67102455 204.33335232 -351.66168213 199.39892578 C-353.22513265 197.48062973 -354.80493921 195.57649869 -356.38677979 193.67333984 C-472.0650938 54.40449236 -472.0650938 54.40449236 -467.02349854 -10.27197266 C-464.54658702 -20.32883025 -455.79519649 -29.06567722 -447.17266846 -34.42163086 C-445.23218707 -35.4626746 -443.27487342 -36.41596842 -441.27349854 -37.33447266 C-440.54179443 -37.67244873 -439.81009033 -38.0104248 -439.05621338 -38.35864258 C-424.83836437 -44.66380556 -409.38045744 -47.4001119 -394.02349854 -49.27197266 C-393.19962646 -49.37638672 -392.37575439 -49.48080078 -391.5269165 -49.58837891 C-297.71373395 -60.85380383 -196.98942641 -40.83239238 0 0 Z M-425.02349854 0.72802734 C-418.95538895 16.49142481 -411.52008992 31.60836505 -404.02349854 46.72802734 C-403.5489624 47.68789551 -403.07442627 48.64776367 -402.58551025 49.63671875 C-394.66010035 65.54929499 -385.41050124 80.64947989 -376.02349854 95.72802734 C-375.54074463 96.50355957 -375.05799072 97.2790918 -374.56060791 98.078125 C-361.24923036 119.35012558 -346.44786566 139.68318173 -330.44732666 159.00439453 C-328.43509381 161.44032799 -326.45042104 163.8984521 -324.46099854 166.35302734 C-310.19335034 183.72233819 -294.88981486 199.94198199 -279.02349854 215.85302734 C-278.48697662 216.39222809 -277.95045471 216.93142883 -277.39767456 217.48696899 C-271.4526209 223.45456379 -265.4383154 229.26117576 -259.02349854 234.72802734 C-257.41581481 236.18248251 -255.81110139 237.64023629 -254.21099854 239.10302734 C-248.96168877 243.83378827 -243.52725908 248.29799786 -238.02349854 252.72802734 C-236.89036156 253.65341142 -235.75756405 254.57921127 -234.62506104 255.50537109 C-220.4827474 267.01597797 -205.9215487 277.76536819 -190.02349854 286.72802734 C-188.84956543 287.39801758 -188.84956543 287.39801758 -187.6519165 288.08154297 C-164.38908874 301.3081094 -140.30223314 311.97711307 -115.02349854 320.72802734 C-114.02093018 321.07816895 -113.01836182 321.42831055 -111.9854126 321.7890625 C-72.96161828 335.27645984 -32.01400958 343.33505534 8.97650146 347.72802734 C9.66046997 347.80321594 10.34443848 347.87840454 11.0491333 347.95587158 C52.68675224 352.51350612 95.38065939 352.87084992 136.97650146 347.72802734 C137.6605304 347.64552734 138.34455933 347.56302734 139.04931641 347.47802734 C227.02019913 336.84926628 313.22391913 315.18607604 416.46282959 234.12402344 C417.98108834 232.72379706 419.51517548 231.34317569 421.05462646 229.96630859 C430.22850489 221.71522111 438.62846475 212.80613824 446.97650146 203.72802734 C447.86724365 202.76380859 448.75798584 201.79958984 449.67572021 200.80615234 C476.4655522 171.44487052 499.05594189 138.02424846 518.97650146 103.72802734 C519.75380615 102.39771484 519.75380615 102.39771484 520.54681396 101.04052734 C528.64580441 87.1118288 536.05878916 72.87120522 543.28900146 58.47802734 C543.71544952 57.63298645 544.14189758 56.78794556 544.58126831 55.91729736 C545.79953938 53.49830422 547.00875293 51.07501777 548.21478271 48.64990234 C548.58077576 47.92384796 548.9467688 47.19779358 549.32385254 46.44973755 C551.08110096 42.88647219 552.44965695 39.71553624 552.97650146 35.72802734 C545.38945358 38.05942221 538.36078201 41.2123386 531.16400146 44.54052734 C458.13888052 77.8147785 379.10396712 100.80197126 286.97650146 104.72802734 C285.86057617 104.76307373 285.86057617 104.76307373 284.72210693 104.79882812 C245.49457678 105.90422147 206.15337007 100.28662326 167.97650146 91.72802734 C167.21611572 91.55785095 166.45572998 91.38767456 165.67230225 91.21234131 C130.98911468 83.39948733 97.27780514 72.41712016 63.53320312 61.31538391 C-32.04268519 29.8801307 -132.68763172 11.68466007 -279.58599854 -6.58447266 C-280.51956177 -6.66596558 -281.453125 -6.7474585 -282.41497803 -6.8314209 C-301.11780359 -8.44059662 -319.81091829 -9.47390136 -338.58599854 -9.39697266 C-339.65811584 -9.3941478 -339.65811584 -9.3941478 -340.75189209 -9.39126587 C-384.05581567 -10.84667139 -384.05581567 -10.84667139 -425.02349854 0.72802734 Z " fill="#000000" transform="translate(977.0234985351563,1424.27197265625)"/>
<path d="M0 0 C21.45375156 20.24792009 32.57022346 49.18371059 33.91796875 78.19921875 C34.46457163 107.16917121 24.62597353 135.69957718 4.91796875 157.19921875 C4.08652344 158.111875 3.25507812 159.02453125 2.3984375 159.96484375 C-18.1233605 181.47817811 -46.46190635 193.69173323 -76.14575195 194.55297852 C-105.11279183 194.81217141 -130.8607886 185.57039617 -153.08203125 167.19921875 C-153.83097656 166.60367187 -154.57992187 166.008125 -155.3515625 165.39453125 C-173.76138715 150.21641152 -185.07961333 127.12487275 -190.08203125 104.19921875 C-190.30761719 103.16796875 -190.53320312 102.13671875 -190.765625 101.07421875 C-196.00960356 72.72056914 -189.51336504 43.27526426 -174.10546875 19.09765625 C-156.20680034 -6.21719349 -131.08872721 -23.95316102 -100.51953125 -29.98828125 C-98.71011967 -30.27903318 -96.89741748 -30.55002286 -95.08203125 -30.80078125 C-94.19644531 -30.92453125 -93.31085938 -31.04828125 -92.3984375 -31.17578125 C-57.42042153 -35.05683711 -26.13428242 -22.60394783 0 0 Z M-134.9140625 36.37109375 C-148.02696076 53.47692859 -152.55953016 73.2332596 -149.78173828 94.49804688 C-146.32936779 113.05728696 -135.10510164 129.25618069 -120.078125 140.43359375 C-103.39037475 151.32670189 -83.47871843 154.97198906 -63.828125 151.5859375 C-45.51253692 147.17698894 -29.28050575 136.17515418 -19.08203125 120.19921875 C-8.85477835 102.87816915 -4.90928525 83.73999527 -9.64453125 63.94921875 C-15.09538187 43.78925146 -27.31053689 29.18705843 -44.9453125 18.45703125 C-75.77327845 1.68728523 -112.30169343 10.27682007 -134.9140625 36.37109375 Z " fill="#000000" transform="translate(779.08203125,1123.80078125)"/>
<path d="M0 0 C15.48043352 13.52238619 25.48976572 29.95746785 28.6796875 50.51953125 C29.7089365 66.73020308 28.18577551 81.75719779 20.9296875 96.45703125 C20.31867188 97.80474609 20.31867188 97.80474609 19.6953125 99.1796875 C10.9576199 117.04055913 -5.91769267 129.37308205 -24.0703125 136.45703125 C-28.0383562 137.71937966 -31.97780795 138.69690782 -36.0703125 139.45703125 C-36.76253906 139.58722656 -37.45476562 139.71742188 -38.16796875 139.8515625 C-58.99556894 143.05909846 -80.20865247 137.50967603 -97.1328125 125.20703125 C-114.41908018 111.77693097 -124.73923368 94.32372673 -128.7578125 72.76953125 C-130.96152881 49.84150413 -125.63033942 28.51883679 -111.0703125 10.45703125 C-83.14598721 -21.94897588 -33.53060707 -27.77153333 0 0 Z M-79.2578125 37.58203125 C-85.84878726 45.87040773 -88.1287385 55.12839512 -87.54296875 65.55859375 C-86.25642546 76.16991774 -81.21785677 84.59016385 -73.0703125 91.45703125 C-62.56657848 97.93609332 -52.2861688 100.50110584 -39.98828125 97.7734375 C-29.89766498 94.37226474 -21.93847463 88.1217011 -16.58984375 78.90625 C-12.10959227 69.63200394 -11.45271552 60.06673372 -13.88671875 50.12109375 C-17.58881297 40.08545157 -23.92154125 32.74278723 -33.4453125 27.89453125 C-50.1908293 20.25736403 -66.70808734 24.45750952 -79.2578125 37.58203125 Z " fill="#000000" transform="translate(1005.0703125,962.54296875)"/>
<path d="M0 0 C13.73380248 11.73957911 20.44366419 25.79137067 21.97265625 43.53515625 C22.94334633 59.52826039 17.26392176 73.65743683 7.1640625 85.8125 C6.64328125 86.45832031 6.1225 87.10414063 5.5859375 87.76953125 C-1.42406111 95.61152464 -12.68955097 101.37171914 -22.8359375 103.8125 C-23.57972656 103.99296875 -24.32351563 104.1734375 -25.08984375 104.359375 C-40.90150718 106.96841192 -57.60393623 104.04412879 -70.8359375 94.8125 C-82.93212924 85.43177987 -92.36447698 73.30546816 -94.8359375 57.8125 C-95.82981886 45.89701605 -96.20751693 33.75646557 -90.8359375 22.8125 C-90.41183594 21.88695312 -89.98773437 20.96140625 -89.55078125 20.0078125 C-82.02213389 4.86663314 -69.65977274 -4.78629757 -53.8359375 -10.1875 C-35.50190177 -15.70495276 -15.03796419 -11.59953161 0 0 Z M-48.8359375 33.8125 C-52.94972669 39.1171229 -54.38618797 43.09944424 -53.8359375 49.8125 C-52.0364517 55.05448037 -49.62438148 58.84822516 -44.8359375 61.8125 C-39.97220559 64.08224156 -35.93825967 64.19288776 -30.8359375 62.8125 C-25.39705083 60.14637908 -22.1954523 56.3146877 -19.8359375 50.8125 C-18.65530502 45.51505338 -20.04379754 41.23319767 -22.625 36.57421875 C-25.07619326 33.00812791 -27.78554909 31.16262947 -31.8359375 29.8125 C-38.69318155 29.08122048 -43.30194899 29.60666873 -48.8359375 33.8125 Z " fill="#000000" transform="translate(797.8359375,884.1875)"/>
</svg>
