<?xml version="1.0" encoding="UTF-8"?>
<svg version="1.1" xmlns="http://www.w3.org/2000/svg" width="2100" height="2100">
<path d="M0 0 C1.1690387 -0.00517639 2.33807739 -0.01035278 3.5425415 -0.01568604 C39.23160049 -0.14132728 39.23160049 -0.14132728 49.5625 6.25 C50.45582031 6.69472656 51.34914063 7.13945312 52.26953125 7.59765625 C59.05651856 11.00477839 63.98216203 14.45334029 67.61816406 21.21240234 C69.01193246 25.69566666 68.84228615 29.99183181 68.79296875 34.66015625 C68.78661911 35.71364761 68.78026947 36.76713898 68.77372742 37.85255432 C68.62774536 50.77934496 67.82062695 63.67060475 67.00737762 76.56919479 C66.77888528 80.22552669 66.5603058 83.88245422 66.34033203 87.53930664 C65.45632053 102.17282011 64.53030478 116.80355874 63.5849762 131.43322754 C63.0858892 139.15867342 62.59246946 146.88447806 62.10149002 154.61044312 C61.99223456 156.32736181 61.88266415 158.0442605 61.77277756 159.76113892 C60.58225343 178.36512592 59.47724016 196.95911627 58.90625 215.59375 C58.88410053 216.3118088 58.86195107 217.02986759 58.8391304 217.76968575 C58.61581231 225.11327883 58.42886299 232.45689759 58.28271484 239.80249023 C58.24035706 241.5780127 58.24035706 241.5780127 58.19714355 243.3894043 C58.14605599 245.55411307 58.10582783 247.71912331 58.07971191 249.88427734 C57.76062534 262.73921553 53.70612938 272.53360853 44.4375 281.5 C37.13302475 287.60324094 29.01089508 290.19885357 19.734375 291.8125 C18.99608459 291.94106888 18.25779419 292.06963776 17.49713135 292.20210266 C9.46499821 293.52985932 1.43641236 294.05527102 -6.6875 294.4375 C-7.4636264 294.47669556 -8.23975281 294.51589111 -9.03939819 294.55627441 C-31.23001407 295.67081613 -53.25614498 295.43129474 -75.4375 294.3125 C-76.3008194 294.26911499 -77.16413879 294.22572998 -78.05361938 294.18103027 C-80.51524229 294.05450499 -82.97639944 293.92143444 -85.4375 293.78515625 C-86.17264328 293.74654984 -86.90778656 293.70794342 -87.66520691 293.66816711 C-91.34566762 293.45447094 -94.83531278 293.01412307 -98.4375 292.25 C-96.08784054 300.73041959 -93.73260413 309.2092862 -91.375 317.6875 C-91.19056587 318.35092281 -91.00613174 319.01434563 -90.8161087 319.69787216 C-85.83764261 337.60348182 -80.8127264 355.49518731 -75.71484375 373.3671875 C-75.35237612 374.63806182 -75.35237612 374.63806182 -74.98258591 375.93461037 C-74.00031233 379.37848297 -73.01794348 382.82232838 -72.03553963 386.26616383 C-46.96037557 474.17956866 -25.83413508 561.8147834 -7.4793396 670.2093811 C3.53446913 735.39807441 14.83217984 800.48329217 32.5625 864.25 C34.26079027 861.70256459 35.02204713 860.17231094 35.86499023 857.33862305 C36.1046048 856.54085449 36.34421936 855.74308594 36.59109497 854.92114258 C36.84849457 854.04353271 37.10589417 853.16592285 37.37109375 852.26171875 C37.64911835 851.32585938 37.92714294 850.39 38.21359253 849.42578125 C39.14908471 846.26495112 40.0751727 843.10146608 41 839.9375 C41.32551849 838.8296817 41.65103699 837.7218634 41.98641968 836.58047485 C47.89573021 816.44022351 53.42073226 796.20464966 58.875 775.9375 C73.1616207 722.8674668 88.88897081 670.22728961 104.66454601 617.58462143 C127.82322857 540.30087938 150.94346131 462.99955373 191.00540161 314.18330383 C193.01812446 306.34059139 195.06281163 298.50664896 197.12109375 290.67578125 C206.49854172 254.95450306 215.09245805 219.09080374 223.22265625 183.06640625 C233.67692628 136.74587071 244.1594062 90.53900107 258.5625 45.25 C258.76808533 44.59930542 258.97367065 43.94861084 259.18548584 43.27819824 C260.42405806 39.36160125 261.69692508 35.45808497 263 31.5625 C263.44037598 30.20886353 263.44037598 30.20886353 263.88964844 28.82788086 C266.49677798 21.32532307 270.72627501 17.32264468 277.5625 13.25 C281.30435656 11.91202857 285.08077676 12.2013052 288.9921875 12.3359375 C289.72493896 12.35685959 290.45769043 12.37778168 291.21264648 12.39933777 C292.79302427 12.4453395 294.37332724 12.49397159 295.95355225 12.54495239 C298.48078331 12.62639485 301.0081475 12.70050745 303.53564453 12.77319336 C310.94218558 12.99013402 318.34677863 13.23095151 325.75 13.54296875 C357.63559156 14.85891902 389.98906368 15.73483387 421.80224609 12.96826172 C435.07885474 11.92987827 448.37816699 12.05460389 461.6875 12.0625 C462.86940918 12.0617749 464.05131836 12.0610498 465.26904297 12.06030273 C476.7894319 12.06110443 488.29621133 12.13863105 499.8046875 12.69921875 C500.59666534 12.73771439 501.38864319 12.77621002 502.20462036 12.81587219 C506.70623124 13.06524068 511.09752874 13.60392645 515.5625 14.25 C516.67625 14.20875 517.79 14.1675 518.9375 14.125 C526.62502862 14.39008719 531.96899804 17.07195114 537.73828125 22.04296875 C542.05287101 27.26297564 544.32326597 33.90333192 546.55859375 40.2265625 C546.82817902 40.97685226 547.09776428 41.72714203 547.3755188 42.50016785 C548.25597932 44.95647454 549.12849931 47.41550126 550 49.875 C550.621616 51.62070373 551.24328028 53.36639027 551.86499023 55.11206055 C553.77549585 60.48739858 555.67092555 65.86797553 557.5625 71.25 C557.84967896 72.06579529 558.13685791 72.88159058 558.43273926 73.72210693 C577.55110263 128.07011002 593.39426002 183.42048767 607.5625 239.25 C607.80937561 240.22076477 608.05625122 241.19152954 608.31060791 242.19171143 C631.8867432 335.00666012 649.81324905 429.16869833 676.22406006 574.82312012 C679.80498282 594.69657627 683.39657374 614.56811175 687 634.4375 C687.18260124 635.44437489 687.36520248 636.45124977 687.5533371 637.48863602 C700.96977155 711.43727454 714.71621054 785.42313085 731.8125 858.625 C732.04369537 859.61657104 732.27489075 860.60814209 732.51309204 861.62976074 C733.15403686 864.36655081 733.80169132 867.10162716 734.453125 869.8359375 C734.6389061 870.6251358 734.82468719 871.41433411 735.01609802 872.22744751 C735.93616244 876.04039892 736.98211156 879.65634956 738.5625 883.25 C771.44202429 802.16499431 795.56939907 717.54054659 819.74985504 633.54152489 C821.08530626 628.90296665 822.42615393 624.26601051 823.77001953 619.62988281 C842.09830523 556.32078188 856.71107849 492.2437063 871.15942383 427.96118164 C872.26493134 423.04308531 873.37060842 418.12502718 874.4765625 413.20703125 C874.74519041 412.01248384 875.01381832 410.81793644 875.29058647 409.58719063 C898.49431964 306.45454107 898.49431964 306.45454107 904.5625 288.25 C903.99910888 288.25276538 903.43571775 288.25553076 902.85525417 288.25837994 C889.08044311 288.32493499 875.30566061 288.37423091 861.53072262 288.40543652 C854.86896342 288.42103872 848.20735215 288.44217684 841.5456543 288.47631836 C835.10710579 288.50910671 828.66866902 288.5268939 822.23004341 288.53463173 C819.78347581 288.54014044 817.33691376 288.5508968 814.89039421 288.56719017 C772.44014944 288.83845107 772.44014944 288.83845107 757.5625 274.25 C748.1566958 263.62742852 745.39440223 250.31347889 745.4296875 236.4765625 C745.42873077 235.63515717 745.42777405 234.79375183 745.42678833 233.92684937 C745.4261097 232.14670741 745.42794186 230.36656294 745.43212891 228.58642578 C745.43741436 225.91823452 745.43220823 223.25021684 745.42578125 220.58203125 C745.42243301 213.02399763 745.47983372 205.50378723 746.0078125 197.9609375 C747.48743953 176.44293298 747.6304995 154.83423613 747.93874359 133.27509308 C747.99237247 129.52613203 748.04743363 125.77719438 748.10284424 122.02825928 C748.14021847 119.48628804 748.17755136 116.94431619 748.21484375 114.40234375 C748.23349865 113.131702 748.25215355 111.86106026 748.27137375 110.55191422 C748.36628581 104.01888984 748.45596161 97.48585347 748.53662109 90.95263672 C748.61625741 84.53536714 748.70975856 78.11842899 748.81244278 71.70148849 C748.84861477 69.28157974 748.87972177 66.86158937 748.90548325 64.44154739 C748.94190604 61.07478628 748.99606456 57.70873178 749.05419922 54.34228516 C749.06054382 53.36252716 749.06688843 52.38276917 749.07342529 51.37332153 C749.25841641 42.58504988 750.84267762 34.17399551 756.5625 27.25 C758.81985942 25.1550705 761.12487716 23.13433765 763.46875 21.13671875 C765.70722523 19.25051182 765.70722523 19.25051182 767.5625 16.5 C771.34786259 12.24146709 775.89002498 10.50384987 781.5234375 9.96875 C786.560518 9.92089175 791.57939939 10.18464623 796.60571289 10.48828125 C814.63858589 11.54289427 832.69271219 11.53430496 850.75 11.5625 C851.64909088 11.5645343 852.54818176 11.5665686 853.47451782 11.56866455 C893.93348268 11.65365204 934.3239159 10.27315976 974.74682617 8.6730957 C1006.25320702 7.42939549 1037.48235957 6.79050723 1069 8.1875 C1103.88806095 9.71859328 1138.76268107 10.36082923 1173.68359375 10.20703125 C1174.96335775 10.20195997 1176.24312176 10.19688869 1177.56166649 10.19166374 C1189.41645649 10.14462113 1201.27117711 10.09216384 1213.12573242 10.00317383 C1219.70917066 9.95387418 1226.2925006 9.92569935 1232.8761158 9.90942955 C1235.35082047 9.89958466 1237.82550808 9.88245565 1240.30010796 9.85764503 C1243.72298212 9.82391957 1247.14509566 9.81501761 1250.56811523 9.81176758 C1251.56890106 9.79581543 1252.56968689 9.77986328 1253.60079956 9.76342773 C1260.71076736 9.79422039 1266.41411062 11.10161062 1271.5625 16.25 C1273.7908985 16.78368226 1273.7908985 16.78368226 1276.3125 17.125 C1283.8588383 18.53654529 1288.12663005 22.21228812 1292.5625 28.25 C1294.4355179 32.14849076 1294.97058583 35.65939009 1295.34375 39.953125 C1295.40213043 40.61031021 1295.46051086 41.26749542 1295.5206604 41.94459534 C1295.71082988 44.12903835 1295.88770803 46.31427558 1296.0625 48.5 C1296.12564392 49.26541107 1296.18878784 50.03082214 1296.25384521 50.81942749 C1298.49324492 78.10636917 1299.57263121 105.44506523 1300.1875 132.8125 C1300.20814514 133.70659576 1300.22879028 134.60069153 1300.25006104 135.5218811 C1300.89477733 164.39710399 1300.58565433 193.2530755 1299.87280273 222.12255859 C1299.766527 226.45891965 1299.67726406 230.79547595 1299.59119701 235.13227844 C1299.5207166 238.52810352 1299.43779903 241.92354387 1299.35149574 245.31900024 C1299.3129525 246.91994705 1299.27902947 248.52101281 1299.25008202 250.12216187 C1298.88722846 269.6595087 1298.88722846 269.6595087 1292.4375 276.0625 C1291.91929688 276.60519531 1291.40109375 277.14789062 1290.8671875 277.70703125 C1282.82532425 283.09099055 1274.11565855 282.52476111 1264.82376099 282.30328369 C1231.8431777 281.58564435 1199.26490594 285.5831903 1166.53930664 289.26806641 C1165.37731247 289.39853867 1164.2153183 289.52901093 1163.01811218 289.66343689 C1160.82216 289.9107705 1158.62643709 290.16015087 1156.4309845 290.41188049 C1155.45135239 290.52241257 1154.47172028 290.63294464 1153.46240234 290.74682617 C1152.60883148 290.84436691 1151.75526062 290.94190765 1150.87582397 291.04240417 C1148.5625 291.25 1148.5625 291.25 1144.5625 291.25 C1144.46339828 291.8076857 1144.36429657 292.3653714 1144.26219177 292.93995667 C1142.83134484 300.5542313 1140.78020782 307.95604801 1138.66015625 315.40234375 C1138.2669892 316.79392998 1137.8741557 318.18561049 1137.48162842 319.57737732 C1136.42223509 323.32996435 1135.35812685 327.08119947 1134.29315567 330.83220673 C1133.15899254 334.83020737 1132.02937625 338.82949267 1130.89916992 342.82861328 C1128.12600959 352.63736845 1125.34502983 362.44389931 1122.5625 372.25 C1122.15307131 373.69309351 1121.74364732 375.13618835 1121.33422852 376.57928467 C1119.43529373 383.27228903 1117.53580947 389.96513743 1115.63623047 396.65795898 C1115.45061239 397.31197095 1115.26499432 397.96598291 1115.07375145 398.63981342 C1114.12254903 401.99128348 1113.17124968 405.34272597 1112.2197876 408.69412231 C1092.12348578 479.48647335 1072.34059114 550.36821355 1052.5625 621.25 C1052.28481781 622.24517136 1052.00713562 623.24034271 1051.72103882 624.26567078 C1036.3945192 679.19662756 1021.14635409 734.1487011 1006.00366211 789.13061523 C1002.48496826 801.90607389 998.96057939 814.67995322 995.43359375 827.453125 C986.31043087 860.49569338 977.19744472 893.54088812 968.14709473 926.60348511 C966.88753247 931.20468886 965.62697269 935.80561894 964.36621094 940.40649414 C963.76050729 942.61705886 963.15481788 944.82762748 962.54913712 947.03819847 C962.1563764 948.47166488 961.76360259 949.90512769 961.37081528 951.33858681 C959.22005987 959.18822459 957.074053 967.03912227 954.93710327 974.89253235 C948.09434587 1000.02330051 940.85286978 1025.02756562 933.47144318 1050.00432682 C926.20268336 1074.60188598 919.04664845 1099.23085818 911.9375 1123.875 C911.3899768 1125.77269573 910.84245075 1127.67039063 910.29492188 1129.56808472 C908.07632118 1137.25813169 905.85828059 1144.94834004 903.6411438 1152.6388092 C899.64942311 1166.48447938 895.65251203 1180.32864316 891.65234375 1194.171875 C891.08088641 1196.14962756 890.5094295 1198.12738025 889.93797302 1200.10513306 C887.42571382 1208.79949741 884.9130215 1217.49373636 882.39953518 1226.18774605 C881.0707998 1230.78394755 879.74234333 1235.38022962 878.4140625 1239.9765625 C878.15885393 1240.85965466 877.90364536 1241.74274681 877.6407032 1242.65259933 C874.52289411 1253.44276634 871.41527289 1264.23576662 868.32509041 1275.03387833 C867.44125422 1278.12133533 866.55582081 1281.20833434 865.6706543 1284.29541016 C864.4458222 1288.56713234 863.22649062 1292.84036176 862.01098633 1297.11474609 C852.80412315 1329.33842186 852.80412315 1329.33842186 844.54296875 1334.515625 C839.67771667 1337.07913445 835.37953983 1338.37178406 829.85906601 1338.38726711 C828.91396085 1338.39195047 827.9688557 1338.39663382 826.99511099 1338.4014591 C825.9623927 1338.40106118 824.92967441 1338.40066327 823.86566162 1338.4002533 C822.22225729 1338.40439883 822.22225729 1338.40439883 820.54565287 1338.40862811 C816.87903628 1338.41459735 813.21251543 1338.41123873 809.54589844 1338.40600586 C808.26586929 1338.4052738 806.98584014 1338.40454174 805.66702223 1338.40378749 C775.65037271 1338.37326344 745.65403965 1337.69244968 715.64857234 1336.92695922 C707.87941018 1336.72897457 700.1100578 1336.53895061 692.34069607 1336.34898829 C678.48154023 1336.00987623 664.62255974 1335.66408765 650.76367188 1335.31420898 C637.38423715 1334.9764408 624.00469042 1334.64364738 610.625 1334.31616211 C609.37830931 1334.28564676 609.37830931 1334.28564676 608.10643294 1334.25451494 C607.2765685 1334.23420286 606.44670406 1334.21389078 605.59169221 1334.19296318 C590.20059006 1333.81621412 574.80959731 1333.43515554 559.41865475 1333.05194505 C554.02444925 1332.91772549 548.63021452 1332.78472381 543.23596954 1332.65210152 C536.68230809 1332.49088038 530.12871502 1332.32713029 523.57519355 1332.16031284 C520.24355292 1332.07554912 516.91189433 1331.99211356 513.58016586 1331.91083336 C470.45676567 1330.85641821 470.45676567 1330.85641821 460.5625 1320.5 C454.85723147 1312.94145142 452.77922888 1303.87567652 450.626297 1294.80516052 C450.44347923 1294.03569973 450.26066147 1293.26623894 450.07230377 1292.47346115 C449.88344353 1291.67784397 449.69458328 1290.88222679 449.5 1290.0625 C449.13002611 1288.50883632 448.7600153 1286.95518144 448.38996887 1285.40153503 C446.29147801 1276.57769249 444.2071763 1267.75081552 442.15527344 1258.91601562 C435.23543343 1229.13567841 428.05932832 1199.42137588 420.79981613 1169.72219467 C419.8573806 1165.8653948 418.91579961 1162.00838698 417.97463989 1158.15127563 C417.81586052 1157.5005581 417.65708115 1156.84984057 417.49349028 1156.17940432 C417.17113487 1154.85829416 416.84878105 1153.53718361 416.52642882 1152.21607268 C407.37705008 1114.72066086 398.2028788 1077.23128926 389.01074219 1039.74633789 C384.78065539 1022.49445472 380.5534961 1005.24197624 376.36832237 987.97913361 C365.79256549 944.35700503 354.99547645 900.79179481 344.10847616 857.24645519 C343.56812377 855.08499558 343.02789917 852.92350407 342.48772049 850.76200104 C333.608651 815.23339448 324.66884555 779.72117647 315.5625 744.25 C313.76491091 746.94638364 312.9624783 748.76788088 312.03222656 751.80395508 C311.59704712 753.21084846 311.59704712 753.21084846 311.15307617 754.64616394 C310.83959229 755.67687515 310.5261084 756.70758636 310.203125 757.76953125 C309.86676025 758.86062698 309.53039551 759.95172272 309.18383789 761.07588196 C308.44686533 763.46785933 307.71206329 765.86050623 306.97912598 768.25372314 C305.16705464 774.16973694 303.34213796 780.08177671 301.51711273 785.99380493 C301.08610978 787.39023339 300.65529048 788.78671854 300.22464752 790.18325806 C296.93568852 800.8484372 293.60862915 811.50109394 290.25 822.14453125 C290.02830643 822.8471257 289.80661285 823.54972015 289.57820129 824.27360535 C288.67510582 827.13539349 287.77185802 829.99713352 286.86844635 832.85882187 C265.01669588 902.08745421 243.74607321 971.46495804 191.6875 1175.8125 C189.65047621 1184.29278841 187.61015001 1192.77227063 185.5625 1201.25 C185.31902832 1202.25820801 185.07555664 1203.26641602 184.82470703 1204.30517578 C178.90548944 1228.78045222 172.61821741 1253.13024723 165.8125 1277.375 C165.35571869 1279.01530685 165.35571869 1279.01530685 164.88970947 1280.68875122 C161.72540574 1292.01762741 158.37412298 1303.26390971 154.484375 1314.3671875 C154.18114319 1315.26212921 153.87791138 1316.15707092 153.56549072 1317.07913208 C150.95588718 1324.29506163 147.69718911 1329.99311354 140.5982666 1333.45544434 C134.90765851 1335.86229268 129.73996273 1335.52606189 123.67285156 1335.09521484 C121.97118521 1335.00156678 121.97118521 1335.00156678 120.23514175 1334.90602684 C117.85572555 1334.77260454 115.4768425 1334.62933766 113.09858704 1334.47661591 C109.73931665 1334.26133158 106.37984351 1334.07221134 103.01843262 1333.89385986 C97.46133891 1333.59562748 91.90608803 1333.27201595 86.35096169 1332.93928528 C82.65792807 1332.71824611 78.96470092 1332.5007205 75.27140808 1332.28405762 C70.66969133 1332.01406487 66.06800259 1331.74361312 61.46636766 1331.47222924 C5.52045805 1328.15309776 5.52045805 1328.15309776 -50.45811462 1325.46105194 C-52.437085 1325.37765145 -54.41599247 1325.29276251 -56.39489746 1325.20782471 C-65.07433618 1324.84005668 -73.75461877 1324.52443238 -82.4375 1324.25 C-83.50097845 1324.21626219 -83.50097845 1324.21626219 -84.58594131 1324.1818428 C-106.50583949 1323.49385462 -128.41744196 1323.17458822 -150.34765625 1323.07421875 C-152.67108743 1323.06224774 -154.99451782 1323.05012188 -157.31794739 1323.0378418 C-171.55795923 1322.96410885 -171.55795923 1322.96410885 -185.7980957 1322.92407227 C-191.71345615 1322.91399725 -197.62845239 1322.88476176 -203.54366875 1322.84275246 C-205.76710706 1322.83051164 -207.99059658 1322.82530842 -210.21406746 1322.82755089 C-213.29293627 1322.82990366 -216.37073861 1322.80776541 -219.44946289 1322.7800293 C-220.34746613 1322.78663071 -221.24546936 1322.79323212 -222.17068481 1322.80003357 C-228.1852534 1322.7111485 -232.29753055 1321.33004228 -237.4375 1318.25 C-238.675 1317.6003125 -238.675 1317.6003125 -239.9375 1316.9375 C-248.72581116 1311.00538996 -252.99089167 1305.52055592 -255.13671875 1294.9453125 C-255.45157081 1293.43593156 -255.76695019 1291.92666054 -256.08276367 1290.41748047 C-256.24988861 1289.60583435 -256.41701355 1288.79418823 -256.58920288 1287.95794678 C-260.3337435 1269.90643293 -264.62757221 1252.00173751 -269.125 1234.125 C-269.44134399 1232.86575714 -269.75768799 1231.60651428 -270.08361816 1230.30911255 C-274.3289275 1213.41867589 -278.61742539 1196.53913263 -282.89925671 1179.65792847 C-285.55205882 1169.1976824 -288.2001755 1158.73625477 -290.84637928 1148.27433777 C-292.50989495 1141.69864889 -294.17644319 1135.1237556 -295.84945679 1128.55047607 C-306.44100559 1086.93159612 -316.01544098 1045.26602724 -324.23815918 1003.11846924 C-325.29219936 997.71626031 -326.35489874 992.31577309 -327.41894531 986.91552734 C-327.79428624 985.0101939 -328.16962188 983.10485942 -328.54495239 981.19952393 C-328.73346897 980.24257881 -328.92198555 979.2856337 -329.11621475 978.29969025 C-330.08636863 973.37331367 -331.05508217 968.44665392 -332.02392578 963.52001953 C-332.62420872 960.46816663 -333.22453001 957.41632128 -333.82486725 954.36447906 C-334.23634486 952.27262486 -334.6477771 950.18076173 -335.05916595 948.08889008 C-349.72906008 872.46754647 -349.72906008 872.46754647 -366.90461731 797.38954163 C-367.48183274 795.07200259 -368.05800322 792.75420498 -368.63415527 790.43640137 C-390.25698774 703.49999067 -413.1826367 616.91151896 -446.76879883 491.93481445 C-462.20378879 434.56300261 -477.55848793 377.17068604 -492.5425415 319.67919922 C-493.50538949 315.98986883 -494.47220035 312.30158714 -495.43896484 308.61328125 C-496.08834116 306.12763682 -496.73759614 303.64196069 -497.38671875 301.15625 C-497.69293655 299.99105835 -497.99915436 298.8258667 -498.31465149 297.62536621 C-498.59326523 296.55596802 -498.87187897 295.48656982 -499.15893555 294.38476562 C-499.40645065 293.43911743 -499.65396576 292.49346924 -499.90898132 291.51916504 C-500.4375 289.25 -500.4375 289.25 -500.4375 287.25 C-501.06273591 287.25184359 -501.68797182 287.25368717 -502.33215427 287.25558662 C-517.60912505 287.29992947 -532.88607581 287.33293573 -548.16309452 287.35362434 C-555.55121752 287.36389743 -562.93929732 287.377881 -570.32739258 287.40087891 C-576.77362409 287.42093523 -583.21982429 287.43374519 -589.66608614 287.43817699 C-593.07318182 287.44076385 -596.48018798 287.44675923 -599.88725471 287.46146011 C-644.82497797 287.63383833 -644.82497797 287.63383833 -658.4375 275.25 C-679.26867385 253.26153872 -672.64805517 205.52801306 -672.625 177.9375 C-672.62472809 176.69287994 -672.62445618 175.44825989 -672.62417603 174.16592407 C-672.59921054 148.9549818 -671.83926768 123.80975516 -670.60217285 98.63134766 C-670.42883887 95.07215479 -670.26235245 91.51268228 -670.09667969 87.953125 C-669.80803935 81.79842056 -669.50206716 75.64479606 -669.18276978 69.49160767 C-669.06207568 67.14461227 -668.94511955 64.7974213 -668.8321228 62.45004272 C-668.67337329 59.19891471 -668.49733243 55.94917837 -668.31640625 52.69921875 C-668.25070938 51.26231689 -668.25070938 51.26231689 -668.1836853 49.79638672 C-667.85289957 44.25798513 -666.8926484 40.22682759 -664.4375 35.25 C-663.90030746 32.93967354 -663.90030746 32.93967354 -663.625 30.8125 C-662.39800531 24.966818 -659.48048648 20.45061469 -654.6171875 16.93359375 C-646.41359558 12.43324272 -636.9280844 11.95444664 -627.76953125 11.72265625 C-626.21591133 11.67254898 -626.21591133 11.67254898 -624.63090515 11.62142944 C-622.3670049 11.54925034 -620.1029823 11.48083268 -617.83886719 11.41574097 C-612.18995095 11.25323855 -606.54176688 11.06842801 -600.89347458 10.88569069 C-598.83359767 10.8193566 -596.77368919 10.75407407 -594.71377563 10.68888855 C-583.6549763 10.33631956 -572.59895363 9.92345215 -561.54296875 9.4921875 C-559.82119249 9.42526583 -558.09941616 9.35834587 -556.37763977 9.29142761 C-548.89668935 9.00014364 -541.41580206 8.7073635 -533.93512917 8.40902901 C-491.02031728 6.71701053 -448.14830759 6.08322593 -405.20077214 5.98467991 C-397.74807945 5.96730489 -390.29540817 5.94397746 -382.84273337 5.92026538 C-369.49477315 5.87786957 -356.14680588 5.83868502 -342.79882812 5.80224609 C-342.00699123 5.80008329 -341.21515433 5.79792049 -340.39932238 5.79569215 C-335.58900872 5.78257079 -330.77869486 5.7695274 -325.96838093 5.75651073 C-318.77221458 5.73703665 -311.57604846 5.71748488 -304.37988281 5.69775391 C-303.19819699 5.6945156 -303.19819699 5.6945156 -301.99263872 5.69121188 C-288.69196883 5.6546558 -275.39131113 5.61467853 -262.09065807 5.57245111 C-254.68571937 5.54908623 -247.2807839 5.52742985 -239.87582779 5.51036072 C-195.88165744 5.40825598 -151.88952101 5.08318049 -107.92156982 3.43377686 C-104.45388647 3.30373955 -100.98600242 3.18023403 -97.51806641 3.05712891 C-86.44889477 2.65849529 -75.38347235 2.21681928 -64.3203125 1.67578125 C-42.87293286 0.63580827 -21.47499971 0.04341718 0 0 Z " fill="#000000" transform="translate(730.4375,375.75)"/>
</svg>
