<?xml version="1.0" encoding="UTF-8"?>
<svg version="1.1" xmlns="http://www.w3.org/2000/svg" width="2100" height="2100">
<path d="M0 0 C1.1690387 -0.00517639 2.33807739 -0.01035278 3.5425415 -0.01568604 C39.23160049 -0.14132728 39.23160049 -0.14132728 49.5625 6.25 C50.45582031 6.69472656 51.34914063 7.13945312 52.26953125 7.59765625 C59.05651856 11.00477839 63.98216203 14.45334029 67.61816406 21.21240234 C69.01193246 25.69566666 68.84228615 29.99183181 68.79296875 34.66015625 C68.78661911 35.71364761 68.78026947 36.76713898 68.77372742 37.85255432 C68.62774536 50.77934496 67.82062695 63.67060475 67.00737762 76.56919479 C66.77888528 80.22552669 66.5603058 83.88245422 66.34033203 87.53930664 C65.45632053 102.17282011 64.53030478 116.80355874 63.5849762 131.43322754 C63.0858892 139.15867342 62.59246946 146.88447806 62.10149002 154.61044312 C61.99223456 156.32736181 61.88266415 158.0442605 61.77277756 159.76113892 C60.58225343 178.36512592 59.47724016 196.95911627 58.90625 215.59375 C58.88410053 216.3118088 58.86195107 217.02986759 58.8391304 217.76968575 C58.61581231 225.11327883 58.42886299 232.45689759 58.28271484 239.80249023 C58.24035706 241.5780127 58.24035706 241.5780127 58.19714355 243.3894043 C58.14605599 245.55411307 58.10582783 247.71912331 58.07971191 249.88427734 C57.76062534 262.73921553 53.70612938 272.53360853 44.4375 281.5 C37.13302475 287.60324094 29.01089508 290.19885357 19.734375 291.8125 C18.99608459 291.94106888 18.25779419 292.06963776 17.49713135 292.20210266 C9.46499821 293.52985932 1.43641236 294.05527102 -6.6875 294.4375 C-7.4636264 294.47669556 -8.23975281 294.51589111 -9.03939819 294.55627441 C-31.23001407 295.67081613 -53.25614498 295.43129474 -75.4375 294.3125 C-76.3008194 294.26911499 -77.16413879 294.22572998 -78.05361938 294.18103027 C-80.51524229 294.05450499 -82.97639944 293.92143444 -85.4375 293.78515625 C-86.17264328 293.74654984 -86.90778656 293.70794342 -87.66520691 293.66816711 C-91.34566762 293.45447094 -94.83531278 293.01412307 -98.4375 292.25 C-96.08784054 300.73041959 -93.73260413 309.2092862 -91.375 317.6875 C-91.19056587 318.35092281 -91.00613174 319.01434563 -90.8161087 319.69787216 C-85.83764261 337.60348182 -80.8127264 355.49518731 -75.71484375 373.3671875 C-75.35237612 374.63806182 -75.35237612 374.63806182 -74.98258591 375.93461037 C-74.00031233 379.37848297 -73.01794348 382.82232838 -72.03553963 386.26616383 C-46.96037557 474.17956866 -25.83413508 561.8147834 -7.4793396 670.2093811 C3.53446913 735.39807441 14.83217984 800.48329217 32.5625 864.25 C34.26079027 861.70256459 35.02204713 860.17231094 35.86499023 857.33862305 C36.1046048 856.54085449 36.34421936 855.74308594 36.59109497 854.92114258 C36.84849457 854.04353271 37.10589417 853.16592285 37.37109375 852.26171875 C37.64911835 851.32585938 37.92714294 850.39 38.21359253 849.42578125 C39.14908471 846.26495112 40.0751727 843.10146608 41 839.9375 C41.32551849 838.8296817 41.65103699 837.7218634 41.98641968 836.58047485 C47.89573021 816.44022351 53.42073226 796.20464966 58.875 775.9375 C73.1616207 722.8674668 88.88897081 670.22728961 104.66454601 617.58462143 C127.82322857 540.30087938 150.94346131 462.99955373 191.00540161 314.18330383 C193.01812446 306.34059139 195.06281163 298.50664896 197.12109375 290.67578125 C206.49854172 254.95450306 215.09245805 219.09080374 223.22265625 183.06640625 C233.67692628 136.74587071 244.1594062 90.53900107 258.5625 45.25 C258.76808533 44.59930542 258.97367065 43.94861084 259.18548584 43.27819824 C260.42405806 39.36160125 261.69692508 35.45808497 263 31.5625 C263.44037598 30.20886353 263.44037598 30.20886353 263.88964844 28.82788086 C266.49677798 21.32532307 270.72627501 17.32264468 277.5625 13.25 C281.29484539 11.91713293 285.05594055 12.20104316 288.95703125 12.3359375 C290.05212509 12.36732063 290.05212509 12.36732063 291.16934204 12.39933777 C292.74520311 12.44535111 294.32098941 12.49398398 295.896698 12.54495239 C298.41871007 12.62641181 300.94085466 12.70054077 303.46313477 12.77319336 C310.9795793 12.99341188 318.49423076 13.23914879 326.0078125 13.54296875 C357.80359806 14.79853339 390.02739144 15.71695625 421.75170898 12.96826172 C435.04555338 11.93315845 448.36115639 12.05459165 461.6875 12.0625 C463.46022781 12.06141235 463.46022781 12.06141235 465.26876831 12.06030273 C476.78924889 12.06110443 488.29611976 12.13862659 499.8046875 12.69921875 C500.59666534 12.73771439 501.38864319 12.77621002 502.20462036 12.81587219 C506.70623124 13.06524068 511.09752874 13.60392645 515.5625 14.25 C516.67625 14.20875 517.79 14.1675 518.9375 14.125 C526.62502862 14.39008719 531.96899804 17.07195114 537.73828125 22.04296875 C542.05287101 27.26297564 544.32326597 33.90333192 546.55859375 40.2265625 C546.82817902 40.97685226 547.09776428 41.72714203 547.3755188 42.50016785 C548.25597932 44.95647454 549.12849931 47.41550126 550 49.875 C550.621616 51.62070373 551.24328028 53.36639027 551.86499023 55.11206055 C553.77549585 60.48739858 555.67092555 65.86797553 557.5625 71.25 C557.84967896 72.06579529 558.13685791 72.88159058 558.43273926 73.72210693 C577.55110263 128.07011002 593.39426002 183.42048767 607.5625 239.25 C607.80937561 240.22076477 608.05625122 241.19152954 608.31060791 242.19171143 C632.33014125 336.75223742 650.47426798 432.70599176 676.86789703 578.39588928 C702.22989996 720.98466029 702.22989996 720.98466029 733.375 865.3125 C733.58654724 866.20324219 733.79809448 867.09398437 734.01605225 868.01171875 C734.59504748 870.43756942 735.18033201 872.86176606 735.76953125 875.28515625 C736.0231266 876.34060387 736.0231266 876.34060387 736.28184509 877.41737366 C736.88303041 880.6032118 736.88303041 880.6032118 738.5625 883.25 C771.44202429 802.16499431 795.56939907 717.54054659 819.74985504 633.54152489 C821.08530626 628.90296665 822.42615393 624.26601051 823.77001953 619.62988281 C842.09830523 556.32078188 856.71107849 492.2437063 871.15942383 427.96118164 C872.26493134 423.04308531 873.37060842 418.12502718 874.4765625 413.20703125 C874.74519041 412.01248384 875.01381832 410.81793644 875.29058647 409.58719063 C898.49431964 306.45454107 898.49431964 306.45454107 904.5625 288.25 C903.99910888 288.25276538 903.43571775 288.25553076 902.85525417 288.25837994 C889.08044311 288.32493499 875.30566061 288.37423091 861.53072262 288.40543652 C854.86896342 288.42103872 848.20735215 288.44217684 841.5456543 288.47631836 C835.10710579 288.50910671 828.66866902 288.5268939 822.23004341 288.53463173 C819.78347581 288.54014044 817.33691376 288.5508968 814.89039421 288.56719017 C772.44014944 288.83845107 772.44014944 288.83845107 757.5625 274.25 C748.1566958 263.62742852 745.39440223 250.31347889 745.4296875 236.4765625 C745.42873077 235.63515717 745.42777405 234.79375183 745.42678833 233.92684937 C745.4261097 232.14670741 745.42794186 230.36656294 745.43212891 228.58642578 C745.43741436 225.91823452 745.43220823 223.25021684 745.42578125 220.58203125 C745.42243301 213.02399763 745.47983372 205.50378723 746.0078125 197.9609375 C747.48743953 176.44293298 747.6304995 154.83423613 747.93874359 133.27509308 C747.99237247 129.52613203 748.04743363 125.77719438 748.10284424 122.02825928 C748.14021847 119.48628804 748.17755136 116.94431619 748.21484375 114.40234375 C748.23349865 113.131702 748.25215355 111.86106026 748.27137375 110.55191422 C748.36628581 104.01888984 748.45596161 97.48585347 748.53662109 90.95263672 C748.61625741 84.53536714 748.70975856 78.11842899 748.81244278 71.70148849 C748.84861477 69.28157974 748.87972177 66.86158937 748.90548325 64.44154739 C748.94190604 61.07478628 748.99606456 57.70873178 749.05419922 54.34228516 C749.06054382 53.36252716 749.06688843 52.38276917 749.07342529 51.37332153 C749.25841641 42.58504988 750.84267762 34.17399551 756.5625 27.25 C758.81985942 25.1550705 761.12487716 23.13433765 763.46875 21.13671875 C765.70722523 19.25051182 765.70722523 19.25051182 767.5625 16.5 C771.34786259 12.24146709 775.89002498 10.50384987 781.5234375 9.96875 C786.560518 9.92089175 791.57939939 10.18464623 796.60571289 10.48828125 C814.63858589 11.54289427 832.69271219 11.53430496 850.75 11.5625 C851.64909088 11.5645343 852.54818176 11.5665686 853.47451782 11.56866455 C893.93348268 11.65365204 934.3239159 10.27315976 974.74682617 8.6730957 C1006.25320702 7.42939549 1037.48235957 6.79050723 1069 8.1875 C1103.88806095 9.71859328 1138.76268107 10.36082923 1173.68359375 10.20703125 C1174.96335775 10.20195997 1176.24312176 10.19688869 1177.56166649 10.19166374 C1189.41645649 10.14462113 1201.27117711 10.09216384 1213.12573242 10.00317383 C1219.70917066 9.95387418 1226.2925006 9.92569935 1232.8761158 9.90942955 C1235.35082047 9.89958466 1237.82550808 9.88245565 1240.30010796 9.85764503 C1243.72298212 9.82391957 1247.14509566 9.81501761 1250.56811523 9.81176758 C1251.56890106 9.79581543 1252.56968689 9.77986328 1253.60079956 9.76342773 C1260.71076736 9.79422039 1266.41411062 11.10161062 1271.5625 16.25 C1273.7908985 16.78368226 1273.7908985 16.78368226 1276.3125 17.125 C1283.8588383 18.53654529 1288.12663005 22.21228812 1292.5625 28.25 C1294.4355179 32.14849076 1294.97058583 35.65939009 1295.34375 39.953125 C1295.40213043 40.61031021 1295.46051086 41.26749542 1295.5206604 41.94459534 C1295.71082988 44.12903835 1295.88770803 46.31427558 1296.0625 48.5 C1296.12564392 49.26541107 1296.18878784 50.03082214 1296.25384521 50.81942749 C1298.49324492 78.10636917 1299.57263121 105.44506523 1300.1875 132.8125 C1300.20814514 133.70659576 1300.22879028 134.60069153 1300.25006104 135.5218811 C1300.89477733 164.39710399 1300.58565433 193.2530755 1299.87280273 222.12255859 C1299.766527 226.45891965 1299.67726406 230.79547595 1299.59119701 235.13227844 C1299.5207166 238.52810352 1299.43779903 241.92354387 1299.35149574 245.31900024 C1299.3129525 246.91994705 1299.27902947 248.52101281 1299.25008202 250.12216187 C1298.91087127 268.38649469 1298.91087127 268.38649469 1293.125 275.0625 C1292.279375 275.784375 1291.43375 276.50625 1290.5625 277.25 C1289.94375 277.806875 1289.325 278.36375 1288.6875 278.9375 C1283.43545155 282.18141228 1277.92948438 282.47552188 1271.90234375 282.33984375 C1270.39267156 282.31642949 1268.88298635 282.29384381 1267.37329102 282.27197266 C1266.58173615 282.25741028 1265.79018127 282.2428479 1264.97463989 282.22784424 C1231.93216423 281.6891503 1199.33167844 285.57567177 1166.53930664 289.26806641 C1165.37731247 289.39853867 1164.2153183 289.52901093 1163.01811218 289.66343689 C1160.82216 289.9107705 1158.62643709 290.16015087 1156.4309845 290.41188049 C1155.45135239 290.52241257 1154.47172028 290.63294464 1153.46240234 290.74682617 C1152.60883148 290.84436691 1151.75526062 290.94190765 1150.87582397 291.04240417 C1148.5625 291.25 1148.5625 291.25 1144.5625 291.25 C1144.45891174 291.82359253 1144.35532349 292.39718506 1144.24859619 292.98815918 C1142.89785392 300.1217613 1141.03547205 307.05192226 1139.046875 314.03125 C1138.68399413 315.31544415 1138.32145199 316.59973406 1137.95921326 317.8841095 C1137.16887648 320.68344862 1136.37607602 323.48207426 1135.58139038 326.28018188 C1134.27612882 330.87606426 1132.97635752 335.47348993 1131.67700195 340.07104492 C1129.46199555 347.90563194 1127.24279989 355.73902678 1125.02225399 363.57204533 C1121.8028412 374.92887248 1118.58695137 386.28669697 1115.37109375 397.64453125 C1115.06229153 398.73515932 1114.7534893 399.82578739 1114.43532944 400.9494648 C1112.52927114 407.68136544 1110.62334883 414.41330457 1108.71748352 421.14525986 C1107.7460173 424.57656728 1106.77444561 428.00784482 1105.80285645 431.43911743 C1086.69237918 498.93254323 1067.79148376 566.48377936 1049.0032959 634.06756592 C1047.78220285 638.4599317 1046.56078522 642.85220715 1045.33926582 647.24445438 C1025.05758961 720.17185501 1004.82694586 793.11343375 984.77804947 866.10521317 C984.0008618 868.93436283 983.22342011 871.76344257 982.44589233 874.59249878 C977.21462407 893.6269422 971.9913043 912.66345972 966.80252075 931.70953369 C954.80330961 975.75358463 942.48507085 1019.67271726 929.52064705 1063.44232368 C923.80087449 1082.7581268 918.21434402 1102.11223916 912.63270569 1121.46832657 C911.81447879 1124.30563826 910.99597148 1127.14286891 910.17736816 1129.98007202 C907.98102103 1137.59248582 905.78497162 1145.20498532 903.58999634 1152.8177948 C899.61772667 1166.59462991 895.64043199 1180.37000715 891.66015625 1194.14453125 C891.08820016 1196.12402831 890.51624479 1198.10352559 889.94429016 1200.08302307 C887.42974033 1208.78541945 884.91477412 1217.48769525 882.3989687 1226.18972874 C881.07042281 1230.78526953 879.74215477 1235.38089059 878.4140625 1239.9765625 C878.03126664 1241.30114125 878.03126664 1241.30114125 877.64073753 1242.65247917 C874.52291704 1253.44268624 871.41528435 1264.23572657 868.32509041 1275.03387833 C867.44125422 1278.12133533 866.55582081 1281.20833434 865.6706543 1284.29541016 C864.4458222 1288.56713234 863.22649062 1292.84036176 862.01098633 1297.11474609 C852.80412315 1329.33842186 852.80412315 1329.33842186 844.54296875 1334.515625 C839.67606005 1337.08000732 835.3773384 1338.37179344 829.85503674 1338.38726711 C828.43616738 1338.39429215 828.43616738 1338.39429215 826.98863399 1338.4014591 C825.9551074 1338.40106118 824.92158081 1338.40066327 823.85673523 1338.4002533 C822.21226856 1338.40439883 822.21226856 1338.40439883 820.53458035 1338.40862811 C816.8663649 1338.41459672 813.19824515 1338.41123926 809.5300293 1338.40600586 C808.24969358 1338.4052738 806.96935786 1338.40454174 805.65022409 1338.40378749 C775.71417741 1338.3733483 745.79868143 1337.69365339 715.87387737 1336.92695922 C708.13595301 1336.72893243 700.39783628 1336.53892663 692.65970989 1336.34898829 C678.85494116 1336.00988723 665.05034861 1335.66410494 651.24584961 1335.31420898 C637.92175263 1334.97649623 624.59754459 1334.64369249 611.27319336 1334.31616211 C610.03183127 1334.28564676 610.03183127 1334.28564676 608.76539115 1334.25451494 C607.9390681 1334.23420286 607.11274506 1334.21389078 606.26138192 1334.19296318 C590.93088511 1333.81609478 575.60049367 1333.43508935 560.27015248 1333.05194505 C554.89895778 1332.91778476 549.52773541 1332.7847698 544.15650368 1332.65210152 C537.62922349 1332.4907849 531.10200947 1332.32702251 524.57486472 1332.16031284 C521.25727589 1332.0756173 517.93966928 1331.99218945 514.62199593 1331.91083336 C491.79947558 1331.34995154 491.79947558 1331.34995154 482.78471375 1330.86289978 C481.71106914 1330.80663894 480.63742453 1330.75037809 479.53124523 1330.69241238 C471.37281323 1329.47661546 464.03047531 1325.09375001 459.06811523 1318.52050781 C454.37362641 1311.44109382 452.56400767 1302.96893526 450.62634277 1294.80534363 C450.4435269 1294.03589039 450.26071102 1293.26643715 450.07235527 1292.47366714 C449.88347803 1291.67798199 449.69460079 1290.88229683 449.5 1290.0625 C449.12988926 1288.50828689 448.75974112 1286.95408269 448.38955688 1285.39988708 C446.29326217 1276.58541312 444.21118163 1267.76790495 442.16186523 1258.94238281 C435.18527792 1228.91254997 427.94210123 1198.95126839 420.62030029 1169.00392914 C419.18389031 1163.12704749 417.74947456 1157.24967941 416.31501436 1151.37232161 C413.58942319 1140.20504565 410.86210893 1129.03819163 408.13378906 1117.87158203 C405.22438462 1105.96326206 402.31954493 1094.05383588 399.41772652 1082.14366531 C389.74976786 1042.46408116 380.01947229 1002.80036505 370.20703125 963.15625 C369.98898016 962.27527334 369.77092907 961.39429668 369.54627037 960.48662376 C369.32921251 959.60967165 369.11215466 958.73271954 368.88851929 957.82919312 C368.67250439 956.95645123 368.45648949 956.08370934 368.23392868 955.18452072 C367.79983013 953.43071339 367.36571 951.67691139 366.93156815 949.92311478 C364.20401405 938.90357218 361.48601529 927.88175463 358.78290749 916.85618973 C344.65885859 859.24982765 330.10385404 801.75213985 315.5625 744.25 C313.5716771 747.23623434 312.72571368 749.54035227 311.6809082 752.94970703 C311.31392822 754.13823273 310.94694824 755.32675842 310.56884766 756.55130005 C310.16695842 757.87012724 309.76510412 759.18896508 309.36328125 760.5078125 C308.93676419 761.89426344 308.5097499 763.28056149 308.08227539 764.66671753 C307.16068758 767.65787557 306.24191987 770.64987931 305.3253479 773.64257812 C303.09950834 780.90908431 300.85932424 788.1711709 298.61879539 795.43315887 C298.09933361 797.11688968 297.58003935 798.80067218 297.06090736 800.4845047 C293.30396824 812.66797242 289.50354777 824.83695585 285.65625 836.9921875 C285.41646172 837.74982077 285.17667343 838.50745403 284.92961884 839.28804588 C283.96536671 842.33408663 283.00080011 845.38002762 282.03591537 848.42586803 C256.20899576 929.95797477 232.00394297 1011.96227652 191.6875 1175.8125 C189.65047621 1184.29278841 187.61015001 1192.77227063 185.5625 1201.25 C185.31902832 1202.25820801 185.07555664 1203.26641602 184.82470703 1204.30517578 C178.90548944 1228.78045222 172.61821741 1253.13024723 165.8125 1277.375 C165.35571869 1279.01530685 165.35571869 1279.01530685 164.88970947 1280.68875122 C161.72540574 1292.01762741 158.37412298 1303.26390971 154.484375 1314.3671875 C154.18114319 1315.26212921 153.87791138 1316.15707092 153.56549072 1317.07913208 C150.95588718 1324.29506163 147.69718911 1329.99311354 140.5982666 1333.45544434 C134.90765851 1335.86229268 129.73996273 1335.52606189 123.67285156 1335.09521484 C121.97118521 1335.00156678 121.97118521 1335.00156678 120.23514175 1334.90602684 C117.85572555 1334.77260454 115.4768425 1334.62933766 113.09858704 1334.47661591 C109.73931665 1334.26133158 106.37984351 1334.07221134 103.01843262 1333.89385986 C97.46134461 1333.59562787 91.90609949 1333.27201579 86.35097885 1332.93928528 C82.65789384 1332.7182441 78.96461517 1332.5007193 75.27127075 1332.28405762 C70.66950439 1332.01406614 66.06776605 1331.74361567 61.46608174 1331.47222924 C5.49123952 1328.15167714 5.49123952 1328.15167714 -50.5164032 1325.46105194 C-52.50108752 1325.3775828 -54.48571333 1325.2927259 -56.47033691 1325.20782471 C-65.12468337 1324.8423364 -73.77990086 1324.527556 -82.4375 1324.25 C-83.47654228 1324.21626219 -83.47654228 1324.21626219 -84.53657532 1324.1818428 C-106.1801245 1323.48404777 -127.8144204 1323.17239639 -149.46875 1323.07421875 C-151.81533891 1323.06224489 -154.16192706 1323.05011896 -156.5085144 1323.0378418 C-170.91215452 1322.9640954 -170.91215452 1322.9640954 -185.31591797 1322.92407227 C-191.29496233 1322.91399719 -197.27364639 1322.88475862 -203.25254822 1322.84275246 C-205.50110661 1322.83050869 -207.74971566 1322.82530897 -209.99830627 1322.82755089 C-213.11320219 1322.82990358 -216.22704382 1322.8077649 -219.34179688 1322.7800293 C-220.25072189 1322.78663071 -221.15964691 1322.79323212 -222.09611511 1322.80003357 C-228.14155051 1322.71172437 -232.27291476 1321.35193912 -237.4375 1318.25 C-238.675 1317.6003125 -238.675 1317.6003125 -239.9375 1316.9375 C-248.72581116 1311.00538996 -252.99089167 1305.52055592 -255.13671875 1294.9453125 C-255.45157081 1293.43593156 -255.76695019 1291.92666054 -256.08276367 1290.41748047 C-256.24988861 1289.60583435 -256.41701355 1288.79418823 -256.58920288 1287.95794678 C-260.3337435 1269.90643293 -264.62757221 1252.00173751 -269.125 1234.125 C-269.44134399 1232.86575714 -269.75768799 1231.60651428 -270.08361816 1230.30911255 C-274.3289275 1213.41867589 -278.61742539 1196.53913263 -282.89925671 1179.65792847 C-285.55205882 1169.1976824 -288.2001755 1158.73625477 -290.84637928 1148.27433777 C-292.50989495 1141.69864889 -294.17644319 1135.1237556 -295.84945679 1128.55047607 C-306.44100559 1086.93159612 -316.01544098 1045.26602724 -324.23815918 1003.11846924 C-325.29219936 997.71626031 -326.35489874 992.31577309 -327.41894531 986.91552734 C-327.79428624 985.0101939 -328.16962188 983.10485942 -328.54495239 981.19952393 C-328.73346897 980.24257881 -328.92198555 979.2856337 -329.11621475 978.29969025 C-330.08636863 973.37331367 -331.05508217 968.44665392 -332.02392578 963.52001953 C-332.62420872 960.46816663 -333.22453001 957.41632128 -333.82486725 954.36447906 C-334.23634486 952.27262486 -334.6477771 950.18076173 -335.05916595 948.08889008 C-349.72906008 872.46754647 -349.72906008 872.46754647 -366.90461731 797.38954163 C-367.48183274 795.07200259 -368.05800322 792.75420498 -368.63415527 790.43640137 C-390.25698774 703.49999067 -413.1826367 616.91151896 -446.76879883 491.93481445 C-462.20378879 434.56300261 -477.55848793 377.17068604 -492.5425415 319.67919922 C-493.50538949 315.98986883 -494.47220035 312.30158714 -495.43896484 308.61328125 C-496.08834116 306.12763682 -496.73759614 303.64196069 -497.38671875 301.15625 C-497.69293655 299.99105835 -497.99915436 298.8258667 -498.31465149 297.62536621 C-498.59326523 296.55596802 -498.87187897 295.48656982 -499.15893555 294.38476562 C-499.40645065 293.43911743 -499.65396576 292.49346924 -499.90898132 291.51916504 C-500.4375 289.25 -500.4375 289.25 -500.4375 287.25 C-501.06273591 287.25184359 -501.68797182 287.25368717 -502.33215427 287.25558662 C-517.60912505 287.29992947 -532.88607581 287.33293573 -548.16309452 287.35362434 C-555.55121752 287.36389743 -562.93929732 287.377881 -570.32739258 287.40087891 C-576.77362409 287.42093523 -583.21982429 287.43374519 -589.66608614 287.43817699 C-593.07318182 287.44076385 -596.48018798 287.44675923 -599.88725471 287.46146011 C-644.82497797 287.63383833 -644.82497797 287.63383833 -658.4375 275.25 C-679.26866961 253.26154319 -672.64805691 205.5280013 -672.625 177.9375 C-672.62472809 176.69321228 -672.62445618 175.44892456 -672.62417603 174.16693115 C-672.59919246 148.94551854 -671.84735574 123.78816419 -670.60217285 98.5994873 C-670.42958329 95.08897205 -670.26290799 91.57820467 -670.09667969 88.06738281 C-669.80843591 82.03561397 -669.50246624 76.00497414 -669.18276978 69.97479248 C-669.06220887 67.68270599 -668.94524694 65.39042698 -668.8321228 63.09796143 C-668.67317837 59.92382432 -668.49722253 56.75108182 -668.31640625 53.578125 C-668.25070938 52.18178329 -668.25070938 52.18178329 -668.1836853 50.75723267 C-667.83286173 45.0152152 -666.67063832 40.55315003 -664.4375 35.25 C-664.12360662 33.7584164 -663.84259276 32.25864313 -663.625 30.75 C-662.39047469 24.93869792 -659.45151822 20.42966554 -654.6171875 16.93359375 C-646.41359558 12.43324272 -636.9280844 11.95444664 -627.76953125 11.72265625 C-626.21591133 11.67254898 -626.21591133 11.67254898 -624.63090515 11.62142944 C-622.3670049 11.54925034 -620.1029823 11.48083268 -617.83886719 11.41574097 C-612.18995095 11.25323855 -606.54176688 11.06842801 -600.89347458 10.88569069 C-598.83359767 10.8193566 -596.77368919 10.75407407 -594.71377563 10.68888855 C-583.6549763 10.33631956 -572.59895363 9.92345215 -561.54296875 9.4921875 C-559.82119249 9.42526583 -558.09941616 9.35834587 -556.37763977 9.29142761 C-548.89668935 9.00014364 -541.41580206 8.7073635 -533.93512917 8.40902901 C-491.02031728 6.71701053 -448.14830759 6.08322593 -405.20077214 5.98467991 C-397.74807945 5.96730489 -390.29540817 5.94397746 -382.84273337 5.92026538 C-369.49477315 5.87786957 -356.14680588 5.83868502 -342.79882812 5.80224609 C-342.00699123 5.80008329 -341.21515433 5.79792049 -340.39932238 5.79569215 C-335.58900872 5.78257079 -330.77869486 5.7695274 -325.96838093 5.75651073 C-318.77221458 5.73703665 -311.57604846 5.71748488 -304.37988281 5.69775391 C-303.19819699 5.6945156 -303.19819699 5.6945156 -301.99263872 5.69121188 C-288.69196883 5.6546558 -275.39131113 5.61467853 -262.09065807 5.57245111 C-254.68571937 5.54908623 -247.2807839 5.52742985 -239.87582779 5.51036072 C-195.88165744 5.40825598 -151.88952101 5.08318049 -107.92156982 3.43377686 C-104.45388647 3.30373955 -100.98600242 3.18023403 -97.51806641 3.05712891 C-86.44889477 2.65849529 -75.38347235 2.21681928 -64.3203125 1.67578125 C-42.87293286 0.63580827 -21.47499971 0.04341718 0 0 Z M-37.23828125 46.08984375 C-39.61970761 46.17761719 -42.00115246 46.26489 -44.38261414 46.35169983 C-50.58704531 46.57891541 -56.79125688 46.81161371 -62.99542236 47.04595947 C-130.78066927 49.60133601 -130.78066927 49.60133601 -158.74661636 50.19185257 C-161.60494853 50.2536184 -164.46315788 50.31981373 -167.32138062 50.38644409 C-201.93632903 51.18030981 -236.54124424 51.33304872 -271.1640625 51.3125 C-272.24749152 51.31185799 -273.33092054 51.31121597 -274.44718075 51.3105545 C-291.31896621 51.29957388 -308.19073153 51.27564184 -325.0625 51.25 C-343.03384987 51.22269723 -361.00519405 51.19830508 -378.9765625 51.1875 C-380.05569892 51.18683958 -381.13483534 51.18617915 -382.24667287 51.18549871 C-431.6979616 51.15927217 -481.10636631 51.78227938 -530.52734375 53.64453125 C-532.37706032 53.71339287 -532.37706032 53.71339287 -534.2641449 53.78364563 C-550.32687133 54.38802027 -566.38773565 55.03899033 -582.44765854 55.71347809 C-584.79919057 55.8119427 -587.1507652 55.90933195 -589.50234985 56.00653076 C-593.1955135 56.15961266 -596.8884786 56.31684279 -600.58132744 56.47733498 C-602.59310526 56.564022 -604.60503094 56.6472561 -606.61695862 56.73039246 C-608.43150795 56.81079521 -608.43150795 56.81079521 -610.28271484 56.89282227 C-611.33196136 56.93786392 -612.38120789 56.98290558 -613.46224976 57.02931213 C-616.50167794 57.25476037 -619.44070854 57.70265081 -622.4375 58.25 C-625.23786682 95.05096203 -626.78822631 131.78789078 -626.69824219 168.69775391 C-626.68670009 173.47721397 -626.69371609 178.25645467 -626.70514679 183.03590775 C-626.74442892 202.53379469 -626.65952437 221.85157538 -624.4375 241.25 C-611.78279667 242.30258082 -599.18473284 242.37086945 -586.49291992 242.32516479 C-582.85790422 242.31221647 -579.2229257 242.30583917 -575.58789062 242.30102539 C-567.87107692 242.28968596 -560.15429424 242.27045172 -552.4375 242.25 C-543.48397014 242.22627058 -534.53045843 242.20591824 -525.5769043 242.19406128 C-522.02324977 242.18765459 -518.46965198 242.17515056 -514.91601562 242.16235352 C-476.42235298 242.07081983 -476.42235298 242.07081983 -466.125 252.0625 C-456.62326929 264.05476689 -454.69238023 283.58162006 -450.99902344 298.13467407 C-449.12800445 305.50483864 -447.23599991 312.86963806 -445.34375 320.234375 C-445.1449826 321.00827387 -444.94621521 321.78217274 -444.74142456 322.57952309 C-440.06804117 340.76562489 -435.26861521 358.91774853 -430.4375 377.0625 C-430.22112129 377.87536846 -430.00474258 378.68823692 -429.78180695 379.52573776 C-421.56212209 410.39995508 -413.26458673 441.25328252 -404.96351242 472.10569477 C-366.7957495 613.96343415 -366.7957495 613.96343415 -351.00424194 675.0579834 C-350.40854478 677.36199158 -349.81234875 679.66587027 -349.21606445 681.96972656 C-326.99141711 767.8502675 -306.63594143 853.80606731 -287.91958427 951.64235306 C-277.76412853 1005.28400275 -277.76412853 1005.28400275 -266.0602417 1058.60327148 C-265.41507418 1061.3453125 -264.77900482 1064.08933743 -264.14501953 1066.83398438 C-258.67282197 1090.49186144 -252.79111304 1114.03383697 -246.65625 1137.52734375 C-246.26934431 1139.00908931 -246.26934431 1139.00908931 -245.87462234 1140.52076912 C-243.27178182 1150.48325018 -240.65962244 1160.44322168 -238.0282917 1170.3982172 C-232.65087787 1190.74891871 -227.41493506 1211.12395842 -222.5078125 1231.59375 C-222.28601192 1232.51507217 -222.06421135 1233.43639435 -221.83568954 1234.38563538 C-218.41769842 1248.61636093 -215.35682593 1262.90907891 -212.4375 1277.25 C-211.1403154 1277.25808685 -209.8431308 1277.26617371 -208.50663757 1277.27450562 C-82.63575805 1278.06930007 -82.63575805 1278.06930007 -39.4375 1280.25 C-38.65247856 1280.28950272 -37.86745712 1280.32900543 -37.05864716 1280.3697052 C13.50553163 1282.91979812 64.04555391 1285.89398668 114.5625 1289.25 C123.57352391 1258.61673437 131.87184593 1227.8324515 139.6875 1196.875 C139.9069138 1196.00602585 140.12632759 1195.1370517 140.35239029 1194.241745 C147.57728907 1165.60421487 154.5427147 1136.90601585 161.4375 1108.1875 C182.51811293 1020.39041499 207.31194351 933.83453917 234.4654541 847.72937012 C245.85970509 811.5915782 257.24008143 775.44935446 268.4375 739.25 C268.65443512 738.54894386 268.87137024 737.84788773 269.09487915 737.12558746 C273.92646329 721.50777281 278.70315262 705.87567728 283.328125 690.1953125 C283.51630421 689.5576873 283.70448341 688.9200621 283.89836502 688.26311493 C285.83905994 681.68457674 287.76785881 675.10275059 289.67919922 668.515625 C290.14456085 666.92317459 290.14456085 666.92317459 290.61932373 665.29855347 C291.19076532 663.34286656 291.75774542 661.38586755 292.31915283 659.42727661 C294.42970978 652.22534312 296.59612692 646.15568454 302.5625 641.25 C309.31892188 637.62531015 315.90891853 637.30391247 323.1875 639.4375 C328.60181339 641.43519494 332.1006848 644.08248092 335.375 648.9375 C336.70765061 652.65489381 337.05220108 655.95873012 337.25390625 659.8828125 C337.74083255 663.6179687 339.31017332 665.8998082 341.5004425 668.9395752 C343.66029275 672.40699637 344.70616287 675.35562923 345.77807617 679.28710938 C345.96605837 679.96628418 346.15404057 680.64545898 346.34771919 681.34521484 C346.96580699 683.59180243 347.56729186 685.84244982 348.16796875 688.09375 C348.60610314 689.70607406 349.04476964 691.31825362 349.4839325 692.93029785 C354.26022095 710.55054313 358.73280698 728.24991236 363.17399979 745.95697021 C364.13949479 749.80383965 365.10802084 753.64994381 366.07643795 757.49607849 C368.72946006 768.03326253 371.37557776 778.57216985 374.01885891 789.11180115 C376.04303243 797.18199568 378.07063789 805.25132304 380.09960938 813.3203125 C393.21239275 865.47526806 406.2248159 917.65003982 418.79632664 969.93831635 C425.51316959 997.87173035 432.35112164 1025.77355881 439.26511383 1053.65882874 C440.06061955 1056.8674154 440.85576498 1060.07609115 441.65081787 1063.28479004 C446.49674959 1082.84059712 451.35001542 1102.39456273 456.2250824 1121.94312859 C458.80109278 1132.2732935 461.37192297 1142.6047389 463.9375 1152.9375 C464.16142929 1153.83908844 464.38535858 1154.74067688 464.61607361 1155.66958618 C472.65314813 1188.0421409 480.30311014 1220.49769979 487.75146484 1253.01049805 C487.94298567 1253.84588199 488.13450649 1254.68126593 488.33183098 1255.54196453 C489.22441885 1259.43610831 490.1149663 1263.33068911 491.00057983 1267.22642517 C491.31382103 1268.59773707 491.62710191 1269.96903991 491.94042969 1271.34033203 C492.20716492 1272.51306671 492.47390015 1273.68580139 492.74871826 1274.89407349 C493.59414664 1278.38050648 494.55428379 1281.80766374 495.5625 1285.25 C537.99021599 1286.62577492 580.41997101 1287.91000378 622.85275018 1289.11903989 C628.14804141 1289.27004384 633.44329243 1289.42240668 638.73852539 1289.57543945 C709.67389467 1291.70091328 709.67389467 1291.70091328 780.63397217 1292.31866455 C784.61274615 1292.30801682 788.59152808 1292.303783 792.5703125 1292.29882812 C800.23439428 1292.28842887 807.8984407 1292.27161555 815.5625 1292.25 C818.60524434 1281.91698376 821.64680873 1271.58362056 824.6875 1261.25 C824.91644833 1260.47194756 825.14539665 1259.69389511 825.38128281 1258.89226532 C831.34005203 1238.64124893 837.28467587 1218.38636579 843.17703247 1198.11590576 C847.01402581 1184.92060472 850.89286198 1171.73809392 854.796875 1158.5625 C879.60415933 1074.81937827 903.10464862 990.71558459 940.70700836 853.38265991 C964.77749957 765.24075473 988.89652232 677.11785139 1013.77177048 589.19918442 C1017.00242624 577.78057796 1020.22188099 566.35887657 1023.43172455 554.93440247 C1032.33862922 523.23462923 1041.30043747 491.55371625 1050.5 459.9375 C1057.87009466 434.60551513 1065.16373976 409.25269588 1072.375 383.875 C1072.61873856 383.01737438 1072.86247711 382.15974876 1073.11360168 381.27613449 C1080.24735239 356.16810122 1087.26246761 331.03122781 1094.0480957 305.82666016 C1096.99513741 294.88991183 1099.9793121 283.99956371 1103.5625 273.25 C1103.6626156 271.70933215 1103.74394913 270.16739467 1103.8125 268.625 C1104.52665264 261.32358863 1107.03848823 256.42227851 1112.58984375 251.64453125 C1119.52874652 247.55372659 1128.21063592 247.54137374 1136.0625 246.75 C1137.9275801 246.54796132 1139.79248626 246.34431135 1141.65722656 246.13916016 C1145.60301085 245.70889977 1149.54988782 245.29166794 1153.49804688 244.88378906 C1158.48051247 244.36744338 1163.45896359 243.82057934 1168.43676758 243.26124573 C1196.76852393 240.08112375 1225.10010657 237.86225324 1253.5625 236.25 C1254.90282165 215.48041272 1254.76020422 194.6819024 1254.75117874 173.87912369 C1254.74999173 170.85393412 1254.75053403 167.82874802 1254.75119019 164.80355835 C1254.74984569 135.95849401 1254.49218304 107.17080347 1252.69464111 78.37164307 C1252.56062441 76.21988578 1252.43414811 74.06776487 1252.30810547 71.91552734 C1252.22546183 70.5621422 1252.14231849 69.20878744 1252.05859375 67.85546875 C1251.98697021 66.6955542 1251.91534668 65.53563965 1251.84155273 64.34057617 C1251.59146867 61.570835 1251.1309628 58.96749483 1250.5625 56.25 C1249.88191339 56.24668985 1249.20132679 56.24337971 1248.50011635 56.23996925 C1231.66693164 56.15748694 1214.83383101 56.06503348 1198.00075722 55.96247292 C1189.85924623 55.91309063 1181.71774176 55.86671048 1173.57617188 55.828125 C1138.09523803 55.65832981 1102.70447992 55.18496934 1067.25391293 53.57417679 C1054.38009734 53.0021653 1041.51120582 52.85996785 1028.625 52.875 C1027.26486192 52.87367715 1025.90472397 52.87220791 1024.54458618 52.87060547 C995.83961858 52.85824957 967.19343473 54.13205522 938.52136993 55.39186096 C890.91352018 57.48196443 843.12267343 59.36615265 795.5625 55.25 C794.70397479 59.71865896 794.42316215 63.96560836 794.38891602 68.51318359 C794.38218652 69.21825169 794.37545702 69.92331978 794.3685236 70.64975357 C794.35444945 72.17949582 794.34249945 73.70925878 794.33244705 75.23903275 C794.3160897 77.69598517 794.29377105 80.15282072 794.26986694 82.60971069 C794.23600756 86.12240244 794.20409308 89.63510286 794.17379761 93.14782715 C793.95795737 117.78122724 793.73683876 142.3929613 792.5 167 C791.25899112 191.74599725 791.36059201 216.47895728 791.5625 241.25 C795.66511681 242.36744661 799.7226932 242.59956656 803.953125 242.80859375 C804.7897467 242.85084579 805.62636841 242.89309784 806.48834229 242.93663025 C815.45869784 243.34960358 824.42099751 243.36463024 833.39904785 243.32516479 C836.40503644 243.31209774 839.41097958 243.30581052 842.41699219 243.30102539 C848.79884884 243.28974179 855.1806672 243.27051338 861.5625 243.25 C868.97318284 243.22617955 876.3838431 243.20585804 883.79455566 243.19406128 C886.71821179 243.18770499 889.64179609 243.17520514 892.56542969 243.16235352 C901.39926563 243.13713887 910.21384514 243.22977118 919.0390625 243.64453125 C919.81034485 243.67723618 920.5816272 243.7099411 921.37628174 243.74363708 C927.61228632 244.08123944 932.94103538 245.47178856 938.5625 248.25 C939.39394531 248.64574219 940.22539063 249.04148437 941.08203125 249.44921875 C946.63832653 252.29468822 950.33469766 255.04431972 952.63671875 261.0546875 C956.8811463 275.70423068 950.53348777 292.71773126 946.77734375 306.92578125 C943.66713805 318.78020813 940.67378832 330.66080346 937.75 342.5625 C937.48092834 343.65728668 937.21185669 344.75207336 936.93463135 345.8800354 C931.75054249 367.02319544 926.80829832 388.22032757 921.9375 409.4375 C921.75450851 410.23456486 921.57151703 411.03162971 921.38298035 411.85284805 C917.03075597 430.82016033 912.75514108 449.80112013 908.63528442 468.82043457 C890.57925906 552.08441163 868.24389424 634.44683581 837.54571533 734.09460449 C836.53849818 737.32702813 835.53440637 740.5604108 834.53076172 743.79394531 C800.6710308 852.77660298 800.6710308 852.77660298 780.73388672 900.96826172 C778.27706054 906.91978825 775.89108058 912.8991788 773.50390625 918.87890625 C772.21425641 922.10177186 770.92380297 925.32431418 769.63293457 928.54669189 C768.80799859 930.60639012 767.98383414 932.66639757 767.16052246 934.72674561 C754.18149402 967.15151119 754.18149402 967.15151119 745.234375 971.33984375 C738.65447925 973.58124099 731.57520334 973.11725377 725.25 970.3125 C719.98803807 967.32734852 716.81139503 963.26410263 713.5625 958.25 C713.1823877 957.74702393 712.80227539 957.24404785 712.41064453 956.72583008 C707.69689658 950.06786561 706.06223262 942.34243366 704.0625 934.5625 C703.63492964 932.93379068 703.20685304 931.30521419 702.77832031 929.67675781 C701.59890123 925.16820862 700.44351907 920.65382389 699.29614258 916.13702393 C698.55403569 913.21669131 697.80739333 910.29754167 697.06054688 907.37841797 C687.58098399 870.21269521 679.37287399 832.79492233 671.5625 795.25 C671.30660095 794.02142273 671.0507019 792.79284546 670.78704834 791.52703857 C658.28914693 731.41208199 647.61979185 670.9325271 636.78637695 610.50073242 C621.65801426 526.11372008 605.57384786 442.028329 586.65550804 356.30212021 C584.58065602 346.90387001 582.52818706 337.50103976 580.4957428 328.09352875 C561.43310675 239.8677047 541.23015947 151.54577867 504.5625 58.25 C471.7979935 56.69497272 439.24392797 57.72826426 406.50024414 59.13208008 C380.57130788 60.23801136 354.80472294 60.81751343 328.875 59.25 C326.37400322 59.10495825 323.87289946 58.96224315 321.37162781 58.82202148 C319.85094622 58.73619077 318.33042359 58.64746086 316.81013489 58.55493164 C311.72036982 58.25946138 306.66096573 58.21491378 301.5625 58.25 C295.06608569 80.55917833 289.33160112 102.98720089 283.9755249 125.59452057 C282.94263302 129.94689906 281.90167359 134.29734748 280.86132812 138.64794922 C279.19183759 145.63242868 277.52546169 152.61764166 275.86181641 159.60351562 C270.48754212 182.16649036 265.04705654 204.71358772 259.5625 227.25 C259.39386948 227.94300957 259.22523895 228.63601913 259.05149841 229.35002899 C239.82783062 308.33418082 219.72825452 387.12115527 178.08041382 530.79125977 C156.45409996 600.55962307 136.61423464 670.88978021 116.43359375 741.0859375 C101.71162192 792.29384621 86.86412733 843.46459434 71.73757935 894.55464935 C71.13528121 896.59025231 70.53403937 898.62616434 69.93310547 900.66217041 C62.91144035 924.44212802 62.91144035 924.44212802 59.20703125 935.734375 C58.97770401 936.44274506 58.74837677 937.15111511 58.51210022 937.88095093 C56.2206656 944.71945859 53.28851991 949.8856538 47.0625 953.6875 C39.55835829 956.92825218 29.44173193 957.39406627 21.58203125 955.1484375 C12.90681678 951.28905775 8.87398127 943.75489726 5.5625 935.25 C3.59631944 929.51465908 1.93286724 923.69193508 0.29492188 917.85595703 C-0.38981465 915.41966449 -1.08987968 912.98850592 -1.796875 910.55859375 C-3.05496315 906.22170049 -4.28662222 901.87770618 -5.51123047 897.53125 C-6.1818995 895.15544828 -6.85581904 892.78056336 -7.53173828 890.40625 C-27.64297125 819.74994356 -40.45427722 747.78819903 -52.79076862 675.45719147 C-67.94799066 586.59135966 -86.98489245 499.65064999 -128.91418457 353.37445068 C-130.29736707 348.66081504 -131.67443193 343.94539875 -133.05194092 339.23010254 C-133.95393048 336.15696204 -134.86809561 333.08766297 -135.78369141 330.01855469 C-138.71446112 320.08370978 -141.23661489 310.13662054 -143.3046875 299.984375 C-143.51384293 298.96760681 -143.72299835 297.95083862 -143.93849182 296.90325928 C-146.05999164 286.01726108 -148.41771163 272.06575646 -142.6171875 261.96484375 C-142.03324219 261.11599609 -142.03324219 261.11599609 -141.4375 260.25 C-140.756875 259.1775 -140.07625 258.105 -139.375 257 C-131.82257246 248.73594555 -119.23053622 247.58785471 -108.74609375 247.06640625 C-101.37639547 246.94393815 -94.12064083 247.32274533 -86.77999878 247.97076416 C-72.93681886 249.17950438 -59.18728862 249.56145493 -45.29589844 249.51074219 C-41.80646496 249.49998139 -38.31754355 249.51074515 -34.828125 249.5234375 C-10.82653294 250.2861395 -10.82653294 250.2861395 12.5625 246.25 C12.58676056 245.38322884 12.58676056 245.38322884 12.61151123 244.49894714 C13.45866312 214.59575807 14.61878988 184.73456842 16.4375 154.875 C16.47960602 154.18249523 16.52171204 153.48999046 16.56509399 152.7765007 C17.50939355 137.28112471 18.51701763 121.79011875 19.56801224 106.30163193 C19.70980364 104.21202246 19.85118512 102.12238554 19.99252319 100.03274536 C20.43376681 93.51938535 20.88186302 87.0066008 21.34326172 80.49462891 C22.14080185 69.06204797 22.86381158 57.71418833 22.5625 46.25 C16.11598344 45.08615823 9.77543892 45.10479892 3.23754883 45.13500977 C2.04605382 45.13815217 0.85455881 45.14129457 -0.37304211 45.1445322 C-12.67156608 45.20710318 -24.94989361 45.61656017 -37.23828125 46.08984375 Z " fill="#000000" transform="translate(730.4375,375.75)"/>
</svg>
