<?xml version="1.0" encoding="UTF-8"?>
<svg version="1.1" xmlns="http://www.w3.org/2000/svg" width="2100" height="2100">
<path d="M0 0 C5.35889503 5.70377441 6.64016114 11.07633577 8.140625 18.6171875 C8.65013307 21.043709 9.16346671 23.46942895 9.6796875 25.89453125 C9.89210335 26.89871597 9.89210335 26.89871597 10.10881042 27.92318726 C11.79887738 35.84450049 13.69573431 43.71629896 15.57055664 51.59545898 C26.05569591 95.6656084 33.53853288 139.87049439 40.22351074 184.67672729 C46.37257528 225.87206737 54.03630846 266.56678659 63.15234375 307.203125 C63.3555851 308.10965254 63.55882645 309.01618008 63.76822662 309.95017815 C65.80159073 319.01538164 67.84256144 328.07869456 69.91821575 337.1343174 C81.05511355 385.76040515 89.68812527 434.88068092 98.51867676 483.96594238 C102.52014721 506.20717608 106.53243793 528.4464495 110.578125 550.6796875 C110.85027643 552.1768952 110.85027643 552.1768952 111.12792587 553.70434952 C114.87205879 574.28289209 119.00287617 594.67686939 124.015625 614.9921875 C125.0873355 619.33996928 126.14683148 623.6904746 127.19921875 628.04296875 C127.43974472 629.0011702 127.68027069 629.95937164 127.92808533 630.9466095 C129.49245504 637.42264772 130.73211897 643.41003792 128.453125 649.8671875 C125.3528116 654.51765761 122.28011174 657.16334145 116.98657227 658.76928711 C115.05382446 659.07878296 115.05382446 659.07878296 113.08203125 659.39453125 C112.38010147 659.50989731 111.67817169 659.62526337 110.95497131 659.74412537 C104.16943654 660.82593411 97.35890659 661.62921556 90.515625 662.2421875 C89.84959259 662.30250153 89.18356018 662.36281555 88.49734497 662.42495728 C57.89325351 665.13531689 26.98235204 665.7903076 -3.73043823 665.97622681 C-5.41807357 665.98672223 -7.10568852 666.00155103 -8.79324341 666.02108765 C-29.23900987 666.22949337 -29.23900987 666.22949337 -35.671875 659.9296875 C-42.79121839 650.57060552 -44.67056363 636.20359389 -46.921875 624.9296875 C-47.06706573 624.21854797 -47.21225647 623.50740845 -47.36184692 622.77471924 C-50.80485268 605.85762714 -53.1947707 588.79322577 -55.421875 571.6796875 C-56.37819824 571.74534912 -57.33452148 571.81101074 -58.31982422 571.87866211 C-67.66845385 572.50240449 -77.00833138 572.9273458 -86.37402344 573.18237305 C-88.52554085 573.24160021 -90.67680603 573.30704496 -92.828125 573.37304688 C-115.20810694 574.02886821 -137.55146135 573.52641791 -159.92435837 572.87197113 C-162.25709219 572.80402582 -164.58985876 572.73732791 -166.92263794 572.67095947 C-194.09865657 571.89595141 -221.26205486 570.90304966 -248.421875 569.6796875 C-248.82805054 570.96963623 -248.82805054 570.96963623 -249.24243164 572.28564453 C-250.40874134 575.64189323 -251.77746321 578.77191826 -253.29296875 581.984375 C-253.57094299 582.57655319 -253.84891724 583.16873138 -254.13531494 583.77885437 C-255.04032417 585.70556478 -255.94978725 587.63013493 -256.859375 589.5546875 C-258.1370624 592.26875897 -259.41251964 594.98387471 -260.6875 597.69921875 C-261.00655807 598.37804611 -261.32561615 599.05687347 -261.65434265 599.75627136 C-264.07538818 604.91631821 -266.43601517 610.10202825 -268.77880859 615.2980957 C-272.74791686 624.08038498 -276.85317091 632.78224393 -281.234375 641.3671875 C-281.66645264 642.23480713 -282.09853027 643.10242676 -282.54370117 643.99633789 C-286.74141936 652.06082046 -291.5462353 655.90060386 -300.22265625 658.7734375 C-319.88661876 664.34369306 -340.74443525 664.86416801 -361.0546875 664.87890625 C-361.7777005 664.8798315 -362.5007135 664.88075676 -363.24563599 664.88171005 C-379.94051113 664.87335548 -396.51941543 663.77069501 -413.15661621 662.47845459 C-416.21259658 662.24403157 -419.26940764 662.02168844 -422.32629395 661.79944229 C-431.36249338 661.14218782 -440.39267447 660.42689137 -449.421875 659.6796875 C-450.9672998 659.55805237 -450.9672998 659.55805237 -452.54394531 659.43395996 C-455.08871417 659.22979544 -457.63007788 659.00356335 -460.171875 658.765625 C-461.46609375 658.65009277 -462.7603125 658.53456055 -464.09375 658.41552734 C-468.73523183 657.3893077 -471.90807513 655.3820353 -475.06373596 651.83332825 C-477.4916908 647.98324934 -477.03920545 644.07074984 -476.421875 639.6796875 C-475.28147008 636.23680769 -473.68502 633.12501259 -471.98828125 629.92578125 C-471.05919675 628.0777475 -470.13501906 626.22724012 -469.21533203 624.37451172 C-468.74605286 623.43307312 -468.27677368 622.49163452 -467.79327393 621.52166748 C-465.61868923 617.01522807 -463.70885135 612.41107212 -461.82421875 607.77734375 C-461.4544693 606.8700351 -461.08471985 605.96272644 -460.70376587 605.02792358 C-459.5841312 602.26794007 -458.4714713 599.50521579 -457.359375 596.7421875 C-456.61452162 594.90405796 -455.86907899 593.06616708 -455.12304688 591.22851562 C-453.63663844 587.56470271 -452.15171468 583.90029588 -450.66870117 580.23510742 C-450.30094574 579.32626801 -449.93319031 578.41742859 -449.55429077 577.48104858 C-448.78414145 575.57585935 -448.01499321 573.6702652 -447.24673462 571.76431274 C-443.01775774 561.27923801 -438.7795936 550.86749526 -433.734375 540.7421875 C-415.10502826 502.49918817 -399.83331737 463.14166447 -385.03944111 423.29051971 C-376.17104673 399.40500099 -367.07023448 375.59237544 -356.859375 352.2421875 C-356.59362671 351.63025543 -356.32787842 351.01832336 -356.05407715 350.3878479 C-352.60758239 342.45507228 -348.98783121 334.62886983 -345.171875 326.8671875 C-331.99274964 299.91133289 -321.48742633 271.55880913 -310.54512024 243.63960266 C-295.3943578 204.99158207 -280.18608466 166.38495908 -263.61019897 128.32284546 C-257.34763715 113.94079609 -251.31008809 99.47110561 -245.35620117 84.95874023 C-242.0538778 76.92246171 -238.69772106 68.91457161 -235.19140625 60.96484375 C-234.87683472 60.24669998 -234.56226318 59.52855621 -234.23815918 58.78865051 C-228.56025974 46.03180058 -221.35187216 35.47629664 -211.421875 25.6796875 C-210.40480469 24.66455078 -210.40480469 24.66455078 -209.3671875 23.62890625 C-181.3032767 -2.63006423 -136.608192 1.10335704 -101.0234375 0.46875 C-96.88539924 0.39415662 -92.74737776 0.31872567 -88.609375 0.2421875 C-87.57481171 0.22308319 -86.54024841 0.20397888 -85.47433472 0.18429565 C-65.98016136 -0.18735757 -46.48281729 -0.84258483 -27.078125 -2.859375 C-6.90432628 -4.93627066 -6.90432628 -4.93627066 0 0 Z M-126.421875 227.6796875 C-126.61629181 228.29830154 -126.81070862 228.91691559 -127.01101685 229.55427551 C-162.46821611 342.34918574 -162.46821611 342.34918574 -179.421875 379.6796875 C-181.01841275 383.20699995 -182.61304595 386.73517387 -184.20736694 390.26348877 C-185.80173755 393.79117058 -187.39885049 397.31754129 -189.00292969 400.84082031 C-189.44452171 401.81332733 -189.44452171 401.81332733 -189.89503479 402.80548096 C-190.69927525 404.57658355 -191.50522461 406.34690985 -192.3112793 408.1171875 C-193.4881519 410.36713997 -193.4881519 410.36713997 -193.421875 411.6796875 C-173.85926804 411.89701265 -154.41616187 411.76699829 -134.89160156 410.46582031 C-133.51108395 410.37410419 -132.13055009 410.2826323 -130.75 410.19140625 C-130.07173157 410.14654083 -129.39346313 410.10167542 -128.69464111 410.05545044 C-116.28666588 409.26116829 -103.84840121 409.023407 -91.421875 408.6796875 C-91.80753632 406.90853828 -91.80753632 406.90853828 -92.20098877 405.10160828 C-98.91709029 374.12797043 -104.59160338 343.07634609 -109.63934326 311.79083252 C-115.23904043 276.40457197 -115.23904043 276.40457197 -121.8125 241.19140625 C-122.05023132 240.01576614 -122.28796265 238.84012604 -122.53289795 237.62886047 C-122.75439514 236.58562119 -122.97589233 235.5423819 -123.20410156 234.4675293 C-123.39248596 233.58010544 -123.58087036 232.69268158 -123.77496338 231.77836609 C-124.30192138 229.48801458 -124.30192138 229.48801458 -126.421875 227.6796875 Z " fill="#000000" transform="translate(1946.421875,721.3203125)"/>
<path d="M0 0 C1.36947679 0.01163008 2.73895851 0.02269115 4.10844421 0.03321838 C18.44980284 0.17927998 32.76419144 0.91925456 47.08203125 1.71484375 C82.36062031 3.65540843 117.60922925 4.31428994 152.9375 4.5234375 C153.64508839 4.5276659 154.35267678 4.5318943 155.08170724 4.53625083 C169.03610803 4.61929844 182.99054958 4.69402016 196.94506836 4.75415039 C203.56386084 4.78273498 210.18258244 4.81820517 216.80129987 4.86080414 C220.25940785 4.8827538 223.71745364 4.90145384 227.17561913 4.91125298 C262.26850644 5.02421169 295.77871912 5.623901 322.83203125 30.90234375 C354.68963435 64.25836172 361.77106441 112.84106335 367.30612183 156.58425903 C377.84053044 239.63361077 393.69587126 321.043402 415.76953125 409.27734375 C423.66716564 390.59614066 431.41653651 371.8679385 438.76953125 352.96484375 C439.10279419 352.10819122 439.43605713 351.2515387 439.77941895 350.368927 C443.35419471 341.16928824 446.89674666 331.95761315 450.41015625 322.734375 C462.76109401 290.33641251 475.90281309 258.26820849 489.26953125 226.27734375 C507.75322162 182.01256072 525.08300201 137.87361362 539.88925552 92.24242401 C544.98459143 76.54238935 550.12753208 60.88661667 556.01953125 45.46484375 C556.26807861 44.80667664 556.51662598 44.14850952 556.77270508 43.47039795 C566.79846003 17.06547502 566.79846003 17.06547502 575.76953125 12.27734375 C582.30987271 9.85432504 588.62923138 9.98040499 595.546875 9.96875 C598.14665071 9.94596092 600.74642275 9.92274982 603.34619141 9.89916992 C604.72308172 9.88966245 606.09997389 9.88041943 607.47686768 9.87142944 C628.63808557 9.72419384 649.7730858 9.35217909 670.89453125 7.96484375 C671.84942444 7.9021228 672.80431763 7.83940186 673.78814697 7.77478027 C684.55831729 7.05039383 695.31192614 6.16204434 706.0625 5.19140625 C707.07650879 5.09992813 708.09051758 5.00845001 709.13525391 4.91419983 C713.94064117 4.47723454 718.74402272 4.02656879 723.54541016 3.54760742 C732.1010267 2.71199557 740.61576507 2.08856183 749.21484375 1.9921875 C750.38488701 1.96787407 750.38488701 1.96787407 751.5785675 1.94306946 C757.18070534 1.94811639 760.90918951 3.09687025 765.2734375 6.57421875 C769.20641062 11.05144141 769.19349357 15.31615144 769.08203125 21.07910156 C768.58155283 26.20118537 766.82664851 30.471385 764.76953125 35.15234375 C764.32947754 36.19914307 763.88942383 37.24594238 763.43603516 38.32446289 C762.44549135 40.67553491 761.44577504 43.02275672 760.43847656 45.36669922 C758.61756664 49.61219176 756.8622358 53.88391295 755.10546875 58.15625 C747.21615099 77.27811883 738.79166769 96.07460033 729.87957764 114.73886108 C717.14337886 141.43827249 705.05536059 168.42542502 693.26074219 195.55175781 C691.51527311 199.56583016 689.7654517 203.57797149 688.01269531 207.58886719 C675.99778758 235.08341524 664.14268774 262.62995414 652.77050781 290.39697266 C651.15009603 294.35279924 649.52061217 298.30479638 647.88748169 302.25538635 C636.91604066 328.80576253 626.25176752 355.47972706 615.58203125 382.15234375 C615.2202541 383.05652542 614.85847694 383.96070709 614.48573685 384.89228821 C601.33394068 417.76303744 588.30266787 450.68000853 575.39208984 483.64624023 C566.34942652 506.73241115 557.2059311 529.77104345 547.81634521 552.71820068 C545.35485368 558.7358019 542.8977114 564.75518188 540.43998718 570.77432251 C538.24421378 576.15189081 536.04751216 581.52907417 533.84838867 586.90527344 C529.90824418 596.54327441 525.99054708 606.18763428 522.17456055 615.87548828 C506.60287611 655.38703729 506.60287611 655.38703729 489.6953125 663.80859375 C477.44105762 668.79730816 465.33199057 669.63470147 452.26953125 669.90234375 C450.69864327 669.93969752 449.12776116 669.97729887 447.55688477 670.01513672 C412.80934468 670.81380773 378.03961898 670.0700876 343.33203125 668.27734375 C342.5181897 668.23554993 341.70434814 668.1937561 340.86584473 668.1506958 C312.917202 666.69481485 312.917202 666.69481485 307.58203125 660.90234375 C305.83139029 658.36693271 304.90529967 656.12305134 303.76953125 653.27734375 C302.85956059 651.58622358 301.9422452 649.89904475 301.01953125 648.21484375 C297.61619804 641.4327206 295.5765918 634.48072184 293.4921875 627.203125 C291.97716206 621.91966284 290.32309731 616.68815982 288.64868164 611.45336914 C280.47823221 585.82048816 273.22498197 559.90930352 265.84417725 534.04089355 C264.80253043 530.39291116 263.75842046 526.745644 262.71337891 523.09863281 C254.35707901 493.92688009 246.03698277 464.74295221 238.76953125 435.27734375 C238.57331177 434.48271729 238.37709229 433.68809082 238.17492676 432.86938477 C229.06689078 395.77103134 222.66753455 358.06544412 215.76277161 320.51255798 C208.90223344 283.21466958 201.89013887 245.93873306 194.21008301 208.79971313 C193.72157142 206.43363113 193.23672923 204.06678741 192.75622559 201.69906616 C184.08021549 159.08984401 172.24227806 125.12540701 135.03369141 100.11035156 C101.4036123 77.98966673 61.23707183 67.11403415 23.15234375 55.28125 C22.3700238 55.03760208 21.58770386 54.79395416 20.78167725 54.54292297 C17.07446669 53.38857111 13.3657219 52.24007317 9.65234375 51.10571289 C-24.60026318 40.5560027 -24.60026318 40.5560027 -30.91796875 29.21484375 C-33.19265359 23.44409158 -32.61245413 18.87147913 -30.48046875 13.15234375 C-26.59450261 4.32182068 -26.59450261 4.32182068 -22.31132507 2.4294281 C-14.83815066 -0.0095499 -7.81198147 -0.12047896 0 0 Z " fill="#000000" transform="translate(46.23046875,714.72265625)"/>
<path d="M0 0 C1.14275391 0.5273877 1.14275391 0.5273877 2.30859375 1.06542969 C8.65697917 4.12445257 14.87339584 7.59416037 18.8125 13.5625 C21.09352937 22.99075472 18.21306896 32.30762567 15.37164307 41.33236694 C14.23421434 44.95544317 13.14472395 48.59290263 12.0546875 52.23046875 C11.80572723 53.06006607 11.55676697 53.88966339 11.30026245 54.74440002 C7.46954021 67.61515464 3.9812252 80.58558222 0.44451904 93.53952789 C-0.12043043 95.60826708 -0.68608011 97.67681355 -1.25195312 99.74530029 C-2.33327393 103.69835117 -3.41302007 107.65182942 -4.4921875 111.60546875 C-4.83069229 112.84523972 -5.16919708 114.08501068 -5.51795959 115.36235046 C-6.8881996 120.39164994 -8.25455313 125.42109526 -9.56420898 130.46655273 C-9.74746735 131.17028519 -9.93072571 131.87401764 -10.11953735 132.59907532 C-10.56304436 134.3136045 -10.99938879 136.02998269 -11.43481445 137.74658203 C-13.17096458 143.47759333 -15.64680256 147.74026053 -20.8125 150.875 C-35.85191325 157.71109693 -53.02337796 150.79714683 -67.8125 146.1875 C-113.31202683 132.06602866 -169.14232764 116.88366382 -214.25 139.4375 C-217.18533696 141.17612266 -220.04246188 142.98571474 -222.875 144.88671875 C-225.25 146.4375 -225.25 146.4375 -227.4375 147.33203125 C-230.01726478 148.90546538 -230.30632827 150.6064848 -231.25 153.4375 C-231.67539063 154.36304688 -232.10078125 155.28859375 -232.5390625 156.2421875 C-236.99738282 166.48850261 -238.14988532 176.53394396 -234.6875 187.3125 C-232.4186399 192.73838606 -229.05900148 197.01037108 -225.25 201.4375 C-224.64929687 202.23929688 -224.04859375 203.04109375 -223.4296875 203.8671875 C-220.86799116 206.8879692 -217.99561106 209.27993644 -214.875 211.6875 C-214.25560547 212.16711182 -213.63621094 212.64672363 -212.99804688 213.14086914 C-195.32508744 226.63955434 -175.36330121 236.44303144 -155.50192261 246.26168823 C-126.61295449 260.55243062 -100.26067813 276.83590007 -76.71435547 299.05664062 C-75.31794644 300.3734278 -73.91117406 301.67919916 -72.50390625 302.984375 C-39.32690145 334.76496015 -19.44954544 382.70110597 -18.01171875 428.421875 C-17.77845026 442.63549164 -18.58061449 455.69712354 -22.25 469.4375 C-22.45367188 470.2310791 -22.65734375 471.0246582 -22.8671875 471.84228516 C-36.86786998 525.54397696 -69.72923584 573.33745947 -117.5625 602.125 C-120.10208397 603.60572437 -122.67038545 605.02786166 -125.25 606.4375 C-126.07274414 606.89189453 -126.89548828 607.34628906 -127.74316406 607.81445312 C-199.73096356 647.30757912 -291.88613311 663.86139472 -373.25 650.4375 C-374.79518311 650.20401855 -374.79518311 650.20401855 -376.37158203 649.96582031 C-413.6462211 644.31284796 -454.49473314 636.16777775 -488.45605469 619.32666016 C-490.14840908 618.48785304 -491.85894819 617.68602655 -493.5703125 616.88671875 C-500.77234784 613.32411194 -505.2494503 609.21659096 -508.375 601.75 C-514.25118373 579.50444732 -504.08539726 555.10734288 -496.68945312 534.50634766 C-495.00089861 529.76384464 -493.38318139 524.99756323 -491.765625 520.23046875 C-491.46107895 519.33347763 -491.1565329 518.43648651 -490.84275818 517.51231384 C-489.6178843 513.90251822 -488.39400903 510.29238783 -487.1723938 506.68148804 C-484.20894271 497.92948508 -481.21704408 489.19137983 -478.00390625 480.52734375 C-477.76807327 479.88517914 -477.5322403 479.24301453 -477.28926086 478.58139038 C-474.87498627 472.15804959 -472.2066033 465.41488249 -465.6875 462.3125 C-456.63868646 459.85081527 -447.7204327 462.43155476 -439.06640625 465.1328125 C-437.28193293 465.67861531 -435.49725898 466.22376255 -433.71240234 466.76831055 C-432.35136383 467.18552872 -432.35136383 467.18552872 -430.96282959 467.61117554 C-370.61672852 485.99252162 -304.12314287 504.9304007 -241.75 485.125 C-240.90800049 484.8657373 -240.06600098 484.60647461 -239.19848633 484.33935547 C-232.09703934 481.90789347 -226.66600811 477.97687494 -222.41015625 471.7421875 C-222.04792969 470.94039062 -221.68570312 470.13859375 -221.3125 469.3125 C-220.93222656 468.50554687 -220.55195312 467.69859375 -220.16015625 466.8671875 C-216.09468146 456.01428912 -218.69712293 444.59275896 -223.19384766 434.27099609 C-232.57610889 414.5371049 -247.12615792 395.05785887 -265.25 382.5625 C-265.9934668 382.0456665 -266.73693359 381.52883301 -267.50292969 380.99633789 C-274.56483888 376.13732949 -281.76864628 371.62056497 -289.25 367.4375 C-290.32169434 366.83784424 -290.32169434 366.83784424 -291.41503906 366.22607422 C-302.92488246 359.85992315 -314.75994266 354.3208636 -326.75 348.9375 C-361.4085055 333.37225013 -361.4085055 333.37225013 -376.25 322.4375 C-376.78077148 322.05190918 -377.31154297 321.66631836 -377.85839844 321.26904297 C-413.37880501 295.26777817 -439.62093525 253.67153208 -447.125 210.1875 C-453.30233203 169.30986328 -441.04420663 128.59678161 -417.02734375 95.4777832 C-411.15415909 87.52190101 -404.84990452 79.99096423 -398.1875 72.6875 C-397.71715332 72.16857178 -397.24680664 71.64964355 -396.76220703 71.11499023 C-383.50914353 56.7950392 -366.98172818 44.87944893 -351.25 33.4375 C-350.57501465 32.94540039 -349.9000293 32.45330078 -349.20458984 31.94628906 C-310.30198756 3.70860325 -266.30423395 -20.79694922 -217.26953125 -23.08984375 C-216.41027542 -23.13116928 -215.55101959 -23.17249481 -214.66572571 -23.21507263 C-203.76139177 -23.71154706 -192.85055266 -23.92323543 -181.9375 -24.125 C-180.8452713 -24.14584656 -179.7530426 -24.16669312 -178.62771606 -24.18817139 C-118.20382734 -25.33108327 -55.96671979 -26.06638957 0 0 Z " fill="#000000" transform="translate(1514.25,735.5625)"/>
<path d="M0 0 C2.85431362 -0.0637721 5.70837826 -0.10738865 8.56311035 -0.14758301 C9.43774933 -0.17131989 10.31238831 -0.19505676 11.21353149 -0.21951294 C17.86678125 -0.28144554 21.90249773 1.11892884 27.07092285 5.50085449 C32.20980603 12.38044316 28.97646675 23.5956991 27.8326416 31.50085449 C27.20444825 35.69184907 26.54738862 39.87789307 25.88342285 44.06335449 C25.70442444 45.20343964 25.52542603 46.34352478 25.34100342 47.51815796 C9.13721862 150.45282036 -13.75182328 252.52059921 -48.80407715 407.06335449 C-48.95583153 407.71260643 -49.10758591 408.36185837 -49.2639389 409.03078461 C-56.96060694 441.95582583 -64.92539448 474.81424933 -73.0066185 507.64670944 C-73.6011001 510.06294885 -74.1947006 512.4794032 -74.78811646 514.89590454 C-79.26118075 533.10081936 -83.88058323 551.25890192 -88.6845665 569.37938499 C-91.85689101 581.35403101 -94.90579016 593.34518343 -97.6661377 605.42272949 C-98.26162344 608.02599002 -98.86734913 610.62673737 -99.47399902 613.22741699 C-101.58160472 622.32567668 -103.50381621 631.41930736 -105.08850098 640.62390137 C-106.76554556 648.68470114 -109.33292972 655.81930107 -115.96032715 660.97741699 C-149.34084961 680.63797895 -218.49157656 669.91576523 -255.30407715 667.68835449 C-256.35938629 667.62532135 -257.41469543 667.56228821 -258.50198364 667.49734497 C-291.38521601 665.48221563 -291.38521601 665.48221563 -299.74157715 657.12585449 C-306.54487515 643.9194525 -294.21971227 619.22944785 -290.30178833 605.55308342 C-276.06717285 555.83219099 -264.34805943 505.83705533 -253.56970215 455.26403809 C-248.14569487 429.82489568 -242.56646585 404.42788256 -236.80407715 379.06335449 C-230.03675411 349.26460319 -223.54887751 319.41267755 -217.16959381 289.52858353 C-211.38672088 262.44484841 -205.4467651 235.40620469 -199.23517609 208.41753006 C-192.77435688 180.340325 -186.48111509 152.23173055 -180.42907715 124.06335449 C-180.14582832 122.74604277 -180.14582832 122.74604277 -179.8568573 121.40211868 C-175.7621294 102.3439512 -171.77370261 83.27150348 -168.14782715 64.11804199 C-167.93664812 63.00311749 -167.93664812 63.00311749 -167.72120285 61.86566925 C-166.28549909 54.2716038 -164.87793755 46.67305399 -163.5057373 39.06726074 C-163.28172241 37.84532013 -163.05770752 36.62337952 -162.8269043 35.3644104 C-162.41797369 33.1304427 -162.01731884 30.89493382 -161.62744141 28.65756226 C-158.2920814 10.52186416 -158.2920814 10.52186416 -151.7755127 5.94616699 C-142.18261451 1.65044936 -129.96651964 2.88395557 -119.70932007 3.02700806 C-102.85689389 3.24732176 -86.0748504 2.92718866 -69.24157715 2.12585449 C-53.72191169 1.39356361 -38.21246646 0.78960552 -22.67907715 0.43835449 C-21.81958466 0.41798126 -20.96009216 0.39760803 -20.07455444 0.37661743 C-15.16667596 0.26179142 -10.25910345 0.17039354 -5.3503418 0.10327148 C-3.56678149 0.07531117 -1.78332434 0.0402919 0 0 Z " fill="#000000" transform="translate(1020.8040771484375,718.9366455078125)"/>
</svg>
