<?xml version="1.0" encoding="UTF-8"?>
<svg version="1.1" xmlns="http://www.w3.org/2000/svg" width="2100" height="2100">
<path d="M0 0 C1.37403413 0.01162549 2.74807314 0.02268708 4.12211609 0.03321838 C18.47986012 0.17899584 32.81032037 0.91834488 47.14453125 1.71484375 C82.42312031 3.65540843 117.67172925 4.31428994 153 4.5234375 C153.70758839 4.5276659 154.41517678 4.5318943 155.14420724 4.53625083 C169.09860803 4.61929844 183.05304958 4.69402016 197.00756836 4.75415039 C203.62636084 4.78273498 210.24508244 4.81820517 216.86379987 4.86080414 C220.32190785 4.8827538 223.77995364 4.90145384 227.23811913 4.91125298 C262.33100644 5.02421169 295.84121912 5.623901 322.89453125 30.90234375 C354.75213435 64.25836172 361.83356441 112.84106335 367.36862183 156.58425903 C377.90303044 239.63361077 393.75837126 321.043402 415.83203125 409.27734375 C423.72966564 390.59614066 431.47903651 371.8679385 438.83203125 352.96484375 C439.16529419 352.10819122 439.49855713 351.2515387 439.84191895 350.368927 C443.41669471 341.16928824 446.95924666 331.95761315 450.47265625 322.734375 C462.82359401 290.33641251 475.96531309 258.26820849 489.33203125 226.27734375 C507.81572162 182.01256072 525.14550201 137.87361362 539.95175552 92.24242401 C545.04709143 76.54238935 550.19003208 60.88661667 556.08203125 45.46484375 C556.33057861 44.80667664 556.57912598 44.14850952 556.83520508 43.47039795 C566.86096003 17.06547502 566.86096003 17.06547502 575.83203125 12.27734375 C582.37237271 9.85432504 588.69173138 9.98040499 595.609375 9.96875 C598.20915071 9.94596092 600.80892275 9.92274982 603.40869141 9.89916992 C604.78558172 9.88966245 606.16247389 9.88041943 607.53936768 9.87142944 C628.70058557 9.72419384 649.8355858 9.35217909 670.95703125 7.96484375 C671.91192444 7.9021228 672.86681763 7.83940186 673.85064697 7.77478027 C684.62081729 7.05039383 695.37442614 6.16204434 706.125 5.19140625 C707.13900879 5.09992813 708.15301758 5.00845001 709.19775391 4.91419983 C714.00314117 4.47723454 718.80652272 4.02656879 723.60791016 3.54760742 C732.1635267 2.71199557 740.67826507 2.08856183 749.27734375 1.9921875 C750.44738701 1.96787407 750.44738701 1.96787407 751.6410675 1.94306946 C757.24320534 1.94811639 760.97168951 3.09687025 765.3359375 6.57421875 C769.26891062 11.05144141 769.25599357 15.31615144 769.14453125 21.07910156 C768.64405283 26.20118537 766.88914851 30.471385 764.83203125 35.15234375 C764.39197754 36.19914307 763.95192383 37.24594238 763.49853516 38.32446289 C762.50799135 40.67553491 761.50827504 43.02275672 760.50097656 45.36669922 C758.68006664 49.61219176 756.9247358 53.88391295 755.16796875 58.15625 C747.27865099 77.27811883 738.85416769 96.07460033 729.94207764 114.73886108 C717.20587886 141.43827249 705.11786059 168.42542502 693.32324219 195.55175781 C691.57777311 199.56583016 689.8279517 203.57797149 688.07519531 207.58886719 C676.06028758 235.08341524 664.20518774 262.62995414 652.83300781 290.39697266 C651.21259603 294.35279924 649.58311217 298.30479638 647.94998169 302.25538635 C636.97854066 328.80576253 626.31426752 355.47972706 615.64453125 382.15234375 C615.2827541 383.05652542 614.92097694 383.96070709 614.54823685 384.89228821 C601.39644068 417.76303744 588.36516787 450.68000853 575.45458984 483.64624023 C566.41192652 506.73241115 557.2684311 529.77104345 547.87884521 552.71820068 C545.41735368 558.7358019 542.9602114 564.75518188 540.50248718 570.77432251 C538.30671378 576.15189081 536.11001216 581.52907417 533.91088867 586.90527344 C529.97074418 596.54327441 526.05304708 606.18763428 522.23706055 615.87548828 C506.66537611 655.38703729 506.66537611 655.38703729 489.7578125 663.80859375 C477.50355762 668.79730816 465.39449057 669.63470147 452.33203125 669.90234375 C450.76114327 669.93969752 449.19026116 669.97729887 447.61938477 670.01513672 C412.87184468 670.81380773 378.10211898 670.0700876 343.39453125 668.27734375 C342.5806897 668.23554993 341.76684814 668.1937561 340.92834473 668.1506958 C312.979702 666.69481485 312.979702 666.69481485 307.64453125 660.90234375 C305.89389029 658.36693271 304.96779967 656.12305134 303.83203125 653.27734375 C302.92206059 651.58622358 302.0047452 649.89904475 301.08203125 648.21484375 C297.67869804 641.4327206 295.6390918 634.48072184 293.5546875 627.203125 C292.03966206 621.91966284 290.38559731 616.68815982 288.71118164 611.45336914 C280.54073221 585.82048816 273.28748197 559.90930352 265.90667725 534.04089355 C264.86503043 530.39291116 263.82092046 526.745644 262.77587891 523.09863281 C254.41957901 493.92688009 246.09948277 464.74295221 238.83203125 435.27734375 C238.63581177 434.48271729 238.43959229 433.68809082 238.23742676 432.86938477 C229.12939078 395.77103134 222.73003455 358.06544412 215.82527161 320.51255798 C208.96473344 283.21466958 201.95263887 245.93873306 194.27258301 208.79971313 C193.78407142 206.43363113 193.29922923 204.06678741 192.81872559 201.69906616 C184.14271549 159.08984401 172.30477806 125.12540701 135.09619141 100.11035156 C101.4661123 77.98966673 61.29957183 67.11403415 23.21484375 55.28125 C22.4325238 55.03760208 21.65020386 54.79395416 20.84417725 54.54292297 C17.13696669 53.38857111 13.4282219 52.24007317 9.71484375 51.10571289 C-24.53776318 40.5560027 -24.53776318 40.5560027 -30.85546875 29.21484375 C-33.12033338 23.4690049 -32.55175274 18.86739673 -30.48046875 13.15234375 C-28.38913435 8.366964 -26.29449988 4.79628665 -21.4226532 2.4294281 C-14.32573813 -0.22078798 -7.50186916 -0.11494248 0 0 Z M25.83203125 27.27734375 C29.83203125 28.27734375 29.83203125 28.27734375 29.83203125 28.27734375 Z M29.83203125 28.27734375 C32.47143108 30.03694364 34.26761409 30.86234372 37.22631836 31.79858398 C38.11772522 32.08367325 39.00913208 32.36876251 39.92755127 32.66249084 C41.37880402 33.11959694 41.37880402 33.11959694 42.859375 33.5859375 C44.93918987 34.25134154 47.01885532 34.91721278 49.09838867 35.58349609 C50.18832123 35.93128113 51.27825378 36.27906616 52.4012146 36.63739014 C71.83515143 42.85389756 91.06373961 49.23737526 109.83203125 57.27734375 C110.8154248 57.69677246 111.79881836 58.11620117 112.81201172 58.54833984 C135.19508074 68.18760167 156.10111289 79.32546398 173.83203125 96.27734375 C174.49332031 96.87546875 175.15460938 97.47359375 175.8359375 98.08984375 C207.11409987 127.40917171 213.8900278 173.21207472 222.4140625 213.1328125 C222.6243767 214.11691479 222.8346909 215.10101707 223.05137825 216.11494064 C229.07302751 244.42559021 234.12507896 272.92252767 239.26953125 301.40234375 C244.82750753 332.16690192 250.40776173 362.91778636 256.77734375 393.52734375 C257.00203779 394.60859653 257.22673183 395.68984932 257.45823479 396.80386734 C260.87787835 413.20533044 264.41945724 429.59390789 268.7421875 445.78515625 C268.96697281 446.63224152 269.19175812 447.47932678 269.4233551 448.3520813 C282.32311805 496.64634648 296.30853172 544.68558434 310.71173096 592.55090332 C311.44628169 594.99422994 312.17889459 597.43814017 312.90936279 599.88269043 C314.82634159 606.29789086 316.76975063 612.70331117 318.77056885 619.09289551 C319.34560236 620.94140396 319.9112657 622.79285781 320.46673584 624.64733887 C321.21332182 627.1300413 321.99521284 629.59848338 322.7890625 632.06640625 C322.99558945 632.78045624 323.20211639 633.49450623 323.41490173 634.23019409 C324.08856291 636.44677108 324.08856291 636.44677108 325.83203125 639.27734375 C330.92658132 641.57677366 336.33216809 641.6857898 341.8515625 641.91015625 C342.75080444 641.9518544 343.65004639 641.99355255 344.57653809 642.03651428 C347.59883163 642.1704176 350.6214394 642.28794378 353.64453125 642.40234375 C354.69595306 642.4443692 355.74737488 642.48639465 356.83065796 642.5296936 C377.77127615 643.34414716 398.70860162 643.46576173 419.66247177 643.46492767 C421.31416708 643.46487183 422.96586248 643.46530238 424.61755753 643.46622467 C429.38008774 643.46887332 434.14253239 643.4650469 438.90504456 643.451231 C440.36188961 643.44736061 441.81873911 643.44485885 443.27558899 643.44389534 C462.92727234 644.54799464 462.92727234 644.54799464 480.52661133 637.83911133 C486.15040064 631.68371587 489.33598956 624.57493701 492.64453125 617.02734375 C493.28588523 615.58985969 493.92757805 614.15252678 494.56958008 612.71533203 C506.04880589 586.84439 516.52815191 560.5155193 526.64404297 534.08569336 C529.84760485 525.73857945 533.19790138 517.46435035 536.64453125 509.21484375 C547.67997296 482.76911218 557.9464395 456.01377545 568.28607178 429.29043579 C576.9788867 406.83023213 585.82246751 384.43108583 594.72717285 362.05413818 C595.79497131 359.37048495 596.86193319 356.68650052 597.92871094 354.00244141 C619.58419856 299.53531359 641.91511394 245.35342794 665.71740723 191.78588867 C666.4609731 190.11243792 667.20405522 188.43877214 667.94665527 186.76489258 C676.53828752 167.39914841 685.31349393 148.13913504 694.45703125 129.02734375 C709.98234337 96.55640051 724.05980866 63.52495094 737.83203125 30.27734375 C734.93701471 29.31233824 733.72274195 29.22211321 730.79248047 29.49926758 C729.97701248 29.57303619 729.16154449 29.64680481 728.32136536 29.72280884 C726.99246529 29.85228409 726.99246529 29.85228409 725.63671875 29.984375 C724.24588326 30.11167496 724.24588326 30.11167496 722.82695007 30.24154663 C720.82892105 30.42444878 718.83111905 30.60984447 716.83352661 30.79745483 C711.57023417 31.28967638 706.30477273 31.7571127 701.0390625 32.22265625 C699.98780685 32.31566513 698.93655121 32.40867401 697.85343933 32.50450134 C661.56196235 35.6810389 625.24195075 36.48276383 588.83203125 36.27734375 C576.82612129 65.57262315 566.72814256 95.44027736 556.78877258 125.48754883 C545.40770843 159.88304932 532.04095617 193.28400033 518.05859375 226.69140625 C501.65710423 265.88690491 485.86781182 305.2997549 470.55444336 344.93286133 C464.11288056 361.59870076 457.5341966 378.20465887 450.84356689 394.77191162 C449.71764442 397.5606639 448.59289795 400.34988892 447.46826172 403.13916016 C444.90389218 409.49847846 442.33731867 415.85690482 439.76953125 422.21484375 C439.35952881 423.23016174 438.94952637 424.24547974 438.52709961 425.29156494 C424.2531378 460.62658928 424.2531378 460.62658928 419.08203125 464.15234375 C414.86589921 465.61177407 412.29213433 465.77291076 407.83203125 465.27734375 C399.72641136 459.99743914 397.70715739 449.88146975 395.73040771 440.89778137 C395.52159973 439.90284164 395.31279175 438.90790192 395.09765625 437.8828125 C394.59062798 435.5845181 394.08068248 433.286866 393.56835938 430.98974609 C393.29354736 429.75351501 393.01873535 428.51728394 392.7355957 427.24359131 C391.26089684 420.70564903 389.63675244 414.2033163 388.02747345 407.69748306 C387.03372716 403.67995608 386.04505678 399.66117905 385.05566406 395.64257812 C384.85428204 394.82505632 384.65290001 394.00753452 384.4454155 393.16523933 C372.16407571 343.28927904 372.16407571 343.28927904 367.08203125 319.27734375 C366.9058728 318.45134674 366.72971436 317.62534973 366.54821777 316.77432251 C360.08640965 286.29875618 354.89836606 255.561263 350.14665604 224.77908707 C349.76149395 222.28785847 349.37392719 219.7970136 348.98580933 217.3062439 C345.69263559 196.15226814 342.63721942 174.99574813 340.04760742 153.74261475 C338.26168859 139.11050576 336.1599265 124.65517031 332.83203125 110.27734375 C332.64850098 109.4678125 332.4649707 108.65828125 332.27587891 107.82421875 C326.58342092 83.37447921 315.24208357 56.01412906 293.4765625 41.8046875 C278.52904092 33.17177622 262.28157154 31.83539632 245.421875 31.6171875 C243.67193851 31.58482603 241.92201511 31.55175107 240.17210388 31.51805115 C210.08224505 30.98126058 179.97813121 30.94496346 149.88401067 30.81023729 C140.63875053 30.76884267 131.39357677 30.71931048 122.1484375 30.65625 C121.46054406 30.6516264 120.77265061 30.6470028 120.06391191 30.64223909 C100.71729758 30.50844554 81.41235932 30.10563146 62.09657288 28.96009827 C51.32845681 28.32627569 40.61861724 28.17340764 29.83203125 28.27734375 Z " fill="#000000" transform="translate(46.16796875,714.72265625)"/>
<path d="M0 0 C1.14275391 0.5273877 1.14275391 0.5273877 2.30859375 1.06542969 C8.65697917 4.12445257 14.87339584 7.59416037 18.8125 13.5625 C21.09352937 22.99075472 18.21306896 32.30762567 15.37164307 41.33236694 C14.23421434 44.95544317 13.14472395 48.59290263 12.0546875 52.23046875 C11.80572723 53.06006607 11.55676697 53.88966339 11.30026245 54.74440002 C7.46954021 67.61515464 3.9812252 80.58558222 0.44451904 93.53952789 C-0.12043043 95.60826708 -0.68608011 97.67681355 -1.25195312 99.74530029 C-2.33327393 103.69835117 -3.41302007 107.65182942 -4.4921875 111.60546875 C-4.83069229 112.84523972 -5.16919708 114.08501068 -5.51795959 115.36235046 C-6.8881996 120.39164994 -8.25455313 125.42109526 -9.56420898 130.46655273 C-9.74746735 131.17028519 -9.93072571 131.87401764 -10.11953735 132.59907532 C-10.56304436 134.3136045 -10.99938879 136.02998269 -11.43481445 137.74658203 C-13.17096458 143.47759333 -15.64680256 147.74026053 -20.8125 150.875 C-35.85191325 157.71109693 -53.02337796 150.79714683 -67.8125 146.1875 C-113.31202683 132.06602866 -169.14232764 116.88366382 -214.25 139.4375 C-217.18533696 141.17612266 -220.04246188 142.98571474 -222.875 144.88671875 C-225.25 146.4375 -225.25 146.4375 -227.4375 147.33203125 C-230.01726478 148.90546538 -230.30632827 150.6064848 -231.25 153.4375 C-231.67539063 154.36304688 -232.10078125 155.28859375 -232.5390625 156.2421875 C-236.99738282 166.48850261 -238.14988532 176.53394396 -234.6875 187.3125 C-232.4186399 192.73838606 -229.05900148 197.01037108 -225.25 201.4375 C-224.64929687 202.23929688 -224.04859375 203.04109375 -223.4296875 203.8671875 C-220.86799116 206.8879692 -217.99561106 209.27993644 -214.875 211.6875 C-214.25560547 212.16711182 -213.63621094 212.64672363 -212.99804688 213.14086914 C-195.32508744 226.63955434 -175.36330121 236.44303144 -155.50192261 246.26168823 C-126.61295449 260.55243062 -100.26067813 276.83590007 -76.71435547 299.05664062 C-75.31794644 300.3734278 -73.91117406 301.67919916 -72.50390625 302.984375 C-39.32690145 334.76496015 -19.44954544 382.70110597 -18.01171875 428.421875 C-17.77845026 442.63549164 -18.58061449 455.69712354 -22.25 469.4375 C-22.45367188 470.2310791 -22.65734375 471.0246582 -22.8671875 471.84228516 C-36.86786998 525.54397696 -69.72923584 573.33745947 -117.5625 602.125 C-120.10208397 603.60572437 -122.67038545 605.02786166 -125.25 606.4375 C-126.07274414 606.89189453 -126.89548828 607.34628906 -127.74316406 607.81445312 C-199.73096356 647.30757912 -291.88613311 663.86139472 -373.25 650.4375 C-374.79518311 650.20401855 -374.79518311 650.20401855 -376.37158203 649.96582031 C-413.6462211 644.31284796 -454.49473314 636.16777775 -488.45605469 619.32666016 C-490.14840908 618.48785304 -491.85894819 617.68602655 -493.5703125 616.88671875 C-500.77234784 613.32411194 -505.2494503 609.21659096 -508.375 601.75 C-514.25118373 579.50444732 -504.08539726 555.10734288 -496.68945312 534.50634766 C-495.00089861 529.76384464 -493.38318139 524.99756323 -491.765625 520.23046875 C-491.46107895 519.33347763 -491.1565329 518.43648651 -490.84275818 517.51231384 C-489.6178843 513.90251822 -488.39400903 510.29238783 -487.1723938 506.68148804 C-484.20894271 497.92948508 -481.21704408 489.19137983 -478.00390625 480.52734375 C-477.76807327 479.88517914 -477.5322403 479.24301453 -477.28926086 478.58139038 C-474.87498627 472.15804959 -472.2066033 465.41488249 -465.6875 462.3125 C-456.63868646 459.85081527 -447.7204327 462.43155476 -439.06640625 465.1328125 C-437.28193293 465.67861531 -435.49725898 466.22376255 -433.71240234 466.76831055 C-432.35136383 467.18552872 -432.35136383 467.18552872 -430.96282959 467.61117554 C-370.61672852 485.99252162 -304.12314287 504.9304007 -241.75 485.125 C-240.90800049 484.8657373 -240.06600098 484.60647461 -239.19848633 484.33935547 C-232.09703934 481.90789347 -226.66600811 477.97687494 -222.41015625 471.7421875 C-222.04792969 470.94039062 -221.68570312 470.13859375 -221.3125 469.3125 C-220.93222656 468.50554687 -220.55195312 467.69859375 -220.16015625 466.8671875 C-216.09468146 456.01428912 -218.69712293 444.59275896 -223.19384766 434.27099609 C-232.57610889 414.5371049 -247.12615792 395.05785887 -265.25 382.5625 C-265.9934668 382.0456665 -266.73693359 381.52883301 -267.50292969 380.99633789 C-274.56483888 376.13732949 -281.76864628 371.62056497 -289.25 367.4375 C-290.32169434 366.83784424 -290.32169434 366.83784424 -291.41503906 366.22607422 C-302.92488246 359.85992315 -314.75994266 354.3208636 -326.75 348.9375 C-361.4085055 333.37225013 -361.4085055 333.37225013 -376.25 322.4375 C-376.78077148 322.05190918 -377.31154297 321.66631836 -377.85839844 321.26904297 C-413.37880501 295.26777817 -439.62093525 253.67153208 -447.125 210.1875 C-453.30233203 169.30986328 -441.04420663 128.59678161 -417.02734375 95.4777832 C-411.15415909 87.52190101 -404.84990452 79.99096423 -398.1875 72.6875 C-397.71715332 72.16857178 -397.24680664 71.64964355 -396.76220703 71.11499023 C-383.50914353 56.7950392 -366.98172818 44.87944893 -351.25 33.4375 C-350.57501465 32.94540039 -349.9000293 32.45330078 -349.20458984 31.94628906 C-310.2889465 3.69913732 -266.28478117 -20.80238558 -217.234375 -23.08984375 C-216.37398621 -23.13116928 -215.51359741 -23.17249481 -214.62713623 -23.21507263 C-203.92289297 -23.70296329 -193.21277764 -23.92200829 -182.5 -24.125 C-180.89958862 -24.15626984 -180.89958862 -24.15626984 -179.2668457 -24.18817139 C-118.65050747 -25.36047916 -56.14767087 -26.15066718 0 0 Z M-238.25 6.4375 C-239.0656543 6.63472656 -239.88130859 6.83195313 -240.72167969 7.03515625 C-289.95320527 19.32004945 -331.9951466 48.87314618 -368.69677734 83.00195312 C-370.33641084 84.51736415 -371.98904423 86.01755727 -373.64453125 87.515625 C-379.55390591 92.87853594 -385.20926039 98.22878414 -390.25 104.4375 C-391.19746094 105.55318359 -391.19746094 105.55318359 -392.1640625 106.69140625 C-414.20873791 133.20459694 -423.52890753 164.41513055 -421.25 198.4375 C-417.30953268 236.96213554 -394.63491874 273.04695385 -365.375 297.75 C-360.92729873 301.29492832 -356.36335011 304.33508673 -351.45703125 307.20703125 C-350.7176683 307.64024689 -349.97830536 308.07346252 -349.21653748 308.51980591 C-341.29796874 313.08836175 -333.10632155 316.98230282 -324.8125 320.8125 C-323.2353873 321.54949923 -321.65865137 322.2873052 -320.08227539 323.02587891 C-313.01000402 326.33310402 -305.91907316 329.59691447 -298.8046875 332.8125 C-256.16574203 352.10747597 -215.67792922 380.11575855 -198.38085938 425.72949219 C-191.45152462 445.10191001 -189.01468443 463.29628506 -197.9375 482.625 C-206.40645819 498.45020654 -221.53187975 507.19155402 -238.25 512.4375 C-300.63748589 530.48093955 -367.72649318 513.8683561 -428.25 496.4375 C-428.90744202 496.24828979 -429.56488403 496.05907959 -430.24224854 495.86413574 C-437.58612636 493.74878341 -444.92224624 491.60801366 -452.25 489.4375 C-455.68233582 498.55439354 -459.02416183 507.70375232 -462.35498047 516.8581543 C-463.10884791 518.92670868 -463.86497477 520.99444126 -464.62353516 523.0612793 C-472.93600837 545.71759317 -481.03231718 568.27563413 -483.25 592.4375 C-398.48012938 627.00546171 -311.02707056 636.91687841 -169.71484375 598.7734375 C-126.6539699 580.53349521 -89.55278674 553.3333891 -67.25 511.4375 C-66.84185059 510.6758252 -66.43370117 509.91415039 -66.01318359 509.12939453 C-60.17561496 498.04871899 -55.70303793 486.61256797 -51.75 474.75 C-51.53617676 474.11083649 -51.32235352 473.47167297 -51.10205078 472.81314087 C-46.86484446 460.04954299 -44.80810986 448.84734302 -44.8125 435.375 C-44.8114325 434.67696259 -44.81036499 433.97892517 -44.80926514 433.25973511 C-44.90535858 389.40680612 -65.13569989 347.06961128 -95.97387695 316.34472656 C-117.12184153 295.94266335 -144.46315958 282.52301072 -170.33666992 269.25268555 C-195.07426492 256.55036136 -219.56417486 243.23488141 -240.25 224.4375 C-240.99854248 223.76485107 -240.99854248 223.76485107 -241.76220703 223.07861328 C-254.73665743 211.28481664 -262.07460936 197.0683596 -263.25 179.4375 C-263.3015625 178.73109375 -263.353125 178.0246875 -263.40625 177.296875 C-264.13087603 159.06045324 -257.62888051 141.31683267 -245.3125 127.9375 C-220.73930193 104.54609753 -181.96843324 101.63535894 -149.83154297 102.31445312 C-111.80985823 103.62071959 -73.67300895 116.53930103 -37.25 126.4375 C-35.30740197 123.52360296 -34.60280211 121.57267048 -33.71289062 118.23632812 C-33.42466431 117.1671666 -33.13643799 116.09800507 -32.83947754 114.9964447 C-32.37752991 113.25023582 -32.37752991 113.25023582 -31.90625 111.46875 C-31.5805603 110.25663345 -31.25487061 109.04451691 -30.91931152 107.79566956 C-30.22057084 105.193727 -29.5237063 102.59136924 -28.83007812 99.98806763 C-27.03403062 93.24796634 -25.22031164 86.51261471 -23.40625 79.77734375 C-23.22722137 79.11192503 -23.04819275 78.44650631 -22.86373901 77.76092339 C-19.3953609 64.87604921 -15.77095281 52.03997169 -11.99414062 39.2421875 C-11.62482422 37.97761719 -11.25550781 36.71304688 -10.875 35.41015625 C-10.55789063 34.34031494 -10.24078125 33.27047363 -9.9140625 32.16821289 C-9.09246923 29.25809552 -9.09246923 29.25809552 -9.25 25.4375 C-51.46708627 5.99693439 -95.52075915 2.02737949 -141.47246552 2.23965836 C-143.90313118 2.25012109 -146.33378491 2.25722398 -148.76446533 2.26327515 C-193.83805246 0.90074644 -193.83805246 0.90074644 -238.25 6.4375 Z " fill="#000000" transform="translate(1514.25,735.5625)"/>
<path d="M0 0 C3.48739044 3.01612146 4.35329379 5.96686725 5.39746094 10.31616211 C5.65756958 11.39082733 5.91767822 12.46549255 6.18566895 13.57272339 C6.45439819 14.70372467 6.72312744 15.83472595 7 17 C7.2626062 18.09063751 7.5252124 19.18127502 7.79577637 20.30496216 C8.64653792 23.84889455 9.48857268 27.39480209 10.328125 30.94140625 C10.55756742 31.90999132 10.55756742 31.90999132 10.79164505 32.89814377 C22.66287067 83.03154391 32.03927322 133.01687851 39.64538574 183.99703979 C45.79445028 225.19237987 53.45818346 265.88709909 62.57421875 306.5234375 C62.7774601 307.42996504 62.98070145 308.33649258 63.19010162 309.27049065 C65.22346573 318.33569414 67.26443644 327.39900706 69.34009075 336.4546299 C80.47698855 385.08071765 89.11000027 434.20099342 97.94055176 483.28625488 C101.94202221 505.52748858 105.95431293 527.766762 110 550 C110.27215143 551.4972077 110.27215143 551.4972077 110.54980087 553.02466202 C114.29393379 573.60320459 118.42475117 593.99718189 123.4375 614.3125 C124.5092105 618.66028178 125.56870648 623.0107871 126.62109375 627.36328125 C126.86161972 628.3214827 127.10214569 629.27968414 127.34996033 630.266922 C128.91433004 636.74296022 130.15399397 642.73035042 127.875 649.1875 C124.7746866 653.83797011 121.70198674 656.48365395 116.40844727 658.08959961 C114.47569946 658.39909546 114.47569946 658.39909546 112.50390625 658.71484375 C111.80197647 658.83020981 111.10004669 658.94557587 110.37684631 659.06443787 C103.59131154 660.14624661 96.78078159 660.94952806 89.9375 661.5625 C89.27146759 661.62281403 88.60543518 661.68312805 87.91921997 661.74526978 C57.31512851 664.45562939 26.40422704 665.1106201 -4.30856323 665.29653931 C-5.99619857 665.30703473 -7.68381352 665.32186353 -9.37136841 665.34140015 C-29.81713487 665.54980587 -29.81713487 665.54980587 -36.25 659.25 C-43.36934339 649.89091802 -45.24868863 635.52390639 -47.5 624.25 C-47.64519073 623.53886047 -47.79038147 622.82772095 -47.93997192 622.09503174 C-51.38297768 605.17793964 -53.7728957 588.11353827 -56 571 C-56.95559814 571.06566162 -57.91119629 571.13132324 -58.89575195 571.19897461 C-68.2634212 571.82430049 -77.62228566 572.24785204 -87.00708008 572.50268555 C-89.16957918 572.56200839 -91.33183484 572.62740402 -93.49414062 572.69335938 C-115.64380301 573.34024242 -137.75453107 572.82805428 -159.89758301 572.19228363 C-162.2708908 572.12440248 -164.64422898 572.05769044 -167.01757812 571.99127197 C-194.35509871 571.2241882 -221.67933835 570.23642692 -249 569 C-249.40617554 570.28994873 -249.40617554 570.28994873 -249.82055664 571.60595703 C-250.98686634 574.96220573 -252.35558821 578.09223076 -253.87109375 581.3046875 C-254.14906799 581.89686569 -254.42704224 582.48904388 -254.71343994 583.09916687 C-255.61844917 585.02587728 -256.52791225 586.95044743 -257.4375 588.875 C-258.7151874 591.58907147 -259.99064464 594.30418721 -261.265625 597.01953125 C-261.58468307 597.69835861 -261.90374115 598.37718597 -262.23246765 599.07658386 C-264.65351318 604.23663071 -267.01414017 609.42234075 -269.35693359 614.6184082 C-273.32604186 623.40069748 -277.43129591 632.10255643 -281.8125 640.6875 C-282.24457764 641.55511963 -282.67665527 642.42273926 -283.12182617 643.31665039 C-287.31954436 651.38113296 -292.1243603 655.22091636 -300.80078125 658.09375 C-320.46474376 663.66400556 -341.32256025 664.18448051 -361.6328125 664.19921875 C-362.3558255 664.200144 -363.0788385 664.20106926 -363.82376099 664.20202255 C-380.51863613 664.19366798 -397.09754043 663.09100751 -413.73474121 661.79876709 C-416.79072158 661.56434407 -419.84753264 661.34200094 -422.90441895 661.11975479 C-431.94061838 660.46250032 -440.97079947 659.74720387 -450 659 C-451.5454248 658.87836487 -451.5454248 658.87836487 -453.12207031 658.75427246 C-455.66683917 658.55010794 -458.20820288 658.32387585 -460.75 658.0859375 C-462.04421875 657.97040527 -463.3384375 657.85487305 -464.671875 657.73583984 C-469.31335683 656.7096202 -472.48620013 654.7023478 -475.64186096 651.15364075 C-478.0698158 647.30356184 -477.61733045 643.39106234 -477 639 C-475.85959508 635.55712019 -474.263145 632.44532509 -472.56640625 629.24609375 C-471.63732175 627.39806 -470.71314406 625.54755262 -469.79345703 623.69482422 C-469.32417786 622.75338562 -468.85489868 621.81194702 -468.37139893 620.84197998 C-466.19681423 616.33554057 -464.28697635 611.73138462 -462.40234375 607.09765625 C-462.0325943 606.1903476 -461.66284485 605.28303894 -461.28189087 604.34823608 C-460.1622562 601.58825257 -459.0495963 598.82552829 -457.9375 596.0625 C-457.19264662 594.22437046 -456.44720399 592.38647958 -455.70117188 590.54882812 C-454.21476344 586.88501521 -452.72983968 583.22060838 -451.24682617 579.55541992 C-450.87907074 578.64658051 -450.51131531 577.73774109 -450.13241577 576.80136108 C-449.36226645 574.89617185 -448.59311821 572.9905777 -447.82485962 571.08462524 C-443.59588274 560.59955051 -439.3577186 550.18780776 -434.3125 540.0625 C-415.68316134 501.81951726 -400.41143192 462.46201158 -385.61758327 422.61087513 C-380.42216211 408.61791116 -375.14239953 394.66744607 -369.59765625 380.80859375 C-369.11678558 379.60587326 -368.63591492 378.40315277 -368.14047241 377.16398621 C-362.50109955 363.15516728 -356.47111723 349.31814651 -350.01953125 335.6640625 C-335.69309271 305.33950475 -323.35728868 274.17499765 -311.12327576 242.95999146 C-295.97249514 204.31194823 -280.76422076 165.70529707 -264.18832397 127.64315796 C-257.92576215 113.26110859 -251.88821309 98.79141811 -245.93432617 84.27905273 C-242.6320028 76.24277421 -239.27584606 68.23488411 -235.76953125 60.28515625 C-235.45495972 59.56701248 -235.14038818 58.84886871 -234.81628418 58.10896301 C-229.13838474 45.35211308 -221.92999716 34.79660914 -212 25 C-210.98292969 23.98486328 -210.98292969 23.98486328 -209.9453125 22.94921875 C-181.8814017 -3.30975173 -137.186317 0.42366954 -101.6015625 -0.2109375 C-97.46352424 -0.28553088 -93.32550276 -0.36096183 -89.1875 -0.4375 C-88.15293671 -0.45660431 -87.11837341 -0.47570862 -86.05245972 -0.49539185 C-66.54776643 -0.86724563 -47.03995557 -1.52294739 -27.625 -3.54296875 C-7.24006301 -5.64574862 -7.24006301 -5.64574862 0 0 Z M-32.484375 23.40234375 C-33.48500977 23.48750244 -34.48564453 23.57266113 -35.51660156 23.66040039 C-36.58362305 23.75184326 -37.65064453 23.84328613 -38.75 23.9375 C-57.14641613 25.40792683 -75.52610607 25.92514086 -93.97265625 26.2109375 C-95.14128204 26.22980515 -96.30990784 26.24867279 -97.51394653 26.26811218 C-103.40864085 26.36308117 -109.30319669 26.4498222 -115.19824219 26.51977539 C-126.03213402 26.66995212 -136.80345487 27.00086348 -147.6015625 27.9296875 C-148.51976273 28.00863754 -149.43796295 28.08758759 -150.38398743 28.16893005 C-167.83260745 29.81293537 -184.53428091 33.99054827 -196.83203125 47.3515625 C-213.90692514 68.21062206 -222.68415333 96.69185601 -232.65917969 121.39794922 C-236.03949697 129.7345586 -239.55683416 138.00486683 -243.12350464 146.26275635 C-260.77705305 187.14894592 -277.23992172 228.55361809 -293.296875 270.08984375 C-303.40035048 296.21531774 -314.31565924 321.85642643 -325.82519531 347.39260864 C-327.00155056 350.00344136 -328.17677489 352.61477992 -329.3515625 355.22631836 C-329.73519958 356.07908859 -330.11883667 356.93185883 -330.51409912 357.81047058 C-331.27753283 359.50781496 -332.04075889 361.20525275 -332.80377197 362.90278625 C-334.4443542 366.55111513 -336.08748488 370.19807488 -337.74902344 373.83691406 C-348.13938574 396.64455856 -356.59407085 420.14208565 -365.20838928 443.66423035 C-377.52647288 477.29043492 -390.20939672 510.32586227 -405.8828125 542.5546875 C-406.92201961 544.70305505 -407.96106455 546.85150106 -409 549 C-409.33189331 549.68052429 -409.66378662 550.36104858 -410.0057373 551.06219482 C-415.88611555 563.13874081 -421.10624347 575.36935061 -426 587.875 C-427.38014268 591.37918107 -428.76501801 594.88146951 -430.15234375 598.3828125 C-430.48540024 599.22424805 -430.81845673 600.06568359 -431.16160583 600.93261719 C-434.14874436 608.44488667 -437.30971683 615.87444397 -440.70117188 623.21435547 C-442.38115813 626.95953192 -443.28646359 629.07204821 -442 633 C-415.20392919 635.43821141 -388.4815999 637.41108008 -361.5625 637.4375 C-360.53055511 637.44322021 -359.49861023 637.44894043 -358.43539429 637.45483398 C-344.0821607 637.51109697 -330.14864464 636.45793437 -316 634 C-315.16961716 633.87930145 -314.33923431 633.75860291 -313.48368835 633.63424683 C-308.65277293 632.85088822 -308.65277293 632.85088822 -305.03881836 629.7421875 C-304.64315674 628.79601563 -304.24749512 627.84984375 -303.83984375 626.875 C-303.36434082 625.79250977 -302.88883789 624.71001953 -302.39892578 623.59472656 C-301.67552002 621.81533691 -301.67552002 621.81533691 -300.9375 620 C-300.40207292 618.75584554 -299.86275283 617.51336021 -299.31982422 616.27246094 C-298.45526811 614.29389626 -297.59402737 612.31435002 -296.74505615 610.32904053 C-293.58200099 602.93726243 -290.12413876 595.69052568 -286.66555786 588.43359375 C-285.0122742 584.96420488 -283.36575301 581.49169442 -281.7265625 578.015625 C-281.41595886 577.35837433 -281.10535522 576.70112366 -280.78533936 576.0239563 C-279.16842116 572.57831388 -277.60628166 569.11680851 -276.1105957 565.61669922 C-275.80249969 564.8971405 -275.49440369 564.17758179 -275.17697144 563.43621826 C-274.59688799 562.07187396 -274.02331928 560.70473238 -273.45779419 559.33428955 C-271.06438465 553.69281868 -267.90199709 548.75667067 -263 545 C-258.71802593 543.29115372 -255.1944401 542.76107214 -250.59960938 542.83398438 C-249.36686279 542.85227295 -248.13411621 542.87056152 -246.86401367 542.8894043 C-241.09126333 543.05463181 -235.32373493 543.28131186 -229.55515671 543.55560493 C-195.51146743 545.15005728 -161.49698641 546.13910766 -127.4140625 546.05859375 C-126.0619634 546.05579495 -124.7098643 546.05299877 -123.3577652 546.05020523 C-109.94997352 546.0204229 -96.54283079 545.95526568 -83.13555336 545.83370876 C-78.09713068 545.79120373 -73.05869029 545.76368106 -68.02015305 545.73881721 C-65.65662771 545.72296703 -63.29313954 545.69961049 -60.92976761 545.66836357 C-57.67975112 545.62544396 -54.43042826 545.60680329 -51.18017578 545.59350586 C-50.23014931 545.57441917 -49.28012283 545.55533249 -48.30130768 545.53566742 C-42.68123343 545.54305156 -39.43566391 546.2027227 -35 550 C-31.30161263 554.42807346 -30.26698369 558.41330657 -29.7265625 564.02734375 C-29.63755676 564.80096252 -29.54855103 565.5745813 -29.45684814 566.37164307 C-29.26626786 568.03092679 -29.08225089 569.69097529 -28.90423584 571.35165405 C-28.42986469 575.74453823 -27.89741701 580.13014367 -27.359375 584.515625 C-27.25112396 585.40005783 -27.14287292 586.28449066 -27.03134155 587.19572449 C-25.9758001 595.59324282 -24.52462302 603.88831338 -22.875 612.1875 C-22.63346191 613.41267334 -22.39192383 614.63784668 -22.14306641 615.90014648 C-20.63756837 623.3240757 -18.85888052 630.65757639 -17 638 C10.83336397 638.31280881 38.58809038 638.38489536 66.375 636.5625 C67.40503143 636.49501556 68.43506287 636.42753113 69.49630737 636.35800171 C77.49868206 635.82345989 85.49597663 635.24815247 93.48291016 634.51538086 C94.300065 634.44097275 95.11721985 634.36656464 95.95913696 634.28990173 C98.06168609 634.10123173 98.06168609 634.10123173 100 633 C98.71659662 625.66951067 97.25617584 618.39977358 95.63671875 611.13671875 C89.92209875 585.18414067 84.57164918 559.19489462 79.75 533.0625 C79.5527961 531.99444248 79.5527961 531.99444248 79.35160828 530.90480804 C75.84388125 511.89207821 72.43375904 492.86200462 69.04296875 473.828125 C59.52883852 420.43280465 49.57804692 367.26690596 37.25 314.4375 C25.62762533 264.61405367 17.63738571 214.39167272 9.66582489 163.88261414 C2.15255199 116.28883923 -7.55335807 69.79958337 -19 23 C-23.52695355 22.96887342 -27.97212292 23.00039026 -32.484375 23.40234375 Z " fill="#000000" transform="translate(1947,722)"/>
<path d="M0 0 C2.85431362 -0.0637721 5.70837826 -0.10738865 8.56311035 -0.14758301 C9.43774933 -0.17131989 10.31238831 -0.19505676 11.21353149 -0.21951294 C17.86678125 -0.28144554 21.90249773 1.11892884 27.07092285 5.50085449 C32.20980603 12.38044316 28.97646675 23.5956991 27.8326416 31.50085449 C27.20444825 35.69184907 26.54738862 39.87789307 25.88342285 44.06335449 C25.70442444 45.20343964 25.52542603 46.34352478 25.34100342 47.51815796 C9.13721862 150.45282036 -13.75182328 252.52059921 -48.80407715 407.06335449 C-48.95583153 407.71260643 -49.10758591 408.36185837 -49.2639389 409.03078461 C-56.96060694 441.95582583 -64.92539448 474.81424933 -73.0066185 507.64670944 C-73.6011001 510.06294885 -74.1947006 512.4794032 -74.78811646 514.89590454 C-79.26118075 533.10081936 -83.88058323 551.25890192 -88.6845665 569.37938499 C-91.85689101 581.35403101 -94.90579016 593.34518343 -97.6661377 605.42272949 C-98.26162344 608.02599002 -98.86734913 610.62673737 -99.47399902 613.22741699 C-101.58160472 622.32567668 -103.50381621 631.41930736 -105.08850098 640.62390137 C-106.76554556 648.68470114 -109.33292972 655.81930107 -115.96032715 660.97741699 C-149.34084961 680.63797895 -218.49157656 669.91576523 -255.30407715 667.68835449 C-256.35938629 667.62532135 -257.41469543 667.56228821 -258.50198364 667.49734497 C-291.15678905 665.49621394 -291.15678905 665.49621394 -299.74157715 657.18835449 C-303.04145857 650.58859165 -301.31482578 644.75457203 -299.40563965 638.02429199 C-299.13474518 637.02948822 -298.86385071 636.03468445 -298.58474731 635.00973511 C-297.67438368 631.68944131 -296.74163711 628.37606634 -295.80407715 625.06335449 C-295.47935425 623.90903931 -295.15463135 622.75472412 -294.82006836 621.56542969 C-293.05609038 615.30220897 -291.27654959 609.04351872 -289.48815918 602.78723145 C-275.54701895 553.99755132 -264.14516042 504.88294498 -253.57019043 455.26574707 C-248.14587209 429.82606812 -242.56659662 404.4284582 -236.80407715 379.06335449 C-230.03675411 349.26460319 -223.54887751 319.41267755 -217.16959381 289.52858353 C-211.38672088 262.44484841 -205.4467651 235.40620469 -199.23517609 208.41753006 C-192.77435688 180.340325 -186.48111509 152.23173055 -180.42907715 124.06335449 C-180.14582832 122.74604277 -180.14582832 122.74604277 -179.8568573 121.40211868 C-175.7621294 102.3439512 -171.77370261 83.27150348 -168.14782715 64.11804199 C-167.93664812 63.00311749 -167.93664812 63.00311749 -167.72120285 61.86566925 C-166.28549909 54.2716038 -164.87793755 46.67305399 -163.5057373 39.06726074 C-163.28172241 37.84532013 -163.05770752 36.62337952 -162.8269043 35.3644104 C-162.41797369 33.1304427 -162.01731884 30.89493382 -161.62744141 28.65756226 C-158.2920814 10.52186416 -158.2920814 10.52186416 -151.7755127 5.94616699 C-142.18261451 1.65044936 -129.96651964 2.88395557 -119.70932007 3.02700806 C-102.85689389 3.24732176 -86.0748504 2.92718866 -69.24157715 2.12585449 C-53.72191169 1.39356361 -38.21246646 0.78960552 -22.67907715 0.43835449 C-21.81958466 0.41798126 -20.96009216 0.39760803 -20.07455444 0.37661743 C-15.16667596 0.26179142 -10.25910345 0.17039354 -5.3503418 0.10327148 C-3.56678149 0.07531117 -1.78332434 0.0402919 0 0 Z M-53.36657715 28.00085449 C-80.1583223 29.46250438 -106.97891816 29.72084757 -133.80407715 30.06335449 C-135.63019674 35.03787004 -136.61243128 39.95175791 -137.5189209 45.14929199 C-137.8673999 47.08411821 -138.21690923 49.01875904 -138.56726074 50.95324707 C-138.75600769 51.99929108 -138.94475464 53.04533508 -139.13922119 54.12307739 C-143.8075257 79.81672722 -149.15569963 105.35446507 -154.67907715 130.87585449 C-154.88058128 131.80725502 -155.08208542 132.73865555 -155.28969574 133.69828033 C-162.02086025 164.7882981 -169.02524566 195.81330951 -176.12796021 226.82025146 C-182.25764671 253.58604302 -188.16142907 280.39144401 -193.86657715 307.25085449 C-200.2011295 337.07345323 -206.73002328 366.84549143 -213.4296875 396.5881958 C-217.96081779 416.70693705 -222.42923188 436.83618011 -226.73376465 457.00476074 C-226.93667051 457.95525173 -227.13957638 458.90574272 -227.34863091 459.88503647 C-228.16438804 463.70689655 -228.97993529 467.5288014 -229.79539394 471.35072517 C-241.21639365 524.858953 -254.33458377 577.68018762 -269.56951904 630.23124695 C-269.86525818 631.25406265 -270.16099731 632.27687836 -270.46569824 633.33068848 C-270.72547455 634.22545395 -270.98525085 635.12021942 -271.25289917 636.042099 C-271.84792461 637.8749735 -271.84792461 637.8749735 -271.80407715 639.06335449 C-269.1588687 639.38201703 -266.51307542 639.69322361 -263.86657715 640.00085449 C-263.15050293 640.08786621 -262.43442871 640.17487793 -261.69665527 640.26452637 C-243.67788082 642.33476854 -225.59142863 642.28161658 -207.48205566 642.30358887 C-204.4353815 642.30793058 -201.38899741 642.32167734 -198.34240723 642.34460449 C-176.32749834 642.50699005 -154.69808127 641.39484921 -132.80407715 639.06335449 C-130.48290922 629.87380668 -128.21580234 620.67951954 -126.12438965 611.43444824 C-118.99565685 580.24994003 -111.41052934 549.19732431 -103.55407715 518.18835449 C-103.09038997 516.35631385 -102.62670585 514.52427244 -102.1630249 512.69223022 C-100.81252182 507.35931185 -99.45807969 502.02740324 -98.10095215 496.69616699 C-97.87910751 495.82441456 -97.65726288 494.95266212 -97.42869568 494.05449295 C-95.09859829 484.90843819 -92.74079348 475.77135835 -90.28991699 466.65686035 C-83.7870105 442.44344777 -78.10603684 418.08806112 -72.65241241 393.61817932 C-71.6632955 389.18449761 -70.66936221 384.75190024 -69.67563438 380.31925011 C-66.61304089 366.65628761 -63.56816182 352.98941458 -60.52880859 339.32126617 C-59.82463971 336.15579013 -59.11970067 332.99048679 -58.41442871 329.82525635 C-39.68965182 245.7868565 -21.39024428 161.62563653 1.19592285 27.06335449 C-17.02810857 26.83620933 -35.16618604 27.00701561 -53.36657715 28.00085449 Z " fill="#000000" transform="translate(1020.8040771484375,718.9366455078125)"/>
<path d="M0 0 C6.22273586 4.59598004 7.39063276 14.84600428 9.19921875 21.953125 C9.51793694 23.20040627 9.51793694 23.20040627 9.84309387 24.47288513 C18.54550397 58.84219393 24.43429797 93.62919075 30.24667358 128.57800293 C30.8085807 131.95622613 31.37178621 135.33422878 31.93618774 138.71203613 C32.1473224 139.97590023 32.1473224 139.97590023 32.3627224 141.26529694 C32.64742938 142.96956686 32.93220042 144.67382609 33.21703529 146.37807465 C34.03838828 151.29947828 34.84884068 156.22251524 35.65068245 161.14713287 C38.3701784 177.81081495 41.38014863 194.35929423 45.0625 210.83984375 C45.23033619 211.59150566 45.39817238 212.34316757 45.57109451 213.11760712 C47.29769459 220.80548107 49.11119672 228.45289795 51.27931213 236.03088379 C52.69803856 241.40663239 53.18463475 247.24554886 50.85546875 252.40625 C47.02146927 257.56531445 41.90824345 258.88375101 35.8515625 260.19921875 C32.09488699 260.64809526 28.36272728 260.77569445 24.58203125 260.859375 C23.51941574 260.89414444 22.45680023 260.92891388 21.36198425 260.96473694 C17.9212603 261.07539623 14.4802965 261.16841556 11.0390625 261.26171875 C6.25370919 261.41073112 1.46866617 261.56882 -3.31640625 261.7265625 C-4.50165894 261.76438843 -5.68691162 261.80221436 -6.90808105 261.84118652 C-16.43887496 262.15256423 -25.95375617 262.62489774 -35.47259521 263.18829346 C-59.04916566 264.58111046 -59.04916566 264.58111046 -70.67480469 264.265625 C-72.56325575 264.21492833 -74.452007 264.17529273 -76.34082031 264.140625 C-79.8815052 264.07350301 -83.42094256 263.98332822 -86.9609375 263.88671875 C-88.07815186 263.86440186 -89.19536621 263.84208496 -90.34643555 263.8190918 C-95.95314013 263.62938966 -100.36106305 263.44835485 -105.1484375 260.19921875 C-109.90738558 254.92578979 -110.57153747 251.5772981 -110.48046875 244.58984375 C-109.53746734 234.96013523 -104.20545536 226.08185288 -100.07592773 217.45239258 C-89.37359618 195.08458427 -79.49835213 172.56488456 -71.1484375 149.19921875 C-70.80093445 148.23181763 -70.80093445 148.23181763 -70.44641113 147.24487305 C-61.61979838 122.6515812 -53.87412204 97.71870159 -46.12846565 72.76991463 C-41.23737265 57.01782631 -36.31329517 41.28132801 -31.0859375 25.63671875 C-30.84600067 24.91554871 -30.60606384 24.19437866 -30.3588562 23.45135498 C-23.89123619 4.05274268 -23.89123619 4.05274268 -19.1484375 0.19921875 C-13.38198242 -1.72293294 -5.75779243 -2.14608627 0 0 Z M-12.1484375 53.19921875 C-12.34285431 53.81783279 -12.53727112 54.43644684 -12.73757935 55.07380676 C-48.19477861 167.86871699 -48.19477861 167.86871699 -65.1484375 205.19921875 C-66.74497525 208.7265312 -68.33960845 212.25470512 -69.93392944 215.78302002 C-71.52830005 219.31070183 -73.12541299 222.83707254 -74.72949219 226.36035156 C-75.17108421 227.33285858 -75.17108421 227.33285858 -75.62159729 228.32501221 C-76.42583775 230.0961148 -77.23178711 231.8664411 -78.0378418 233.63671875 C-79.2147144 235.88667122 -79.2147144 235.88667122 -79.1484375 237.19921875 C-59.58583054 237.4165439 -40.14272437 237.28652954 -20.61816406 235.98535156 C-19.23764645 235.89363544 -17.85711259 235.80216355 -16.4765625 235.7109375 C-15.79829407 235.66607208 -15.12002563 235.62120667 -14.42120361 235.57498169 C-2.01322838 234.78069954 10.42503629 234.54293825 22.8515625 234.19921875 C22.46590118 232.42806953 22.46590118 232.42806953 22.07244873 230.62113953 C15.35634721 199.64750168 9.68183412 168.59587734 4.63409424 137.31036377 C-0.96560293 101.92410322 -0.96560293 101.92410322 -7.5390625 66.7109375 C-7.77679382 65.53529739 -8.01452515 64.35965729 -8.25946045 63.14839172 C-8.48095764 62.10515244 -8.70245483 61.06191315 -8.93066406 59.98706055 C-9.11904846 59.09963669 -9.30743286 58.21221283 -9.50152588 57.29789734 C-10.02848388 55.00754583 -10.02848388 55.00754583 -12.1484375 53.19921875 Z " fill="#000000" transform="translate(1832.1484375,895.80078125)"/>
</svg>
